<?xml version="1.0" encoding="UTF-8"?>
<!-- Generator: Blender, SVG Export for Grease Pencil - v2.0 -->
<!DOCTYPE svg PUBLIC "-//W3C//DTD SVG 1.1//EN" "http://www.w3.org/Graphics/SVG/1.1/DTD/svg11.dtd">
<svg version="1.1" x="0px" y="0px" xmlns="http://www.w3.org/2000/svg" width="301.762695px" height="503.964386px" viewBox="0 0 301.762695 503.964386">
	<g id="blender_frame.1">
		<g id="blender_object.LogoVector.002.1.uuid_0x0">
			<g id="layer.fill.uuid_0x1">
				<path d="M128.527039,363.498779L127.801025,363.745422L127.137085,364.129028L126.560791,364.634766L126.094177,365.243286L125.755249,365.931091L125.557068,366.671753L125.507202,367.436951L125.607544,368.197205L125.854248,368.923157L126.237915,369.587158L126.743652,370.163452L127.352173,370.629944L128.039978,370.968994L128.780701,371.167175L129.545837,371.217163L130.306091,371.116638L134.582031,370.118164L142.045349,367.437073L149.070618,362.867126L151.025024,361.076172L153.944946,356.594666L154.509033,354.945923L155.139587,348.965698L154.424194,345.227173L150.867126,339.287476L144.200195,332.857727L138.555542,329.450256L135.030090,328.037048L131.071472,327.291016L126.467468,327.348511L122.179871,328.309875L117.654907,330.364502L113.603882,332.767273L109.776428,335.833801L106.074097,340.178955L103.306580,344.540100L100.940979,349.844604L99.442932,355.026978L98.827148,364.603699L99.738708,370.093445L101.428467,374.763977L103.729431,378.770691L106.670410,382.315125L112.571960,386.979431L119.857727,389.840393L128.650391,390.858215L137.482056,389.780579L142.224670,388.181519L146.791443,385.851807L154.570435,379.971375L160.581116,372.982849L163.270508,368.543945L165.172913,364.072449L166.479980,356.025330L165.997009,351.804626L164.572754,347.885132L162.045532,344.302856L156.436279,339.894958L151.745422,337.840454L147.779480,336.915527L139.669250,337.260254L134.821106,338.850830L130.890076,341.087891L127.050964,344.723206L124.294556,348.475403L121.100891,356.139587L120.284607,364.462158L120.932434,369.227234L123.752747,376.305115L126.298645,379.826416L131.143738,383.546387L134.290466,384.909180L140.884277,385.464600L148.325317,383.840271L155.276672,379.595886L161.352905,373.309570L164.311829,368.867249L168.211121,360.219177L169.365112,355.570740L169.415466,347.586182L168.323425,343.426575L166.071533,339.697327L165.067749,338.653687L160.223328,335.204224L156.360291,333.655701L151.628479,332.879944L147.137878,332.852783L141.779358,333.865540L136.803284,335.895508L132.341064,338.950745L128.692261,342.410950L125.378113,347.049988L123.196350,351.490662L121.741394,356.690063L121.191345,361.319763L121.822205,370.605408L124.882935,378.959351L129.612549,385.182617L130.931396,386.248657L135.691589,388.614624L139.238098,389.297058L146.390503,388.284729L154.045471,384.145203L157.980103,380.622864L164.611694,372.176758L167.601074,367.135925L170.170227,361.126099L171.705017,355.765686L172.274414,350.317932L171.608276,345.353516L169.917603,341.200317L166.332153,337.029785L162.299438,334.276550L157.063965,332.182556L151.585327,331.169800L145.485229,331.096313L138.569153,332.133179L131.637695,334.288940L125.640015,337.168762L119.046448,341.619629L113.738525,346.750427L109.907532,351.997437L106.869385,358.195129L104.953552,364.314331L104.190796,370.458069L104.426025,375.847595L105.325317,380.914429L107.150330,386.050476L109.739624,390.596252L113.031677,394.501648L120.050171,399.659912L128.727112,402.560486L133.631836,403.000916L138.993652,402.466858L143.635315,401.299927L154.868530,395.524292L166.191711,386.622681L171.613342,381.023621L176.002014,375.169250L179.440857,369.270630L181.913879,363.127930L183.095154,357.649048L182.804749,351.248779L181.209778,346.148743L177.975342,341.139771L173.897217,336.925964L168.699707,332.960388L162.937317,329.809875L156.107300,327.341980L149.352173,325.746277L142.549438,325.031006L134.930481,325.353943L128.024902,326.769592L121.912537,328.988953L115.796326,332.687988L111.097046,336.740417L106.825439,341.972595L103.569458,347.422119L101.231201,353.082336L99.915405,358.676941L99.372925,364.449219L100.014648,370.767883L101.227112,375.506104L106.207520,384.261780L112.513672,390.377014L117.086853,392.923767L121.277588,394.246216L125.375793,394.950317L134.236633,394.160706L143.940674,390.352905L148.685913,387.184570L152.458069,383.668335L158.571289,375.307739L161.120483,369.824097L162.666138,364.651184L163.262390,359.161865L162.994629,354.486267L161.543945,349.636658L158.696899,344.950317L154.783569,340.742615L150.247986,337.256287L145.544006,334.378357L139.896301,331.915222L134.319885,330.516846L128.374756,329.863892L122.800110,330.225708L117.440674,331.769775L112.739624,334.218506L108.686829,337.770569L105.369751,342.354919L102.958618,347.445374L101.070801,357.824036L102.182922,368.430664L103.831360,373.754333L106.048523,378.380554L108.992004,382.646606L111.611328,385.616577L115.210632,388.397583L119.057129,390.302673L123.067017,391.264648L129.848083,390.685120L133.956177,389.011597L140.882629,383.728455L146.393799,375.850647L148.701111,370.638245L151.518188,358.815552L152.109741,352.727783L151.912231,346.747070L151.097412,340.833374L149.564209,335.398804L146.999817,330.040588L144.286316,326.161072L140.597656,322.649902L136.947571,320.373657L133.355225,319.310974L130.334900,319.374023L128.525391,320.016357L127.150269,320.934998L125.832092,322.423401L124.748657,324.567688L123.888367,328.241455L124.083923,335.325928L125.221985,342.053467L126.774963,347.600159L128.255310,350.742615L128.660706,351.393372L129.185242,351.952698L129.808838,352.398865L130.507507,352.714722L131.254456,352.888367L132.020813,352.912903L132.777283,352.787415L133.494690,352.516785L134.145569,352.111389L134.704834,351.586975L135.151001,350.963318L135.466980,350.264465L135.640503,349.517761L135.665039,348.751404L135.539612,347.994934L135.268982,347.277344L134.187622,345.125244L132.893921,340.510193L131.889099,334.739441L131.630066,329.270325L131.941345,327.595947L132.251465,326.780762L132.006592,326.954895L132.125793,327.008911L133.454285,327.349365L135.605774,328.659790L138.160339,331.043030L140.120178,333.778809L142.145203,337.903564L143.390137,342.202026L144.102722,347.247131L144.296021,352.270691L143.837891,357.303772L141.375000,367.873108L139.692078,371.798767L135.570618,377.951660L130.290527,382.115601L128.343689,383.032837L124.067566,383.531860L121.982727,383.061584L119.563416,381.908997L117.168030,380.124084L115.252625,377.961243L112.940552,374.666565L111.187927,371.079224L109.904785,367.120667L108.878662,358.568481L110.282410,350.243591L111.983093,346.548340L114.289124,343.247681L116.880005,340.873718L120.104126,339.135437L123.828491,337.993042L127.915894,337.681458L132.742737,338.183533L137.118408,339.235779L141.720520,341.208679L145.694153,343.620300L149.342896,346.372925L152.310547,349.484070L154.257935,352.528687L155.222961,355.502319L155.444519,358.734253L155.052307,362.816895L153.872375,366.868225L151.993286,371.054932L146.806763,378.246582L143.989563,380.920776L140.581909,383.275024L132.863708,386.438843L126.122620,387.180664L123.270386,386.685425L120.365662,385.830933L117.466797,384.298340L112.664307,379.808411L108.651917,372.984314L107.754883,369.597900L107.200439,364.740479L107.604309,360.142700L108.601929,355.723145L110.456909,351.143066L113.104797,346.646790L116.514221,342.394653L120.193237,339.166504L124.997437,336.188660L129.929382,334.362366L135.621704,333.152771L142.056641,332.843750L147.825623,333.422974L153.701904,334.789124L159.495850,336.841492L164.231628,339.388672L168.536865,342.630737L171.707458,345.834656L173.973877,349.168823L175.033875,352.286194L175.324707,356.600281L174.512573,360.571289L172.522827,365.606750L169.588501,370.684143L165.798157,375.785034L161.120422,380.660278L150.908936,388.767212L141.230042,393.842468L137.848022,394.723083L133.814148,395.171997L130.608643,394.953369L124.089905,392.930725L118.643982,389.032227L116.309021,386.333435L114.374146,383.028015L112.958984,379.171753L112.224304,375.177368L112.000732,371.015015L112.540344,366.255615L114.050781,361.311646L116.465881,356.275635L119.463196,352.092834L123.744751,347.884277L129.325623,344.075012L134.280212,341.657654L140.077698,339.815125L145.771912,338.920105L150.587708,338.935669L154.628418,339.626648L158.401062,341.046692L160.954529,342.691040L163.072144,344.930115L163.993347,347.073364L164.439392,350.085205L164.076721,353.995300L162.865906,358.314331L160.720215,363.405090L158.278015,367.577759L152.423828,375.106812L149.746216,377.594788L144.408936,380.683411L139.689026,381.508545L138.575562,381.371216L135.190979,379.629822L131.960266,375.573181L129.579712,369.439941L129.007263,361.809998L129.377258,358.416443L130.410156,354.539246L131.982361,351.254883L134.401733,347.772888L137.108276,345.160400L140.252930,342.929749L143.726013,341.452759L147.551392,340.655334L150.780457,340.651123L154.077087,341.127808L156.138916,341.855103L159.979736,344.551270L161.035339,346.214233L161.636841,348.201233L161.640686,354.248962L160.911926,357.380310L157.582336,364.866211L155.417175,368.201660L150.623840,373.289368L145.841309,376.391968L140.739197,377.621887L136.534485,377.440552L135.320251,376.950989L132.122192,374.632629L130.749512,372.844238L128.559937,367.551636L128.093018,364.601379L128.585938,358.492249L130.928772,352.647766L132.792175,350.047302L135.260620,347.557739L137.824097,346.065674L140.709534,345.034363L146.644531,344.636963L149.106323,345.197144L152.136719,346.450012L156.168335,349.437622L157.511169,351.207092L158.355591,353.427002L158.698853,355.473145L157.763062,361.516846L156.398438,364.795776L154.389893,368.189758L149.476685,374.018738L142.883179,379.066345L139.347778,380.901794L136.034790,382.081665L128.984070,383.028748L122.086304,382.325745L116.875000,380.418274L112.363708,376.934265L110.291809,374.499146L108.631714,371.693237L107.366089,368.321594L106.664062,364.560120L107.090149,356.731689L108.216614,352.731995L110.092163,348.443604L112.261292,344.973389L115.013855,341.657349L117.863892,339.334778L121.174377,337.353760L124.420898,335.794434L127.103943,335.134399L130.153076,335.050598L132.589172,335.458923L134.890381,336.354370L139.167603,338.863647L144.531250,343.902283L147.053345,347.776428L147.349182,348.848511L146.822937,353.236938L145.278809,355.790710L144.442505,356.569214L138.927979,360.246338L132.576233,362.553101z" fill="#34A634" stroke="none" fill-opacity="1" />
				<path d="M155.992004,340.953613L150.388489,340.047302L144.715820,340.251587L139.192017,341.558655L134.029358,343.918091L129.426208,347.239441L125.559509,351.395142L122.577820,356.225281L120.595703,361.544250L119.689392,367.147705L119.893677,372.820374L121.200684,378.344116L123.560242,383.506897L126.881653,388.109924L131.037231,391.976685L135.867310,394.958313L141.186340,396.940369L148.416626,398.852478L158.321411,399.776917L167.876953,397.985046L176.300720,393.131287L177.616455,392.042297L185.171143,382.445190L186.683838,379.348450L190.124756,366.960999L190.934265,355.635193L190.406433,346.781921L188.955994,339.550110L184.500610,329.791443L177.433105,321.756226L174.266296,319.280640L161.006653,313.500488L156.014099,312.701904L143.958984,313.321472L138.104736,314.887146L125.538635,321.387024L113.971375,331.036072L103.082458,343.685608L97.981873,351.763672L92.532959,365.104065L90.306763,375.199768L90.493530,388.981995L92.958252,399.266113L98.293823,409.039062L110.799622,420.156311L121.721741,425.228943L135.583130,428.010010L145.930054,428.378967L154.931702,427.462341L164.394653,425.378479L172.886169,422.596069L188.042664,415.357117L201.855164,405.780090L209.901062,398.271973L215.280518,391.943420L220.564270,383.719727L224.208801,375.664062L226.714355,364.609680L226.520447,353.305664L223.951599,343.440674L218.378662,333.419067L212.229004,326.596802L206.155029,321.711792L196.831482,316.747375L187.588379,314.046143L178.441589,313.056763L169.827576,313.360229L161.573486,314.586121L153.372986,316.782532L144.259521,320.578552L136.074463,325.310364L128.098328,331.507202L121.599915,338.019287L116.201965,344.986267L111.510620,353.224915L108.362854,361.422302L106.494324,371.397461L106.386719,380.156311L107.833618,388.848572L111.726746,398.447937L118.299255,407.352844L125.105286,413.304321L137.872559,419.795959L154.691040,422.878052L164.259033,422.595337L171.367737,421.355530L179.742737,418.607666L188.374023,413.963135L196.153381,407.628723L202.355469,400.154724L206.742920,392.299744L210.923096,378.912109L211.011597,364.349609L209.032349,356.536560L206.097046,348.860413L201.316040,340.997314L194.361572,333.509216L187.455383,328.252930L178.996277,323.706543L163.257385,319.638245L151.721985,319.263489L142.208191,320.687134L126.813354,326.629761L116.692078,333.210815L109.460144,340.165894L103.271606,348.872620L99.247803,357.112244L96.408997,366.759277L95.412781,381.649109L96.969971,392.499207L100.411194,401.776001L108.819458,414.152466L122.037415,424.879028L131.578125,429.348450L148.455139,432.103455L158.999084,431.665222L169.566284,429.003906L179.348206,424.319275L187.782349,418.224182L195.128967,410.977417L201.048950,403.770447L206.998901,394.590820L211.492249,385.906738L215.353882,376.032593L217.929199,366.182434L219.187378,355.905090L218.763062,345.269592L215.400024,332.709900L209.377625,321.986694L202.630798,314.512939L193.204773,307.742554L184.248596,303.552307L173.500305,300.761353L164.064819,299.826843L151.879211,300.694275L141.875732,302.853638L131.524902,306.495178L121.820618,311.270691L112.174438,317.755493L103.881653,325.161987L96.452026,334.283081L90.441589,345.353516L86.994019,355.594543L85.332153,367.225830L85.937378,378.990662L88.703003,390.003601L92.948486,399.343384L98.978516,408.245667L106.116150,415.914429L113.523499,422.181824L130.114685,432.132446L148.253784,439.090759L159.414368,441.642853L169.332886,442.781494L180.324829,442.673462L191.720886,440.904541L202.232971,437.670593L212.623779,432.870789L221.911560,427.148743L230.458679,420.282104L238.188171,412.150452L244.645691,403.005676L249.347961,393.598389L252.515625,382.532898L253.265442,370.500305L250.888672,357.639221L245.741943,346.155273L239.159851,336.671753L232.138367,329.039917L223.951477,322.095276L215.358093,316.264771L205.247253,310.951111L196.078674,307.282166L185.162903,304.318237L166.064209,301.957214L144.164185,303.020020L132.450867,305.106628L113.698608,311.244263L102.813232,316.736511L94.044434,322.947754L86.556763,330.172119L79.999573,339.361084L75.543457,349.225891L73.172791,360.097656L73.350403,371.940063L75.433167,381.397156L80.328125,391.995239L87.138184,400.953613L94.859375,408.017029L103.822632,413.971252L120.769287,421.272156L139.656982,425.517761L151.173828,426.308594L161.531494,425.727539L172.011353,423.910706L182.352478,420.672485L191.870422,416.319519L200.959595,410.869690L208.871521,404.932129L216.914185,397.309631L223.632324,389.183350L229.577576,379.695496L233.906738,370.425659L237.139648,359.905884L238.716309,349.072021L238.219421,337.532043L234.797302,325.046570L229.808533,315.134827L222.286133,305.629639L213.648987,298.108032L203.597656,291.979126L193.092957,287.573547L181.579224,284.709106L169.889648,283.515564L157.994446,283.933594L146.121094,286.020508L134.729309,289.638245L124.019836,294.624878L114.006042,301.220459L104.909241,309.524414L96.921570,319.862427L91.343384,330.353088L87.747986,340.852539L85.815002,352.373474L85.629456,362.864075L87.016724,373.489441L89.950378,383.495117L94.636780,393.058105L101.158569,401.838013L107.194275,407.882996L116.015198,414.195984L123.942322,418.295654L133.062988,421.544739L142.498474,423.495850L150.916626,424.142700L160.450623,423.544922L169.624207,421.584351L180.463196,417.027039L188.987061,411.754089L201.720947,400.742188L208.084839,393.851135L214.046387,385.707642L218.506287,378.038025L222.192078,369.521118L224.713013,360.099976L225.737793,351.710388L225.293579,341.634888L223.510986,332.921143L219.999390,323.619690L215.539062,315.540222L205.544739,303.186401L194.286987,293.122131L187.894653,288.571655L177.797974,283.099731L171.401428,280.490723L163.473694,278.659180L152.388794,278.980347L144.490051,281.529724L137.638977,286.215210L136.335022,287.414551L128.056152,300.911926L127.544800,302.736633L127.406128,317.851746L127.909424,319.783142L134.221191,331.643982L135.513489,333.108032L146.545654,340.861816L148.152954,341.499268L159.413452,343.583252L170.014648,342.005859L172.449890,341.161377L184.102844,333.962830L190.423523,327.378418L196.933472,317.722534L204.903564,296.996399L206.438721,289.069946L205.725586,281.027771L204.292908,274.862427L201.974854,268.033264L200.997559,263.170288L201.169739,257.317871L201.110291,254.226318L199.144897,244.325806L196.490967,238.687195L192.692139,233.747314L187.924194,229.734497L182.408142,226.834778L176.399353,225.182556L170.176208,224.854309L164.026978,225.865173L158.236450,228.168396L153.072815,231.657227L148.775269,236.170044L148.368713,236.701355L143.369507,246.827942L141.719238,258.933777L142.615784,272.524475L150.351990,292.080200L156.476929,300.307434L162.422729,305.270020L169.588867,309.082458L178.037781,311.152832L186.720337,310.620361L194.852905,307.532898L196.039307,306.863708L202.946106,301.438232L207.908508,294.191650L210.470154,285.790649L210.909668,282.752991L210.642395,271.097473L210.171509,265.279724L207.533264,254.616333L204.152283,247.595886L199.021667,241.731262L192.512878,237.446899L185.097412,235.053528L199.230347,243.389954L206.773865,262.127625L212.168884,238.482910L210.616760,205.805054L210.210876,197.250305L207.964661,187.068420L204.304565,179.546326L202.475708,177.158569L202.442017,172.251343L192.612000,146.977356L180.534302,129.911316L171.281799,121.459595L162.195801,116.092651L149.276001,112.690430L139.072510,112.438354L126.375427,115.025024L122.590027,116.745728L110.096130,126.678528L100.030457,143.052551L96.917664,151.471741L95.584717,162.786255L96.633240,171.207825L96.612427,172.682007L95.513855,185.211731L96.002686,195.877808L98.015198,207.502686L102.088806,220.351868L104.173950,228.520081L108.244751,238.857544L112.899109,247.152466L123.017334,258.003906L137.363953,265.606689L144.432922,267.379150L151.720581,267.330505L158.765198,265.463684L163.476685,263.553345L171.617310,258.690247L174.195496,256.926697L184.835938,245.146545L189.675049,234.498291L190.927734,228.979065L191.618774,212.079163L190.281250,200.626465L186.448425,186.619324L179.663879,172.663696L173.957947,163.818909L163.992249,153.952332L156.284607,149.365967L147.543213,147.358215L143.721252,147.089172L134.686951,147.877014L126.339355,151.420654L125.024719,152.242493L116.316650,160.680420L115.255920,162.263794L110.681030,171.471069L106.818115,190.228333L106.130432,202.581055L105.975464,213.457214L109.284058,234.339111L115.149292,251.776245L120.193848,262.728027L124.419373,269.797119L128.786499,275.151062L134.297668,279.317932L140.639160,282.060730L147.449890,283.222839L154.342041,282.738647L156.099121,282.401062L162.579651,280.343750L168.401611,276.831604L173.244202,272.058838L176.840271,266.288391L177.640625,264.586548L180.309631,256.811707L182.285645,249.276001L183.352234,245.962158L184.861084,239.164307L184.443115,226.450562L183.890076,224.323181L177.679810,212.566406L176.404480,211.105591L170.228088,205.777039L162.810669,202.382751L161.412292,201.968628L154.529114,200.808228L147.568237,201.328735L140.934143,203.500061L135.012512,207.195740L131.551147,209.987732L125.791870,216.235229L122.093994,223.885803L121.019470,227.323059L119.120178,243.631470L119.842834,260.104492L120.731262,264.300110L119.819824,263.674561L114.038452,280.504944L143.634155,290.902893L149.050476,306.584595L143.727295,305.865051L135.624573,312.142456L140.622925,311.776733L146.762756,310.646912L152.517761,308.227234L157.620300,304.630127L161.833252,300.023010L164.960815,294.619934L166.857483,288.672119L166.980957,288.065186L167.548523,281.409058L166.575684,274.799988L164.114136,268.589783L160.294861,263.109009L155.321289,258.649170L153.360474,257.262939L146.862061,253.766052L138.697693,251.365234L127.710144,248.791870L114.476074,245.807373L106.194214,245.161804L98.069824,246.894165L90.771545,250.861938L81.063477,258.949890L110.583008,262.939880L121.109497,288.276306L118.901001,291.462769L123.395569,289.971619L128.453308,284.916748L132.118103,278.776672L134.166443,271.925537L134.473389,264.781555L134.309753,262.762146L76.587463,267.439514L79.106323,255.463684L76.853577,252.809753L70.372681,259.859802L66.545776,268.638123L64.282715,277.689697L63.416809,285.401428L64.123230,291.809387L66.229858,297.902161L69.632385,303.377625L74.162109,307.964844L79.594421,311.436096L85.660156,313.619263L92.058594,314.406372L98.472595,313.758240L99.157532,313.610718L110.393921,308.497009L114.146606,302.373169L114.622253,305.204956L125.583069,307.772156L126.082581,307.750122L122.374451,306.101868L111.688049,292.962952L119.345398,261.170227L132.125732,254.337402L123.436646,254.822815L116.115540,256.192261L109.385925,259.384033L103.693115,264.186707L99.413757,270.282654L96.830994,277.268616L91.900024,298.797424L91.846802,312.237000L93.770935,319.404175L97.453613,325.847168L102.652954,331.142334L109.027527,334.942139L109.540100,335.164307L115.557007,337.026001L121.834106,337.542603L128.074463,336.689575L133.982727,334.507568L139.279358,331.099670L143.713867,326.627136L165.723511,298.968445L171.969421,290.057434L175.589233,282.856567L177.084106,274.936890L177.722229,261.352844L176.966003,245.753479L177.117859,241.289429L173.669861,248.815002L158.815979,258.137512L138.952820,254.517151L130.262634,245.132812L127.478699,234.687012L127.696655,230.050293L126.882568,232.434265L124.709717,240.622375L124.402100,241.895630L132.873901,231.098511L160.375000,227.726013L171.707703,236.327576L169.135498,230.866760L165.704407,221.493103L163.779358,211.369873L164.003540,204.641418L164.289124,197.198486L164.908569,191.405151L164.646912,192.401184L160.523376,197.590210L148.689758,204.070068L134.736023,203.119019L128.286743,199.173035L129.244995,201.119995L131.910583,205.879089L133.316895,210.830566L133.780823,214.215271L133.910339,219.382996L135.076172,216.109680L137.654175,212.269348L138.563477,211.139832L138.551697,211.397888L147.691345,209.674805L157.594971,211.842896L160.140747,213.938416L160.641907,214.268433L159.614563,211.932495L157.873352,204.839600L154.498657,194.892761L153.553589,189.588867L153.323425,187.639587L154.410095,175.939941L154.354980,167.218201L153.381958,161.115601L153.212891,164.496216L152.390564,167.636108L154.028809,164.172302L151.134460,166.857300L144.137756,169.758301L141.187378,169.638367L137.496277,168.424255L136.888611,167.801514L141.326965,173.670349L145.730225,183.076355L146.020569,188.867981L149.196777,199.195984L153.400452,207.152771L154.060852,208.013794L152.815247,203.903809L152.802917,209.122803L154.940674,230.698608L149.521973,254.779663L149.370056,266.558594L151.148071,273.722778L154.679749,280.204529L159.735535,285.582764L165.986938,289.507874L173.027588,291.724731L160.962219,285.380066L152.916504,273.294434L152.932373,275.921204L153.306702,277.844604L157.922058,265.283325L178.853760,253.411621L193.474976,256.505310L196.776062,258.812073L199.894348,262.370544L199.213440,261.482361L199.536682,260.951233L199.502747,260.718628L197.115295,267.539001L167.143127,282.349487L143.662537,260.018372L143.259827,257.388245L143.206177,265.620789L145.579529,281.010620L148.297791,289.546753L148.603760,286.092957L146.412903,289.618774L145.296875,291.145569L145.870972,290.543701L148.945190,288.466919L156.265076,286.008484L164.809448,286.252136L173.871704,290.256042L181.491272,298.879333L184.380798,310.816223L180.620178,323.865540L169.993164,333.523438L159.010681,336.203613L153.986511,335.649292L152.710205,335.263611L156.803101,337.399902L157.931885,338.172058L163.132629,342.555725L166.982666,346.992798L167.490295,347.974182L167.837891,348.677368L167.895935,349.060791L167.950012,349.054565L167.876831,349.153442L167.715820,350.011719L167.102478,351.427063L165.856201,353.627136L163.754578,356.623840L161.789978,358.829224L155.485779,364.569702L153.706482,365.702393L152.712219,366.274170L152.833130,366.179077L151.722107,366.274353L150.791016,366.209717L149.005981,365.907166L147.399353,365.385132L146.065125,364.724243L145.057190,364.142578L144.799988,363.814270L144.109070,363.076111L143.985291,362.821289L143.723877,361.974182L143.434326,360.100403L143.419617,357.957458L143.716370,355.533264L144.287109,353.710144L145.314758,351.579407L146.960449,349.256714L149.076294,347.249512L151.490967,345.555786L155.128906,343.806580L159.309021,342.378418L163.371521,341.560059L167.264465,341.332825L171.231018,341.655945L174.215210,342.273315L177.005188,343.383789L179.128845,344.541992L180.522644,345.676575L180.937317,346.053467L180.902832,346.068176L181.089966,346.424316L180.984375,345.659424L180.802612,346.692810L180.156128,348.974854L178.972595,351.591736L177.081299,354.787354L175.083923,357.300903L172.079529,360.241699L169.150452,362.499817L165.372009,364.849365L162.010742,366.478760L159.098022,367.493103L155.606812,368.144897L151.760986,368.422546L148.604309,368.346313L139.864990,366.668396L132.187012,363.542603L130.769531,362.637024L129.613708,361.653442L129.671326,361.836243L130.200378,362.860046L130.721741,364.537354L130.732788,365.503784L130.487305,367.247620L130.180298,368.125916L130.118713,368.224060L130.553223,367.841309L132.461914,366.441772L134.771667,365.127258L145.596863,361.473145L149.995911,360.608032L162.360046,359.692688L172.950134,360.891602L176.999023,361.933655L180.489624,363.282837L184.952759,365.524719L188.534790,367.890503L191.661316,370.419861L193.825500,372.660278L195.480042,374.826599L195.843872,375.343323L195.587219,374.124878L195.533997,372.724304L195.627686,372.169617L195.214905,372.917542L193.870850,374.935486L191.753906,377.249512L189.115967,379.454468L185.764160,381.592773L181.968445,383.451599L179.227234,384.395325L176.254883,384.945068L173.205688,385.032043L169.427368,384.621277L165.741577,383.922729L156.595459,380.693115L148.286743,375.927917L146.167542,374.112793L144.414368,372.404724L143.465820,371.124634L143.270203,370.772400L143.149475,370.482849L143.106323,370.028137L143.179932,369.353088L143.450195,368.549133L144.195068,366.939331L145.209961,365.655640L147.233337,363.806458L150.123962,361.753479L153.404297,360.087341L157.091614,358.702026L159.972717,358.008118L162.614807,357.662720L163.524353,357.772034L164.452026,357.906494L164.338867,357.888489L164.193726,357.715393L163.065979,356.640991L162.072571,354.966125L161.560364,353.563660L161.405334,352.998108L161.200745,354.714172L160.521545,357.484985L159.069763,361.347534L157.147095,365.149231L154.821716,368.931030L152.434692,371.870789L150.503357,373.955383L149.624390,374.676025L149.694824,374.682861L150.417603,374.468811L151.599182,374.352234L148.635925,374.133423L151.681641,375.243286L151.606628,375.398682L151.950928,375.614685L152.788879,377.317139L153.177612,379.432800L153.262268,377.326294L153.068359,378.326294L153.212830,378.117188L153.210571,378.002014L153.043335,378.223022L152.927673,378.217651L156.164978,376.797058L155.579712,376.999329L155.395142,376.927612L157.053223,377.162354L156.035583,376.846436L155.965027,376.807800L155.416321,376.184448L154.276611,374.567566L153.575623,373.047058L153.987427,371.284363L153.756531,369.114380L154.290405,367.945007L155.169861,366.816223L156.090088,365.966797L156.922974,365.448608L157.677673,365.133667L157.718201,365.078064L158.085510,365.132507L156.588745,365.161987L157.566650,365.489136L159.934448,367.195190L161.610413,369.260620L163.301392,372.571655L164.040100,375.453247L164.113953,376.680481L164.009460,377.218689L163.751709,378.109314L164.127991,377.425476L164.783203,376.560974L166.194153,375.088501L167.996033,373.588196L169.583374,372.626099L171.625732,371.708801L172.797180,371.371460L175.049377,371.018188L176.394714,370.899170L176.842896,370.906555L175.703857,370.591919L174.074036,369.820190L172.989929,369.142883L172.241638,368.309692L170.656860,365.759338L169.416870,362.357788L169.160278,359.348450L169.481140,357.024597L169.824829,355.893921L169.160278,356.982483L168.124451,358.195862L165.978394,360.370789L160.169983,364.655518L152.287476,368.503418L149.563721,369.415955L146.145447,370.243469L143.955383,370.527771L142.644287,370.582336L138.841187,369.968018L141.016907,370.911194L142.929565,372.500793L146.364929,377.227417L147.780518,381.333313L147.810059,381.194336L147.597595,382.804749L149.204102,378.678223L149.346680,378.442566L153.627625,373.163086L158.890625,368.693054L157.432312,369.281250L152.926208,370.211670L144.861938,368.636292L137.857483,363.692444L134.187439,357.919434L133.013733,354.126160L133.053772,355.113464L132.971619,357.895447L133.229126,357.385071L136.401428,351.826111L147.798645,343.665588L159.312073,342.114746z" fill="#34A634" stroke="none" fill-opacity="1" />
				<path d="M94.644531,303.112793L111.714966,247.774475L111.712891,247.773743L94.714233,246.158875L79.534424,249.817566L67.992615,256.293518L60.726746,259.583496L53.678223,263.997070L47.543701,269.549805L41.323547,277.436340L34.733276,290.245728L31.013123,300.569092L23.476685,319.661621L21.743713,324.318542L19.013000,336.475891L18.353638,347.191833L19.404663,358.423279L18.573792,366.220337L17.612976,379.507019L18.230835,393.949890L23.829712,411.185059L30.492554,421.728943L36.582703,428.513428L44.782776,435.308777L62.103943,447.366394L78.394409,458.585175L85.721680,462.848297L96.633789,467.797333L105.147461,470.362091L119.321899,472.639648L131.238708,476.088806L157.711121,477.290161L163.043335,478.167450L178.451355,479.427887L184.163574,480.269897L202.983398,480.554779L216.793274,478.419495L225.888184,475.676300L233.079407,472.613953L243.907837,465.776489L257.335693,453.761871L264.565491,446.261871L274.951111,433.563110L278.763000,427.402710L280.926514,420.488831L281.306091,413.254395L280.391907,416.552124L279.926453,419.852600L283.959351,406.253906L286.055969,398.282593L286.676208,380.853699L286.953796,375.408386L288.133850,348.830811L286.689331,338.428894L281.629883,329.226318L279.371521,326.764099L280.218872,328.110779L271.233643,305.371643L264.414307,294.622864L258.142700,287.698853L248.025696,279.414490L239.346130,274.451843L229.209229,271.054626L214.319275,270.252441L188.875549,276.842773L171.253113,279.678040L162.519714,281.823730L155.872498,284.361511L148.843750,288.448364L138.297546,298.692139L131.215454,311.895020L128.757019,326.392517L131.308472,341.821289L136.449524,353.005066L144.099304,364.610107L155.920837,378.808044L165.054443,388.024109L175.243774,396.531494L187.726013,404.688538L198.302551,409.223328L205.873108,410.905579L216.296143,410.786804L228.215942,407.557617L240.124146,400.208435L245.858704,394.738770L249.565002,390.291199L253.908875,383.390442L258.477539,371.423889L260.299744,358.119629L258.346741,343.924011L251.252319,329.465881L244.745117,321.912476L238.173706,316.557617L231.349487,312.426880L219.009827,307.994934L208.141479,306.601746L200.021545,307.154663L192.205750,308.969604L183.323547,312.883118L171.782715,321.683044L162.390381,333.591248L158.214722,342.083496L155.367920,351.786438L154.369873,361.885193L155.574463,371.081970L161.932495,384.287903L163.968933,386.683350L176.416016,395.241699L179.570251,396.351868L191.960999,397.861084L195.642578,397.506348L212.427734,391.261597L218.444397,387.488892L226.147949,380.962585L231.348328,375.154419L235.488770,368.983398L240.241272,358.663574L243.001404,346.750000L243.135437,337.434448L241.794128,330.109985L238.109131,321.110840L232.669495,313.494690L221.577637,304.802185L214.304016,301.258911L199.859924,298.520508L188.916077,299.219666L179.796448,302.007874L166.379578,310.765686L158.957947,318.870178L152.772827,330.736206L150.346191,338.480591L148.995483,349.482910L150.899536,364.173645L155.706055,374.918640L158.485107,378.767822L164.613220,385.117432L172.520874,390.163025L185.009949,393.843445L202.571777,393.841003L213.988281,391.877930L227.953796,387.605103L235.658875,384.247864L243.103455,379.251465L247.688110,374.385193L251.034424,368.597229L252.964111,362.196045L253.374146,355.522827L252.242737,348.933472L249.630188,342.779175L245.675903,337.388306L245.129333,336.799927L237.471863,330.921082L228.307495,327.886292L226.765625,327.649658L212.056641,328.810791L199.191406,333.692322L188.688660,339.814819L182.078735,344.959717L176.516174,350.764099L172.137634,356.747803L167.029968,367.398438L164.380737,380.596436L165.606750,393.880920L170.402405,405.416260L176.588379,413.372314L185.530396,420.024658L192.848267,423.128113L203.085754,425.171997L212.302979,424.966125L224.347046,421.672607L236.133850,414.078369L244.665833,403.186035L249.108459,391.307861L249.943054,381.155457L247.210083,371.342163L246.380859,369.618530L241.861267,362.858459L235.640137,357.621460L233.309875,356.164429L220.278870,351.852966L215.894043,351.500244L203.598389,352.471924L187.106567,357.573425L175.798157,363.614929L169.653564,368.232788L162.276550,375.962769L157.274780,383.434448L153.338562,393.821838L152.181702,406.050293L154.576843,416.508850L160.564636,426.958984L166.520996,432.646179L177.792175,438.507019L190.879333,441.275513L202.286377,441.537018L220.724243,440.148346L232.767151,437.617126L242.024658,433.827332L249.684448,428.271118L255.143677,420.541992L256.471985,417.797913L259.351318,406.073242L259.395691,404.633606L257.570007,393.586182L256.439209,390.567078L249.308716,379.361511L236.570496,369.521667L222.012939,364.246826L212.749451,362.916199L199.498840,363.246582L185.589050,365.721008L171.085632,371.065247L159.209961,377.678833L149.112000,385.574768L140.852051,394.709717L136.389893,401.628357L133.861267,407.276367L131.569092,417.255310L132.213135,429.414673L133.249329,433.236816L138.164551,443.209259L139.309265,444.711609L145.581543,450.826721L156.393311,456.506226L170.248413,459.045441L180.748047,458.647308L190.339233,456.977844L199.502319,454.136200L206.878845,450.813354L215.781616,444.416718L223.049316,434.793945L224.461853,431.770630L227.076782,417.023438L226.854492,414.448486L223.382385,402.993347L222.612000,401.591309L213.761414,391.760010L210.342529,389.383911L200.119202,384.771118L186.782776,383.102539L175.019653,383.942749L167.595032,385.391235L162.422058,386.825500L152.081421,390.918884L146.239502,393.938110L137.258118,400.449036L129.943298,408.093384L123.966003,419.281677L122.129700,428.230042L123.348389,441.355682L124.314819,444.250610L130.312317,454.572937L140.943542,462.712830L144.777100,464.425293L157.358398,467.442627L168.957581,467.577515L181.161377,465.494934L190.135376,462.880829L197.781494,459.940277L205.822021,455.465454L213.543762,448.471924L219.112793,438.487427L220.978882,429.901489L220.183838,421.151245L219.758850,419.436157L214.860352,409.084351L213.739502,407.582153L203.921082,399.224304L199.926086,397.140869L189.139526,393.575012L179.369507,391.925964L169.304626,391.244751L157.292053,391.984924L144.612366,394.965515L133.528381,400.022339L126.596191,404.831543L118.600037,413.644531L112.692688,425.769958L111.036377,437.958069L112.691833,447.631226L118.053894,458.626984L119.097656,459.953796L129.022156,468.297394L141.075623,473.192139L154.478699,475.034393L176.554199,475.374725L186.972107,473.574005L193.676880,470.396637L199.354065,465.619537L203.630920,459.556671L206.226685,452.606110L206.429016,451.737396L207.155090,443.858856L205.721375,436.077881L202.234985,428.975464L196.956360,423.081787L196.172119,422.416748L187.860107,417.483582L178.387573,415.560730L176.173889,415.488525L149.689087,420.437439L147.729187,420.704773L148.516541,420.717529L141.698547,418.931152L132.835388,417.624084L133.562256,417.839722L129.533020,415.562012L117.266602,410.445862L118.015381,410.919922L110.929199,404.683289L105.548767,400.933167L98.863281,397.878906L91.624084,396.606262L84.297729,397.197510L83.495789,397.366516L77.494263,399.335999L72.062500,402.559937L67.459045,406.884766L63.902954,412.105042L61.563477,417.972290L60.551819,424.207031L60.916199,430.512939L62.639282,436.589722L65.639038,442.148438L66.788025,443.812988L75.821655,453.829529L85.070068,462.010376L92.206543,467.392090L103.001160,474.872345L109.302307,478.447540L120.522766,482.431000L137.622314,485.192139L147.098572,485.937378L161.695251,485.787292L173.261047,483.863373L198.067993,474.434998L205.042358,470.919067L213.345154,464.847382L221.180237,455.295441L224.522034,448.099762L225.785522,440.267426L224.875854,432.385864L224.587280,431.267090L222.018188,424.722351L217.947510,418.989807L212.615112,414.407410L206.335510,411.245178L204.283142,410.507996L194.688171,408.804565L185.071533,410.380798L182.002380,411.437256L175.272949,414.727600L166.499512,422.643433L162.285400,429.561462L160.152527,437.376404L159.994934,438.619446L160.176331,447.123749L162.821045,455.208313L167.700928,462.175751L169.383545,463.951782L176.607788,469.494965L185.196350,472.520721L201.107666,475.429474L208.220032,475.626801L192.976440,467.097198L185.989014,443.157837L195.534058,426.919189L201.155884,423.492554L199.981750,423.569458L183.253052,424.627258L165.409729,426.917603L162.121643,427.295227L159.364014,426.760010L144.968567,423.524597L129.401917,421.879089L115.458923,419.764771L102.884216,418.887146L104.878784,419.437927L100.781616,417.263855L97.304932,415.170410L96.739868,414.429932L91.334656,406.884338L91.803955,408.719604L92.512329,413.542480L91.571777,418.353271L98.212219,406.977844L102.102905,398.286072L101.253845,397.252686L73.985168,409.884399L60.405640,406.714294L67.346497,414.042236L72.883423,418.555969L80.910461,423.789612L86.788208,426.930481L95.116577,430.815796L101.472900,433.154480L111.512695,435.687500L118.333496,436.613708L128.684998,436.095032L138.779480,433.223755L150.527832,424.842712L158.804565,412.546875L161.847717,403.332092L163.148865,394.033386L162.868286,382.082092L160.412476,369.600220L158.236267,362.863953L154.634033,355.308777L150.459106,348.795959L141.214783,338.704224L128.476807,329.784058L120.001953,325.957825L111.865845,323.852173L103.485962,323.086365L95.479248,323.681274L85.749207,326.424622L77.746460,330.569275L70.593994,336.031555L64.677307,342.196777L59.815979,348.968628L55.936768,356.080200L51.300598,367.860168L49.200745,376.735229L49.343567,391.541077L52.557556,402.802551L55.739258,408.889648L66.947754,421.590576L78.838867,429.102478L91.186279,433.130676L105.570129,433.626709L120.314148,429.360229L132.574585,421.197266L141.774231,411.234253L148.636414,400.565674L151.964905,393.672424L156.053406,380.071655L157.460449,371.518250L157.717529,363.040100L156.695679,354.048157L154.455505,345.709656L150.913635,337.662537L146.706970,330.896973L141.179321,324.307068L134.403320,318.349792L122.840088,311.707153L112.892334,308.406677L104.305786,307.351562L95.891418,307.826172L85.750732,310.753662L77.603455,315.454529L70.195679,322.380310L65.180908,329.568420L61.971191,336.139282L59.321594,344.919922L58.156982,357.039368L60.315918,371.227722L64.477661,381.046387L73.396912,391.841614L86.798035,400.271606L99.572937,403.697266L107.170898,404.195557L115.726929,403.101624L124.071960,400.197571L130.094177,396.845825L138.537781,389.817017L146.547302,379.181458L152.765564,364.021301L155.003296,350.550964L154.434143,339.123840L151.068054,327.189087L146.721313,318.934204L142.635315,313.618225L135.934387,307.466248L125.442017,301.327637L116.255188,298.124451L106.516968,296.977661L97.007385,297.933777L82.529480,303.604309L71.144226,311.589722L62.555603,320.294128L55.844971,330.281616L51.526123,341.518860L50.312744,352.541504L53.290405,365.183899L58.246094,373.723389L65.782898,380.101135L67.605713,381.171692L77.134094,384.738770L88.747375,385.107666L97.879517,382.685059L107.472412,377.691040L115.029297,372.021362L125.378479,361.510986L132.014099,352.752563L138.049988,341.234680L141.377502,329.017517L141.216919,316.251709L139.158630,308.485413L132.984436,298.462036L131.892517,297.305664L125.830811,292.413086L118.684143,289.313416L110.969788,288.231140L109.969116,288.226807L103.330994,288.967468L97.039307,291.209595L91.428650,294.833679L86.797668,299.646790L85.990051,300.708069L80.229065,315.276123L79.813843,319.306641L79.610107,323.787964L80.642578,333.249146L83.308533,341.848877L89.732727,352.038391L99.585510,359.857666L103.028625,361.528870L114.757385,364.592224L123.883057,364.736694L134.809937,362.906616L144.176575,359.558533L151.674866,355.593933L161.006104,347.630493L167.879395,335.035400L168.230408,333.656006L168.461121,324.302856L169.978149,321.333313L171.703613,312.119507L172.995972,295.759888L173.251038,284.700806L171.061890,273.083069L170.443359,271.586060L169.653015,284.085754L127.261230,303.649475L129.518372,255.945312L164.894531,264.760498L168.389893,270.753784L167.990784,269.433960L112.590698,286.303223L113.106812,287.998230L114.153748,291.162537L118.334778,299.197754L124.793945,305.548218L125.026489,305.714172L130.360718,308.725098L136.208862,310.546631L142.309326,311.097168L148.389099,310.352173L154.176208,308.344971L159.411560,305.165344L163.860962,300.955627L167.325195,295.904053L169.649353,290.236877L170.729431,284.207581L170.969910,280.840027L170.719971,274.461426L169.078491,268.292542L166.125244,262.633362L162.003723,257.758667L156.914246,253.905701L151.104248,251.261414L144.855957,249.954346L138.473206,250.048279L132.266113,251.538452L126.536316,254.352356L125.523865,254.997009L120.763123,258.786072L116.899292,263.486084L114.102966,268.889771L112.497498,274.758606L112.153931,280.833374L113.087280,286.845825L115.256409,292.530457L118.565613,297.636292L118.788330,297.433411L115.845764,289.502808L115.191589,292.325134L114.333862,304.309692L114.030090,306.513611L111.903198,313.323792L110.851013,324.946655L111.280579,324.540222L114.400452,314.024536L119.713196,307.512878L120.415100,306.772217L120.292542,306.910156L119.602234,307.040527L120.391602,307.007996L124.116882,307.782471L130.229248,311.126953L135.422363,317.006409L137.154297,320.935852L137.443054,322.583862L137.512146,324.148499L135.959045,328.891785L122.640564,343.154785L99.319092,343.751404L87.278687,333.529114L84.340088,326.666809L84.008728,322.570190L84.452820,319.616882L83.654236,320.997009L82.028076,323.159424L77.517151,327.950928L76.116943,329.038147L76.382751,328.999268L79.019531,328.101196L85.360596,327.632812L93.014771,329.315186L102.644897,336.541504L107.709167,346.531616L107.902954,353.943176L107.158569,356.895508L106.937256,357.373474L108.517273,355.766724L110.086609,354.439026L110.622986,354.084656L107.024719,354.803345L104.136963,354.662964L101.428101,353.933167L101.779358,354.144287L100.000488,352.706970L98.751709,351.322388L97.685242,349.408569L97.388123,348.502380L97.247070,347.566284L97.272705,347.829407L96.201172,350.751770L96.965393,349.679626L97.354797,349.148804L99.301331,347.897339L101.433533,347.061157L104.644653,346.416077L107.563965,346.395264L108.509338,346.727051L111.109619,348.178467L113.393921,350.315613L115.570068,354.291687L115.910583,355.967529L116.065491,356.158325L115.768616,357.421387L115.459106,358.244812L114.738831,359.288513L112.768799,361.338806L110.013245,363.245117L106.129456,364.693726L102.978943,365.190002L101.212280,365.067627L99.272156,364.502808L100.376892,365.118713L99.652588,364.603882L99.817810,364.825256L99.762329,364.739929L99.877991,364.952759L99.835632,364.809448L99.885498,365.161560L99.866699,365.768311L99.752991,366.649841L98.297119,372.026611L98.206848,372.149170L96.102539,375.700073L94.619385,377.559509L94.982849,377.441162L97.738647,376.446228L100.899048,376.201050L103.164673,376.677551L103.622253,376.920776L104.435059,377.930481L106.063171,381.442627L106.582703,383.600098L106.306824,385.793457L108.121216,381.132324L108.836548,379.760071L109.182922,379.195557L109.289673,379.065186L109.081116,379.212830L107.979248,379.834412L105.718872,380.584961L103.484192,380.950684L102.117554,380.883057L101.356140,380.739868L100.194458,380.243042L102.382690,381.530334L104.106567,383.415833L104.029297,383.413513L104.375854,384.051392L104.362061,384.063843L105.312805,388.064209L105.452454,389.804688L105.169373,391.561279L105.865479,389.327393L107.782410,386.101685L112.209290,382.027466L118.631531,379.213135L120.841431,378.826050L122.965332,378.957153L118.871155,377.934937L118.084778,377.675781L112.592468,375.088379L110.802612,374.208496L107.065125,371.825195L106.615906,371.516113L105.572388,370.542236L100.828491,363.957275L96.247986,359.056580L90.662781,355.341431L84.372559,353.011047L77.714966,352.190674L71.047241,352.924377L64.727234,355.172607L59.094116,358.814697L58.368896,359.413208L52.348572,366.236328L48.743042,374.590942L48.081726,377.541199L46.881104,380.205566L39.164490,394.063843L35.323059,405.886536L35.543335,421.278564L38.969727,431.774536L41.584351,436.477905L51.034485,449.932312L58.066284,457.637177L70.528931,466.620514L81.212585,472.221619L89.795166,475.222839L107.894165,477.170074L121.614014,479.258148L134.185181,480.392731L147.851135,483.504456L156.978638,484.896729L170.308594,484.614838L187.985352,482.337494L205.337585,481.211639L214.207825,479.827179L224.724731,476.234863L231.904053,471.985260L237.573792,465.865204L238.329468,464.767059L241.949768,457.494598L243.407593,449.502960L242.588135,441.420868L242.367004,440.524261L239.752991,433.738342L235.530701,427.817627L229.966431,423.135925L223.411072,419.987915L222.333313,419.628540L209.249207,418.139099L204.199158,418.578918L216.241455,433.258057L215.471436,452.473969L208.825012,461.656799L203.559326,465.107697L194.304321,466.714752L175.149780,458.003815L168.250977,435.004456L173.438538,423.126892L175.374634,421.264038L175.182007,421.261719L158.814331,427.835632L157.867126,428.069275L149.929932,428.109619L144.713135,427.725037L135.206543,426.457153L133.993958,426.139160L134.532715,426.326355L126.265686,420.557373L122.100220,417.498657L116.803650,412.936829L113.097107,409.112366L116.365417,436.424316L85.257812,454.048920L74.903687,449.969910L82.159546,456.330109L89.351318,461.137573L103.424622,467.232361L108.213074,469.855652L116.576477,473.139709L129.032715,475.421326L136.388428,477.308472L144.461731,478.453033L156.782410,477.884888L177.877136,473.263550L167.029114,471.518738L150.736328,454.254242L156.698853,426.449890L172.451111,417.799072L159.051208,417.319214L154.652161,416.954773L157.296204,417.951965L161.514038,420.791138L166.837830,428.032532L168.694641,433.588074L168.525635,440.212250L166.755371,445.478973L164.836914,448.176727L162.628540,450.024200L162.902039,449.825745L164.818054,449.343811L168.194153,449.110931L172.012695,449.350800L176.022522,449.962067L176.137085,449.838928L171.763367,446.947784L165.479980,438.786133L163.177551,426.330383L166.531982,415.006042L171.515564,409.023926L174.000183,407.201599L172.013062,407.890076L168.252197,409.058350L164.483215,409.887878L163.761414,409.956421L164.869690,410.241699L170.356812,413.284485L177.147949,421.119690L179.645691,429.509338L179.395081,435.795349L177.097046,441.297882L174.978271,444.288635L176.105408,443.503571L175.748169,443.749817L179.998230,441.981018L181.093750,441.700958L182.530212,441.338837L185.926941,440.965393L186.010925,440.813660L180.981140,439.115845L175.715576,434.910095L170.295227,425.337830L169.717224,414.458069L173.709473,405.085754L178.330933,400.571472L179.241089,399.914734L177.235168,400.600220L174.873169,401.063232L172.842468,401.234741L174.313965,401.619934L178.247742,403.176147L183.010681,406.884155L187.168518,412.858582L189.075195,420.306335L188.710083,425.590637L187.729492,428.349365L186.861694,429.779114L188.056641,428.356018L190.511230,426.345520L194.738281,423.883850L199.734314,421.815796L204.328979,420.911499L209.524841,420.705627L208.890930,420.587585L209.666382,420.645508L207.529297,419.160156L204.153625,415.038696L201.885376,408.463501L202.289124,398.276062L208.477661,387.580261L216.092163,382.256287L213.860901,382.689148L201.056885,383.649780L196.819519,383.704773L196.516296,383.831726L199.141113,384.960754L203.692871,388.455627L207.603577,393.803650L209.548706,399.075806L209.717102,406.001648L209.005615,409.280334L207.358154,412.182678L208.047668,411.530457L207.232117,412.204041L208.833862,411.174866L214.066650,409.353271L214.309814,409.309265L208.862244,408.205444L198.715027,401.486755L192.291565,386.636902L193.449219,376.496216L195.858093,372.733276L199.986145,369.364868L203.749695,367.822876L206.795593,367.447510L209.822021,367.875549L211.883667,368.502808L215.838440,371.037109L219.278748,374.551025L221.219604,378.351562L222.079773,382.720642L221.789612,385.802734L221.431641,386.993042L220.998413,387.803406L220.893433,387.885315L220.822937,387.946411L224.093079,385.935486L226.438110,384.825562L223.045105,385.218323L210.357117,382.092834L195.559875,355.319397L207.709595,333.666443L208.512146,333.086975L201.154175,335.431152L197.383789,336.197815L193.005005,336.608154L195.501404,337.154663L200.025879,339.429443L203.382080,342.335022L205.614441,346.145569L206.742737,349.978882L206.899780,350.695435L206.534973,352.131409L206.740479,351.408936L204.643005,354.080872L204.061829,354.408691L200.806824,355.822205L197.394287,356.251526L196.070984,356.072937L192.283020,354.685608L191.370667,353.871338L188.204468,350.304993L186.468933,346.875427L185.624146,343.788574L185.505005,340.690674L185.713562,339.455322L185.285767,340.212830L185.402649,339.947266L185.925659,339.360352L184.469543,340.631958L184.807739,340.394714L184.842651,340.862000L192.685120,340.295410L202.435425,344.068481L210.083008,352.972290L212.156555,359.431091L212.042603,363.115295L212.395447,362.443787L211.795288,363.658447L211.982361,363.184570L212.704895,362.681580L210.614502,363.798157L208.937988,364.330139L207.729248,364.463562L205.700562,364.244080L205.921814,364.364136L204.846680,363.875549L205.028687,364.007690L204.076965,362.909546L203.287659,361.165039L202.533508,358.407715L202.594849,356.688721L202.288391,357.292603L203.024048,355.905701L203.136047,355.662598L203.358948,355.523987L204.678711,354.829224L207.752441,353.632751L210.933105,353.309998L215.072388,353.868164L215.928040,354.209045L210.520935,350.638245L204.846497,345.971924L199.246338,340.400513L191.203430,330.960144L186.680054,324.217773L186.201538,323.688965L186.470764,325.382690L186.204712,329.431641L184.771240,332.922729L183.115479,334.938232L181.369202,336.318054L179.405518,337.166565L181.932251,336.580688L199.968689,333.654846L220.174194,327.759705L218.073425,327.704956L215.859802,327.312378L214.889954,326.828857L217.529724,328.917053L219.210754,330.790710L219.085632,330.249084L226.815063,350.482605L228.988037,355.122192L231.723755,356.664185L229.104248,372.731262L228.797485,379.271057L229.271118,387.702209L227.755737,392.313538L227.207642,396.250977L226.566528,396.807922L223.753357,404.476807L223.193970,412.626404L224.793091,406.719116L221.860901,407.164124L217.304993,411.922668L209.576538,419.189636L207.040527,420.947937L206.368408,421.175049L204.032104,421.961426L200.189209,422.775818L190.372498,422.730225L185.794922,421.991943L170.651855,420.767334L164.327271,419.793945L143.296387,419.579773L133.450684,416.506348L118.029602,413.917786L117.684509,413.901123L112.882568,411.721436L110.151978,410.175476L95.021545,399.720032L80.055969,389.389099L76.604553,386.694092L76.552246,386.710938L75.629883,385.446411L75.285645,385.431030L75.449280,381.754944L76.276306,371.129272L77.200378,360.809998L76.234253,346.814209L76.242615,345.014587L76.784973,342.163086L77.459229,340.626587L85.126221,321.186218L87.704773,313.591248L89.824768,308.976562L89.621216,309.253601L89.403198,309.532104L87.372375,310.917297L93.099304,308.466370L100.442139,303.245117L98.340027,303.991699z" fill="#34A634" stroke="none" fill-opacity="1" />
				<path d="M135.215210,107.422485L122.662170,163.957092L132.977173,166.247437L141.027222,166.881531L148.939270,165.267944L156.098145,161.532349L166.279724,154.250427L132.590881,107.146179L133.467651,109.608459z" fill="#34A634" stroke="none" fill-opacity="1" />
				<path d="M84.753967,24.438721L83.152649,24.361877L81.567078,24.598877L80.058228,25.140747L78.684082,25.966431L77.497437,27.044373L76.543884,28.333191L75.860107,29.783264L75.472290,31.338745L75.395447,32.940125L75.632446,34.525513L76.174255,36.034424L76.999939,37.408569L78.077942,38.595276L79.366638,39.548767L80.816650,40.232666L82.372253,40.620483L82.952942,39.359558L83.828308,27.336548L86.201416,22.481018L82.873169,21.731506L83.464294,31.173340L77.234985,34.738220L104.086975,38.689331L116.241638,39.616394L121.146545,40.581543L124.985413,40.825623L137.365234,40.609863L143.668213,39.070068L145.356445,38.364685L146.845642,37.301575L148.061279,35.934082L148.942322,34.330383L149.444824,32.571045L149.543579,30.744019L149.505737,30.092957L149.194641,28.285706L148.488586,26.593140L147.423157,25.100342L146.051819,23.882568L144.443665,23.001099L142.679504,22.500183L131.741516,20.686218L123.173828,20.394226L115.536926,19.311951L107.868713,19.150024L112.364380,26.388123L108.117065,35.444885L124.606567,35.475098L136.116028,34.888550L148.252014,35.323669L153.070068,36.144348L164.552734,36.093628L169.565125,36.564514L174.902954,36.282104L169.667725,30.111267L172.409546,20.724243L169.682800,22.829041L168.969116,23.674377L163.579834,35.601135L161.894958,38.098999L152.024414,49.762512L148.772583,54.363647L141.074646,68.389832L136.119629,79.681030L136.216797,83.296448L142.270081,81.708740L145.903625,83.770813L141.894653,75.649048L135.988831,68.185791L131.155518,63.764099L124.453735,58.917725L116.396851,51.794373L112.716858,49.320496L107.420044,46.801331L101.798950,42.731934L99.527039,40.591248L98.357178,39.403442L98.549133,43.492310L95.672546,47.436707L92.261902,48.426514L106.784912,52.296326L119.661316,57.906006L129.811035,63.688599L133.204956,64.734619L134.581177,64.845093L136.366821,64.792725L138.098450,64.353882L139.693359,63.549500L141.075684,62.418030L142.179382,61.013367L142.951660,59.402710L143.355835,57.662659L143.372559,55.876282L143.169800,53.856750L142.193054,50.722961L138.444458,43.929321L134.439087,38.975952L128.947388,34.848022L123.872192,32.678894L119.946411,31.997498L114.750854,32.662964L111.754700,33.930969L110.601318,34.721130L108.049622,37.190735L105.835327,41.067261L104.884888,45.122437L105.798218,53.538330L106.882446,56.513977L109.052246,60.099060L113.030762,64.549927L116.184937,66.922180L123.289612,69.692200L130.182373,70.426758L138.285706,69.613953L145.382996,67.773560L149.794006,65.593140L153.617310,62.066895L155.846985,58.453369L157.313232,51.877136L157.145691,48.598755L155.922363,43.869812L152.915771,38.370178L150.197327,35.176453L146.513123,32.832092L142.970459,31.750244L140.086182,31.408569L137.264343,32.096680L136.059204,32.631592L133.496765,34.422424L132.428955,35.527222L130.698425,38.217468L128.864319,42.880005L127.518433,51.274414L128.080261,56.550171L129.727051,60.180664L131.703857,62.665283L135.009460,65.143799L136.353027,65.692932L139.630676,66.298706L140.874512,66.270813L144.416260,65.375061L145.981140,64.574158L148.440674,62.644348L150.824463,59.888672L152.464050,56.916504L154.217224,51.148132L154.898987,44.519287L154.016113,38.925110L152.239319,35.358643L150.785095,33.660889L147.467041,31.182373L144.239502,30.080933L142.983093,29.930908L138.878479,30.497925L136.523743,31.475220L133.915466,33.206726L132.930298,34.178650L129.727661,39.925964L128.727356,44.695251L129.046692,49.531494L130.347351,53.049622L131.437073,54.692932L133.874878,57.081116L136.346497,58.647644L141.302917,60.375793L146.176758,60.659546L150.789429,59.927307L157.430725,57.011292L161.278992,54.333862L165.619934,49.412842L168.544128,43.406067L169.356384,37.931152L168.755249,34.333313L168.285583,33.192200L166.699707,30.722839L164.344116,28.972351L162.360718,27.992859L159.583496,27.191223L156.700867,27.405823L152.973633,28.365417L149.679382,30.085388L148.206726,31.352112L145.378723,35.452148L143.970215,40.907349L143.875244,43.190308L144.415588,45.410522L145.305908,47.646667L146.369019,49.538452L147.892334,51.084045L149.768616,52.174622L151.991394,53.097351L154.385620,53.688599L156.847229,53.539062L162.876892,52.241577L168.406372,50.032104L173.503784,46.206360L175.722290,43.256653L176.311279,41.927673L176.989075,39.236267L176.727600,36.473206L176.427490,35.366638L175.463501,33.163452L173.900269,31.335693L171.872925,30.041870L169.918152,29.167603L167.477478,28.504822L164.950989,28.619202L162.471252,29.123352L154.936340,32.782166L148.757874,37.615173L143.386292,43.669434L137.103821,54.322266L134.335266,62.543152L133.698364,67.470398L133.791931,69.668823L134.468384,71.762878L135.678589,73.600769L136.125732,74.113342L137.357178,75.261414L138.797485,76.132996L140.385803,76.691162L142.054810,76.912292L143.733643,76.786804L145.351257,76.320312L146.839111,75.532471L148.134033,74.456726L149.181335,73.138489L149.936401,71.633911L151.011658,68.794739L151.746826,62.188171L151.484192,59.662903L150.459717,57.339722L149.867065,56.417725L148.727661,55.014282L147.307861,53.895508L145.676880,53.116089L143.914551,52.713928L142.106934,52.708679L140.342285,53.100708L138.807190,53.625305L136.716553,54.696411L135.016724,56.317688L132.794189,59.152222L131.606262,61.238159L131.075195,63.579285L130.979919,64.834351L131.063110,66.769409L131.598999,68.630859L132.557617,70.313782L133.885132,71.724243L135.507202,72.782898L137.332642,73.430298L139.259216,73.630371L139.997437,73.619080L142.006714,73.336670L143.884644,72.568298L145.515564,71.361267L146.441223,70.478882L147.981628,68.468506L148.833069,66.083374L149.320984,63.510315L149.374451,60.778015L148.524658,58.180847L147.627197,56.473938L146.633484,54.999329L145.344421,53.774292L143.821106,52.856934L142.135437,52.290527L140.367188,52.101746L138.600037,52.299805L136.917358,52.875244L135.624329,53.481445L133.853333,54.609436L132.427856,56.151184L131.442078,58.005188L128.556641,65.727905L127.629456,67.449951L127.642456,68.382263L134.161621,68.449890L137.839294,72.910522L137.936829,75.182678L142.053955,64.801819L142.826965,59.562988L142.295227,55.564880L140.613281,52.238403L139.835083,51.310852L138.234009,49.849304L136.305115,48.860107L134.184021,48.412170L132.019836,48.537292L130.822449,48.768616L128.156921,49.790649L126.005127,51.666626L125.339783,52.492188L123.594177,56.596069L122.995972,61.571533L122.960938,61.972412L124.552612,60.187317L127.613220,58.967102L129.499695,59.069763L123.890686,56.313171L122.188232,55.724548L120.398193,55.522888L118.607422,55.718201L116.902893,56.300720L115.367188,57.242310L114.074890,58.497131L118.684875,56.229431L118.861877,53.805054L115.163147,52.004456L112.816711,51.337280L110.377808,51.391907L109.324280,51.575012L107.498047,52.117737L105.846924,53.068359L104.460571,54.374939L103.414185,55.967163L102.764526,57.758057L102.546936,59.650696L102.548950,60.536377L103.563843,64.463684L104.301453,65.802673L114.016663,76.785217L129.297546,87.039612L132.409424,88.558228L135.748901,89.295410L137.411926,89.306458L139.008362,89.159668L140.545532,88.704590L141.964355,87.958130L143.210327,86.949280L144.235474,85.716736L145.000549,84.307861L145.476013,82.776917L145.643677,81.182495L145.497131,79.586243L145.041870,78.048889L144.295532,76.630188L143.286682,75.384216L142.054199,74.359009L140.645325,73.593933L139.114319,73.118408L137.519897,72.950745L137.565613,73.131958L137.694397,73.016785L125.393127,64.987427L118.112549,57.094238L118.644714,58.471558L116.989136,64.889282L110.740051,67.560852L110.335083,67.746704L115.324890,71.117615L117.110291,72.018127L119.060791,72.458252L121.059875,72.411926L122.987915,71.881958L124.729675,70.899841L126.181091,69.524353L122.159729,71.683594L123.583130,74.272461L127.208191,75.180237L131.387268,74.739990L132.396729,74.354492L134.406006,73.242004L136.026672,71.614746L136.790222,70.594482L138.793457,65.747192L139.232788,60.824890L136.588379,63.805908L130.835083,64.274048L127.050110,61.184570L126.525085,59.479370L126.449524,60.036621L122.273499,70.695068L121.711548,74.686279L122.669739,78.667419L123.127014,79.526245L124.238953,81.122437L125.696472,82.410889L127.416992,83.318665L129.303284,83.794312L131.248474,83.810852L132.491760,83.672913L134.565979,83.161682L136.437012,82.130798L137.977295,80.650513L140.827026,77.084778L143.168884,73.054138L145.100708,66.437500L137.783997,68.031921L133.198120,63.195251L133.615051,60.650635L136.775757,57.873169L145.089417,59.848145L146.853210,67.158264L146.187866,68.031189L140.297852,68.562134L135.675842,63.859680L135.360535,64.216675L140.843445,60.688293L149.623413,65.711182L150.161438,66.582092L151.690613,61.666748L156.268188,53.718384L159.617920,49.823303L163.348389,46.787842L166.882324,44.827515L165.682312,44.761902L162.320007,42.823120L160.680542,37.991516L161.710022,35.027344L160.888306,35.555542L158.669861,36.455750L155.867554,37.399841L158.728394,38.880981L160.151733,41.580627L160.286621,42.057312L159.909241,42.681091L158.797485,43.534424L157.896057,43.459778L154.746643,41.887146L153.126709,38.793762L153.072815,38.292358L152.290771,40.002502L150.768005,41.843872L149.606995,42.667603L146.689514,44.130737L145.386658,44.340271L144.537048,44.380615L144.027649,44.258972L143.975647,44.331848L144.833618,45.694519L145.005920,45.875122L145.031311,45.576172L145.381409,44.678406L144.181580,45.842041L143.132690,46.152161L140.628479,45.940735L139.301331,45.232178L138.708679,44.325745L138.585510,44.518555L138.352173,47.277039L137.478821,50.588257L137.207520,50.860168L138.685669,50.166565L140.933350,50.081055L143.009277,51.030640L143.574158,51.710754L143.802429,52.136475L144.393066,47.917480L145.186646,45.635254L144.061707,46.809326L141.077393,47.734497L139.734192,47.553040L139.476013,47.665100L140.497192,49.160095L141.061096,51.064209L140.860107,52.049194L140.957642,51.765503L140.776855,52.008423L140.147034,52.309692L135.785400,53.461975L130.480347,54.089783L127.586365,53.949829L124.479553,52.867249L124.244263,52.674011L122.544128,50.896057L121.562561,49.479919L121.140564,46.407837L121.092468,46.853333L120.889160,47.243164L120.583008,47.644531L119.563843,48.209045L119.463562,48.298340L119.105286,48.290344L120.508240,48.822937L122.734558,50.350830L124.558411,52.532288L127.225281,57.107300L129.395386,50.968628L136.268005,48.767578L127.377258,43.477905L112.700012,37.032654L94.420593,32.319580L90.747498,32.246216L89.718933,32.461670L87.120422,33.494934L85.021851,35.343018L84.267517,36.281677L83.102600,38.236755L82.521545,40.437378L82.569519,42.712769L82.766907,43.931091L84.322205,47.562744L86.917969,50.987549L90.959778,54.968079L98.499695,60.489380L104.351013,63.364563L106.058228,64.452942L113.947998,71.446777L120.629578,76.276001L123.770081,79.039124L127.856201,84.001953L132.624207,93.097229L135.356201,96.102844L135.992432,96.521423L138.706726,97.671692L141.652466,97.784912L142.655640,97.640747L144.419067,97.181946L146.037170,96.344299L147.429688,95.168884L148.527283,93.714600L149.275696,92.053101L151.266663,85.838867L155.609375,75.898926L162.435120,63.343933L164.755981,60.023132L174.683350,48.284668L177.599365,43.990784L182.189636,33.224731L180.928650,34.578552L180.908630,34.791260L182.362610,33.900452L183.600220,32.727722L184.567749,31.323486L185.223083,29.749451L185.537781,28.073730L185.498169,26.368958L185.105896,24.709656L184.378052,23.167786L183.346313,21.810181L182.055481,20.696106L180.561707,19.874023L178.929932,19.379456L177.231018,19.233948L175.538879,19.444092L173.072571,20.041138L170.383728,20.242920L165.611206,19.777893L155.029907,19.923096L150.424316,19.121155L136.360535,18.530334L124.385071,19.119385L107.267761,19.132629L102.661194,19.919006L101.050049,20.434143L99.579224,21.269470L98.311829,22.389526L97.301941,23.746521L96.592773,25.282166L96.214661,26.930847L96.183899,28.621948L96.501648,30.283325L97.154419,31.843750L98.114197,33.236633L99.339966,34.402100L100.779358,35.290405L102.370728,35.863953L104.045959,36.097595L105.733521,35.981567L108.417725,35.479309L113.783264,35.565430L121.363403,36.643250L129.624329,36.894714L135.260010,36.035278L134.697632,26.503662L135.982910,24.348389L125.384338,24.476318L123.642883,24.429382L118.888000,23.483032L106.161316,22.463135L78.701721,18.472534L76.067078,18.472534L74.246216,18.816650L72.549622,19.561951L71.064331,20.669983L69.866638,22.083923L69.018005,23.731140L68.562012,25.527222L68.522095,27.379822L68.900269,29.193909L69.123901,29.870789L70.168823,31.965698L71.764465,33.678711L73.779968,34.869507L77.726135,36.443848L83.981689,40.752747L85.438843,41.541138L87.025024,42.019714L88.675110,42.168701L90.321350,41.981995L91.896179,41.467407L93.334961,40.645874L94.578674,39.551208L95.576233,38.228333L96.286682,36.731628L96.680908,35.122437L96.742737,33.466736L96.469604,31.832703L96.263489,31.079590L95.557739,29.327209L94.468811,27.783447L93.054810,26.531006L91.390991,25.636292L89.566345,25.147095z" fill="#754032" stroke="none" fill-opacity="1" />
			</g>
			<g id="layer.Layer.uuid_0x2">
				<path d="M199.408386,259.355530L199.122498,260.934692L199.150085,262.539124L199.490295,264.107544L200.129883,265.579285L201.044250,266.898071L202.198486,268.013062L203.547913,268.881653L205.040894,269.470093L206.619995,269.755859L208.224548,269.728271L209.792908,269.388245L211.264771,268.748596L212.583496,267.834167L213.698486,266.679993L214.567017,265.330566L215.155396,263.837463L218.759216,251.176147L220.022705,241.832581L219.824890,223.732666L217.234375,205.466431L212.774841,185.603943L208.518250,170.904480L204.833557,160.842468L194.794678,140.025879L186.407410,127.168701L180.583496,120.690308L172.688538,114.035950L161.172485,106.875671L148.736206,102.786377L137.095642,101.052856L130.818054,101.627869L126.227722,103.236511L119.247681,107.463623L108.879150,118.522949L100.486755,130.622925L95.152039,139.632690L92.101562,146.235962L88.941162,155.571838L86.631775,167.141113L86.630249,180.883606L88.037476,191.915344L93.351440,213.398254L97.679626,239.836731L101.087891,249.769226L105.770203,258.802917L108.745972,262.696411L109.919678,263.866394L111.304871,264.775879L112.844849,265.387878L114.476562,265.677124L116.133057,265.631836L117.746521,265.254028L119.250854,264.558838L120.584351,263.575134L121.692322,262.342834L122.529541,260.912659L123.061523,259.343201L123.266602,257.698853L123.136230,256.046814L122.646729,253.358765L121.201721,249.994263L119.037415,247.033569L116.503967,244.406677L113.496216,242.544373L108.960815,240.957520L97.812256,240.285828L81.710571,241.953552L70.627991,244.461548L61.934875,248.194275L47.962036,257.284485L42.525146,261.935974L35.951965,268.537659L29.812683,276.678833L25.727051,283.861755L19.997192,297.375488L15.763855,309.276428L11.568787,326.178650L8.353210,349.123413L8.072144,372.869202L8.614197,387.605225L12.063599,403.470581L16.259460,414.937500L27.064087,433.571350L37.290649,447.504456L45.447021,457.292480L55.672546,466.746674L70.059998,476.080078L88.063782,483.992157L100.335999,487.977295L113.346252,491.466522L130.055237,494.644165L140.230225,495.838776L162.184875,495.600952L188.012878,492.906006L209.834412,488.015869L223.996155,483.038208L237.017273,476.883911L247.742615,470.573639L256.733154,464.027161L263.881226,457.794434L272.151611,448.379578L278.981445,436.930908L283.208557,427.643677L286.828857,417.319214L289.351501,407.088623L291.939697,388.207520L293.522339,366.567932L293.690735,347.058228L292.782166,337.555847L287.675232,323.850586L279.439209,308.862610L273.020020,295.610657L269.025757,289.046143L264.726868,284.248230L248.755493,271.800537L238.564392,265.380066L229.965027,261.564880L216.816895,259.861145L213.198425,258.922302L217.208801,267.391174L212.054321,273.596008L214.949463,273.639587L216.545654,273.474365L218.079041,273.000854L219.490540,272.237244L220.725952,271.213074L221.737793,269.967529L222.487244,268.548401L222.945435,267.010498L223.094666,265.412598L222.929443,263.816406L222.455933,262.283020L221.692444,260.871521L220.668152,259.636230L219.422607,258.624329L218.003540,257.874817L216.465576,257.416565L214.867737,257.267334L210.999939,257.286621L207.180237,257.996338L205.574646,258.578308L204.124695,259.480835L202.893616,260.664490L201.934937,262.077820L201.290283,263.659302L200.987915,265.340149L201.040710,267.047180L201.446655,268.706055L202.187866,270.244568L203.232300,271.595947L204.534302,272.701050L205.116638,273.098877L213.062317,275.781677L224.653687,277.001587L230.419495,279.569153L239.073120,285.009399L253.286438,295.942871L255.561646,298.323486L258.474609,303.115417L264.803162,316.203918L272.653625,330.383728L276.606689,340.334473L277.315369,347.374084L277.173523,365.648865L275.680115,386.271729L273.340515,403.640930L271.233643,412.318909L268.128906,421.256653L264.616272,429.064453L259.281433,438.230042L252.662720,445.856628L246.759766,451.037964L239.055542,456.689911L229.644226,462.260834L218.111511,467.754059L205.738708,472.156433L185.812683,476.674805L161.582825,479.235352L141.581726,479.513550L132.803650,478.501251L117.280029,475.570587L105.151733,472.327637L94.203857,468.809357L78.321045,461.929352L66.201477,454.188751L57.660706,446.375122L50.318115,437.584595L40.963196,424.908081L31.350769,408.548584L27.910278,399.318115L24.946838,386.233276L24.445679,372.826782L24.643555,350.843811L27.569641,329.673279L31.331787,314.362061L35.182800,303.500061L40.235413,291.435181L43.265869,285.995117L47.993103,279.646790L53.515198,274.068176L57.428040,270.631531L69.229065,262.837219L75.088501,260.194763L83.958801,258.178406L97.948547,256.666809L104.786011,256.737366L106.483337,257.231445L106.246948,257.231140L107.071106,258.055908L111.648499,250.082092L119.827332,250.448608L116.307495,243.705811L113.716980,236.458435L109.454224,210.419373L104.206299,189.300049L102.995544,180.192749L102.864807,169.431152L104.642395,160.242676L107.174744,152.613770L109.466614,147.567566L114.143860,139.657532L121.412720,129.070801L128.858582,120.669128L133.050720,118.102905L134.123718,117.631897L135.974792,117.346313L144.553467,118.628967L153.498230,121.375366L162.676392,127.003601L168.924927,132.172485L173.122681,136.715088L180.294739,147.648315L189.609009,166.878601L192.876465,175.749390L196.859192,189.452698L201.078430,208.139221L203.462463,224.513367L203.725464,240.372375L202.863892,247.302612z" fill="#000000" stroke="none" fill-opacity="1" />
				<path d="M130.731079,104.278137L129.991394,105.702209L129.543701,107.243347L129.405334,108.842102L129.581482,110.437256L130.065491,111.967346L130.838623,113.373535L131.871338,114.601929L133.123779,115.605225L134.547974,116.344849L136.089050,116.792480L137.687866,116.931030L139.282959,116.754761L140.813049,116.270813L142.219238,115.497620L143.447632,114.464844L144.450989,113.212402L168.381470,76.463928L187.391113,44.551636L190.568054,38.000977L193.112244,27.995300L193.186768,24.607727L192.448730,20.695374L191.328125,17.845154L190.233032,16.109192L184.466187,10.974854L181.455994,9.485901L176.988953,8.331848L139.834351,8.159241L97.642822,9.302490L73.185730,10.842590L61.054871,12.535767L56.841431,13.860107L54.453369,15.195312L52.638550,17.242859L51.926941,18.384888L51.095215,20.165405L50.711853,22.092896L50.798889,24.056274L51.351379,25.942200L52.337463,27.642151L53.700256,29.058167L56.412170,31.270203L66.230347,35.538879L70.586792,39.152832L79.872986,48.971741L110.362183,84.328796L126.576416,100.911438L131.976440,107.336975L133.190369,108.510620L134.619141,109.410278L136.202148,109.997559L137.872009,110.247742L139.557678,110.150024L141.187378,109.708618L142.691833,108.942017L144.007080,107.883362L145.077148,106.577148L145.856445,105.079163L146.311890,103.453430L146.424072,101.768677L146.188293,100.096741L145.493591,97.299683L144.955933,95.787598L144.133667,94.409363L143.058350,93.218323L141.771240,92.259766L140.321960,91.570618L138.766052,91.177612L137.163330,91.095703L135.575439,91.328003L134.063416,91.865540L132.685303,92.687927L131.494080,93.763123L130.535583,95.050293L129.846497,96.499634L129.453430,98.055542L129.371521,99.658264L129.603821,101.246094L134.527344,94.775696L138.910034,90.139587L122.592163,73.440613L92.145874,38.133240L82.082581,27.507568L75.530579,22.118591L65.754944,17.881042L66.950012,21.372742L64.718994,27.949707L64.159119,28.590332L74.535278,27.162476L98.234375,25.665039L139.976074,24.531311L173.919617,24.380188L175.778687,24.749390L177.229858,25.959229L176.785889,25.208374L176.958191,25.945129L175.465088,31.742126L173.142212,36.496155L154.571899,67.667297z" fill="#000000" stroke="none" fill-opacity="1" />
			</g>
		</g>
	</g>
</svg>
