<?xml version="1.0" encoding="UTF-8"?>
<!-- Generator: Blender, SVG Export for Grease Pencil - v2.0 -->
<!DOCTYPE svg PUBLIC "-//W3C//DTD SVG 1.1//EN" "http://www.w3.org/Graphics/SVG/1.1/DTD/svg11.dtd">
<svg version="1.1" x="0px" y="0px" xmlns="http://www.w3.org/2000/svg" width="163.202637px" height="271.994354px" viewBox="0 0 163.202637 271.994354">
	<g id="blender_frame.1">
		<g id="blender_object.GPencil.004.1.uuid_0x0">
			<g id="layer.Layer.001.uuid_0x1">
				<path d="M86.526855,164.493652L86.134277,164.780457L85.805054,165.138367L85.552124,165.553589L85.385132,166.010132L85.310303,166.490540L85.330688,166.976318L85.445435,167.448853L85.649902,167.889893L85.936890,168.282471L86.294556,168.611633L86.709961,168.864563L87.166382,169.031677L87.646973,169.106506L88.132568,169.086182L88.604980,168.971497L89.046143,168.766785L90.176758,168.638794L91.781372,168.284668L94.619751,167.408875L96.258911,165.231140L97.963867,161.088013L98.806885,156.112793L99.168701,155.161926L99.036499,154.679138L100.303955,145.661621L100.374023,145.190918L101.295410,138.618347L101.176758,137.752136L101.311035,131.882996L101.508911,123.239441L101.453735,121.769104L100.337158,114.282715L99.624146,109.221680L98.549072,105.222473L94.202637,96.584839L94.026245,96.371643L92.837769,93.884521L92.353027,93.076416L91.506348,91.853271L88.904663,89.015320L86.256714,86.399841L84.876709,85.360779L82.156494,83.652161L79.235596,82.191284L76.531616,81.224304L72.834961,80.389282L69.576050,80.380676L67.310425,80.701233L66.117310,81.055908L62.848633,82.239258L58.574341,84.408508L56.041504,85.998962L53.341919,88.361694L48.039429,95.284912L45.893433,98.147339L43.914673,101.081116L43.785156,101.150208L41.044067,103.252502L39.213013,105.056458L37.118164,108.052734L34.879883,111.911316L31.187256,118.468689L26.995361,128.571045L26.262451,130.420532L24.279297,137.377014L23.200562,145.192871L23.099731,145.954407L23.015259,146.313354L23.004883,146.275879L21.787598,148.374023L21.614258,148.764648L19.521362,153.054138L17.197754,158.645752L16.409546,161.348511L15.415649,167.016174L15.115112,177.028259L15.082153,180.668701L15.335571,184.602173L16.326782,193.207031L17.559082,199.380371L19.418457,204.410522L23.654175,213.275574L27.411377,219.486328L32.111938,226.004639L37.659912,232.284241L40.102661,235.651306L42.769287,238.740967L46.865967,243.206818L48.640381,244.835571L52.219849,247.514130L55.369507,249.379364L61.678833,252.550781L62.196411,252.896606L64.292480,253.816376L75.868774,255.866547L80.015259,256.064545L80.288574,256.018738L84.225952,256.278076L87.046509,256.934784L95.258911,256.755249L97.928345,256.925720L103.426147,256.203522L106.696655,256.021820L114.036621,255.156097L121.748779,251.863220L123.574829,250.851685L125.417114,249.930511L127.211426,248.990753L131.245483,246.724274L134.410156,244.397369L138.133667,241.174072L142.004150,234.972931L143.663208,232.179291L145.324463,228.639282L145.884033,227.355835L146.011475,226.748108L146.678589,224.846985L146.749878,224.217834L147.314087,222.322937L147.630249,220.495605L147.848145,219.456970L148.013062,217.766968L148.086182,216.581177L148.162354,214.563354L148.181396,213.533875L148.372314,209.224609L148.145752,206.733459L147.228149,204.406433L144.089600,199.121582L143.865356,197.200256L143.822754,195.757141L143.551636,193.198669L142.447632,188.751953L141.041626,185.855286L139.803101,184.120483L137.194702,181.774658L134.450073,180.125854L133.321899,179.510986L131.594971,178.241821L127.521118,174.073425L124.660645,171.477722L117.726807,167.721558L109.194336,164.583374L101.672363,162.519470L98.206909,161.922119L92.170166,161.378052L84.165894,161.632568L82.198853,161.353821L80.826416,160.996155L82.454346,162.235779L83.707886,163.753052L84.484619,165.916809L84.531006,167.753418L84.283569,169.000061L83.887207,169.711792L83.623047,170.063660L83.752808,170.080139L87.235840,166.947021L88.738037,165.361877L90.285767,162.534546L91.246216,159.226196L91.884033,153.745361L92.044800,139.539001L92.193604,131.868530L92.592773,125.600708L92.729248,124.630737L92.778320,120.391541L92.276611,116.112854L91.158081,111.103394L90.350220,108.599304L88.960205,105.478027L88.913574,105.290588L87.797119,101.788025L86.800293,99.522156L85.768311,97.687378L84.848145,96.415771L82.715820,94.468079L78.924072,92.460815L75.078003,91.496643L73.024902,91.241394L68.949829,91.273987L66.139404,91.764465L62.289673,92.955688L59.889648,93.950439L57.091675,95.862793L54.515991,98.881409L53.022461,102.470032L52.810425,105.652100L53.861084,109.297485L56.347168,112.596985L57.326294,113.510315L61.250366,115.409058L66.078979,116.390198L67.572266,116.789978L67.871460,116.806946L67.591309,116.528870L66.800293,115.649536L65.873413,113.545898L65.761597,111.128723L66.409912,109.060974L68.023560,106.942505L69.610229,105.827271L70.754761,105.548279L64.531982,105.319885L59.844971,105.583374L56.080811,106.127197L51.979492,107.751709L49.006226,110.313660L48.785034,110.590576L47.287354,113.848633L47.179199,114.781555L47.227051,118.900940L47.685791,120.661865L48.771729,123.229126L49.703979,124.792236L51.827026,127.029114L54.834106,129.103760L59.416138,130.734619L61.806152,131.181580L62.888428,131.249695L65.920166,131.549988L67.800415,131.888916L70.885132,133.032410L72.262085,133.736328L71.854248,133.405640L71.199585,132.451111L70.536621,130.537720L70.650024,128.450439L71.197998,126.900879L71.983887,125.973694L72.803467,125.090759L73.728882,124.653015L74.565918,124.431946L74.430054,124.335999L72.565308,124.020020L62.421875,121.941284L53.959717,120.897522L48.996948,120.519775L45.372681,121.086731L41.404907,122.989441L40.782104,123.483704L38.388550,126.676025L38.099854,127.474426L37.342407,131.506287L37.701416,135.254944L39.440796,139.518250L42.527588,143.272278L44.050903,144.603394L46.032593,146.076355L49.708130,147.692139L53.080200,148.318787L56.469482,148.504089L60.114258,148.501953L61.919312,148.630188L64.858643,149.074402L66.185303,149.377808L67.034668,149.655273L66.955078,149.594299L66.927002,149.534302L66.460327,148.868042L66.064941,147.488342L65.893188,145.785339L66.144409,144.217224L67.385986,141.797852L69.534302,139.891052L70.956055,139.375305L70.292603,139.273071L69.599243,139.244141L68.730835,139.055664L68.004150,139.005066L64.969849,138.437012L54.694702,136.581665L48.494141,135.654175L44.113037,135.487976L41.804443,135.548645L40.027466,135.835327L36.406860,136.549927L33.017822,137.453003L29.428345,139.099426L26.732788,141.179688L26.161377,141.894653L24.413818,144.911560L24.126953,145.766479L23.733398,149.906982L24.542847,153.927979L26.675659,157.627319L28.835083,160.075806L30.084229,161.019897L31.185913,161.881775L34.117065,163.511597L37.264771,164.990173L39.673340,165.775330L40.967773,166.071960L41.844849,166.296997L43.165894,166.580872L45.110718,166.748047L47.200928,166.879456L62.995728,167.056763L65.359619,167.382446L66.443115,167.450256L64.704712,166.007263L63.475586,163.652344L63.312622,161.734131L63.516724,160.729614L64.102051,159.894409L64.592529,159.482605L61.471191,160.764343L61.655396,160.742981L60.109009,160.662231L54.908569,159.914856L45.563599,159.327026L42.420776,159.462402L38.429077,160.334900L35.641235,161.796021L34.416138,162.747009L31.588013,165.603394L29.700806,168.082336L27.808716,171.634766L26.493530,174.999207L25.746704,178.895142L25.615967,182.243774L26.206299,186.007874L29.131470,194.436096L32.449829,201.673279L35.640625,209.898193L36.903320,212.779907L38.159790,215.070557L41.827637,220.171265L45.360474,223.950806L49.627441,227.891052L52.279297,230.575531L55.501953,233.333710L58.769531,235.643433L61.863037,237.477081L65.005127,239.004761L73.100098,242.198944L78.089600,244.026947L82.335815,245.228607L86.357056,245.974335L91.378418,246.449890L94.612183,246.608124L99.637451,246.696991L102.609741,246.394562L103.496582,246.211731L107.740601,245.701416L108.585693,245.499298L115.091553,243.728760L120.389038,242.038574L123.684937,240.672180L127.048828,238.791656L130.683960,235.864746L133.485596,232.712189L134.589478,231.020905L135.413330,229.423157L136.519287,227.551147L138.345947,222.122681L140.486084,211.455078L140.590698,208.400757L139.774536,204.174194L138.672241,201.591370L137.793457,199.980652L136.637207,197.724365L135.659790,195.931580L134.074951,193.384644L131.013916,189.800537L127.165039,187.002869L122.884644,184.098328L120.009155,182.738647L115.420532,181.071716L106.587769,178.760193L93.382324,175.956787L87.392456,174.579956L80.839600,173.559631L58.931885,170.907776L51.917725,171.031433L47.588501,171.862610L43.617554,173.767822L40.413574,177.191223L39.989868,177.958557L39.003906,181.440186L38.989624,182.298340L39.240967,185.053284L39.911865,187.161621L43.882690,194.000549L47.362061,200.588196L48.833008,203.137634L51.242554,207.691772L52.213379,210.065002L53.860718,212.890259L55.564087,215.013611L58.349976,217.771790L60.160522,219.202881L62.592773,221.037170L63.036621,221.464539L65.235840,223.013184L70.652710,226.785828L74.999146,229.309845L83.391602,233.025299L87.726318,234.449280L92.022583,235.368103L97.913818,236.254211L103.227295,236.538696L106.589478,236.385132L110.293579,235.743927L114.293091,234.451538L119.875244,231.701874L123.816162,229.313873L126.636230,226.617249L128.569092,224.050720L129.697388,221.463501L130.590698,218.685913L131.320801,215.914978L131.567383,214.086731L131.617188,210.998108L131.186890,208.172974L130.621094,205.835999L129.213989,203.101196L127.731201,201.224731L126.614624,200.039551L123.720947,197.936951L121.716309,196.892822L120.854858,196.559082L117.503174,195.183594L107.307983,191.495483L89.228271,186.232727L75.774780,183.612183L70.207275,182.469055L67.110596,182.070129L63.723999,182.353333L60.113525,183.749939L59.781494,183.944946L57.790039,185.787170L56.413208,188.061829L55.663330,191.679565L55.638794,192.523926L56.724854,196.674927L58.122803,199.341553L60.045044,201.921570L63.527100,205.891357L65.896240,208.161865L69.544312,211.081970L71.929199,212.553467L77.137207,215.323669L86.611450,219.577698L96.296021,222.993530L96.952026,223.099121L99.956543,223.963440L100.863159,224.184204L102.939087,224.452332L105.536011,224.521667L110.233032,224.018188L113.673706,223.045532L115.515015,222.593140L117.018066,221.888428L118.354614,220.903992L119.473267,219.677795L120.331421,218.256836L120.895752,216.695801L121.144897,215.054626L121.068848,213.396423L120.671021,211.784912L119.966064,210.281982L118.981567,208.945435L117.755493,207.826599L116.334473,206.968506L114.773438,206.404114L113.132324,206.155090L111.474121,206.231079L109.862427,206.629089L109.435059,206.939636L107.819336,207.090820L105.187744,207.350159L104.954956,207.308594L104.556885,207.152222L104.582275,207.148499L102.241943,206.468994L101.990601,206.274231L93.369995,203.347839L85.148193,199.772217L80.968384,197.444885L79.543823,196.540955L77.094360,195.059326L75.876221,194.019653L73.363770,191.402771L72.438965,190.122314L72.254517,189.966187L72.532349,190.802307L72.455811,193.273560L71.498535,195.659912L70.239868,197.115662L67.899414,198.513855L66.256958,198.983887L66.363770,199.088989L71.419067,200.865295L84.637939,203.507935L101.641113,208.424011L111.147583,211.638123L113.904053,212.703918L114.245483,212.905457L114.684448,213.081055L115.366699,213.405457L114.816162,212.855286L114.528320,212.569519L114.469482,212.432495L114.382324,211.835571L114.306396,211.769958L114.266113,212.275696L114.217041,212.140076L113.829712,213.786316L113.455688,214.990723L113.276611,215.202454L113.455200,215.099548L113.388428,215.074951L111.993530,215.998413L107.880005,217.622314L106.369141,218.191345L105.332886,218.303894L103.659180,218.271973L99.657104,218.136719L95.543335,217.831421L92.618042,217.059082L89.927856,216.337463L83.579712,213.720764L80.577148,211.826904L75.761353,208.558594L73.756348,206.984497L73.180054,206.662720L70.952026,205.059387L70.104858,204.407837L68.588257,203.141113L68.430786,202.962158L68.095703,202.444336L67.215454,200.479919L64.497681,194.850464L62.774048,192.049927L59.172119,185.464905L56.004272,180.491455L56.286377,181.122253L56.498169,182.379761L56.284912,184.453308L54.631226,187.286926L52.620239,188.831787L53.039917,188.947205L57.444580,188.981995L78.157349,191.276184L83.757324,192.255127L89.611206,193.486389L102.538452,195.941650L110.250854,197.745422L112.926758,198.555115L113.887085,199.138550L117.831787,201.491211L118.869263,202.136169L119.877563,203.372620L120.743164,204.668579L121.433838,205.840759L122.333618,207.523804L122.675415,208.497803L123.158447,209.794434L123.216919,209.504089L123.065674,208.811768L121.359985,217.168579L120.361328,220.151672L119.976074,221.163330L119.269287,222.368835L119.157104,222.708740L119.102295,222.989990L117.583740,223.946289L116.408203,224.652039L114.791382,225.251953L109.926880,226.684937L105.463257,228.138489L105.270996,228.056274L101.012085,228.733887L100.436401,228.765381L99.015015,228.927887L94.958252,229.078186L92.940063,229.060242L89.309937,228.555786L86.434937,227.974792L83.944580,227.413025L79.488647,225.572266L72.357666,222.992981L70.883179,222.216370L68.865234,220.816956L66.744385,219.323547L64.636719,217.567200L62.052734,215.055908L58.219116,211.610840L55.804321,208.849243L52.921509,205.442810L52.667725,205.137451L52.074463,203.746521L49.401733,195.240295L45.964600,187.859192L43.567139,181.559753L43.396851,181.128479L43.438599,181.595154L43.870483,180.355652L44.223267,179.075745L44.726929,178.020691L45.099365,177.528992L46.212524,176.313477L45.782471,176.699707L45.207642,176.999268L44.223267,177.242004L44.826294,177.406189L53.119507,177.949890L58.752563,178.431763L63.012817,178.297668L66.106567,177.770081L72.316040,175.418823L75.805908,173.166870L78.841187,169.630554L80.551880,165.061096L80.819824,160.834167L79.802490,157.156677L79.227295,155.952209L76.469482,152.831543L75.373657,151.973328L69.433960,149.721130L64.710449,149.090637L48.110718,148.847900L46.858398,148.757202L45.892212,148.595581L45.464600,148.577026L45.189575,148.545959L44.827759,148.416931L43.947754,148.133179L42.476685,147.592529L41.136719,146.778503L40.984131,146.742554L40.998779,146.671448L40.866943,146.729126L41.108887,147.121399L41.302002,148.109375L41.354248,149.955994L40.547974,152.242798L38.914307,154.177368L38.613403,154.500916L40.177734,154.111206L42.766846,153.629639L43.632446,153.557678L44.086060,153.424988L46.608643,153.524780L51.691162,154.089111L61.812012,156.019043L65.290039,156.510315L66.542969,156.728271L68.185059,156.786438L70.090698,156.878967L73.135986,156.620422L76.197144,155.941467L79.076294,154.415405L79.782104,153.817261L82.381836,150.356628L82.588379,149.888489L83.196655,147.526001L83.236206,145.289368L82.392944,141.662659L80.883423,139.100586L78.977539,136.920166L76.682739,135.075806L73.122314,133.088745L69.249146,131.812805L64.571777,130.893982L61.098145,130.558655L56.836914,130.680054L55.256104,130.644104L54.978271,130.567139L54.811157,130.568726L54.806396,130.648438L54.858032,130.696411L54.221924,130.205872L54.440918,130.813354L54.687866,131.975098L54.615112,133.237366L53.535278,135.539734L50.886108,137.672729L49.140747,138.364014L52.124878,138.500793L59.233154,139.367981L69.274780,141.416626L72.578857,141.889832L75.692871,141.881592L78.501221,141.421387L81.251465,140.358215L83.570923,138.581726L85.740356,136.244385L87.105103,133.542236L87.913940,129.315125L87.186279,125.413147L86.684692,124.164551L84.608887,121.082092L82.741333,119.404419L78.588135,117.009155L72.994629,115.067078L69.063599,114.129883L64.781616,113.670532L64.288208,113.558777L63.790771,113.509644L62.582397,113.262024L63.038330,113.609497L63.431519,113.952698L63.981689,114.782471L64.301514,115.437561L64.417969,116.641541L63.924805,119.523743L61.865601,122.231323L60.082397,123.318848L61.474487,123.269897L64.998413,122.935730L71.768188,122.618896L74.355713,122.261597L77.941650,120.648071L80.928833,117.881897L81.165039,117.523376L82.232666,115.257996L82.691772,111.312012L81.814575,107.738281L81.413940,106.900757L78.860596,103.665771L75.836914,101.535889L73.451050,100.413208L70.168579,99.504700L66.420654,98.823486L67.124268,99.142578L68.700684,100.702942L69.935425,103.160767L70.128296,105.548157L69.584595,107.505859L68.798218,108.688538L68.121826,109.276733L68.062988,109.304504L70.145020,108.664612L70.507202,108.579407L72.484619,108.372009L72.557861,108.300842L73.062866,108.313965L72.746094,108.177124L72.169434,107.799316L71.661255,107.167358L71.576782,106.989685L71.708862,107.395874L72.703491,110.609070L73.008667,111.411682L73.922119,114.098877L74.240112,115.283142L74.903320,118.422791L75.017944,120.711487L74.972656,123.946472L75.034180,124.472534L74.547485,130.870605L74.408813,139.287292L74.412720,152.861267L74.395142,156.231323L74.478516,156.021484L74.717285,155.394043L75.563965,154.337402L72.289551,156.797668L71.268433,157.858704L69.857300,159.477478L68.470825,161.695068L67.580444,164.358276L67.254761,167.721985L67.981079,171.083557L69.649170,173.824097L72.096924,176.055542L72.794556,176.651855L78.488037,178.454224L83.058960,178.869995L91.090088,178.951355L95.394531,179.351318L97.375366,179.801453L103.717896,181.499878L110.349487,183.622253L113.936157,185.450195L115.328247,186.668152L119.677368,190.983215L123.099976,193.701355L125.267822,195.159973L126.879028,195.867310L126.152954,194.871216L126.316284,195.903931L126.349976,196.422546L126.306274,198.024902L126.999512,203.397278L131.005737,210.803589L130.504150,212.901367L130.527954,214.087952L130.466431,215.250305L130.382080,215.793396L130.208984,216.873474L130.196167,217.282593L129.942871,218.347595L129.708374,219.753967L129.572388,219.882629L129.311157,221.070007L129.125000,221.337830L129.058350,221.738525L128.344482,223.355042L126.689941,225.831055L125.116577,229.105316L123.641968,230.336914L121.838501,231.552795L118.719238,233.470795L117.612671,234.070862L115.772705,234.907288L113.606445,235.977051L110.213379,237.920776L105.729736,238.486633L102.272583,238.462952L97.904175,239.221649L95.803223,239.055206L89.514160,239.293945L87.187134,238.818481L81.276855,238.315979L80.129395,238.243896L77.959351,238.372559L70.318726,237.093628L69.555908,236.700745L69.247925,236.663635L63.637329,234.083344L61.589844,233.002960L59.396851,231.715057L59.079834,231.440857L55.762695,227.721924L54.159546,225.607910L51.842041,221.909119L46.205200,215.669800L42.637085,209.996277L39.777100,205.184265L36.333984,197.616028L35.386108,194.983459L34.563477,190.795044L33.813843,183.216492L33.658813,180.450928L33.670532,177.424744L33.908447,169.236572L34.355835,165.920227L34.661377,165.028870L36.218140,160.795410L37.877563,157.440979L38.064331,157.182495L39.450195,154.288513L40.177979,152.534058L40.889893,150.098450L41.287354,147.809998L42.069214,141.595581L43.423218,136.636475L43.904663,135.428772L47.388916,126.946411L50.788086,120.953003L52.549194,117.821472L52.980225,117.195862L52.957153,117.278015L55.661743,115.098267L57.593994,113.156616L60.522583,109.058594L62.736206,106.264893L66.404663,100.292603L66.457642,100.149902L67.376587,99.530701L69.897583,97.974304L71.658691,97.114563L71.472412,97.176270L71.324829,97.103210L71.144043,97.077515L72.332153,97.119324L72.958618,97.235046L74.067261,97.692505L75.178955,98.417480L75.739868,98.930542L77.571167,100.204834L78.314819,101.118591L78.152710,101.066284L78.113281,101.111572L79.252808,103.533630L79.562866,104.275513L83.590576,110.880615L84.055176,112.070374L84.623779,116.518188L85.644409,123.018066L85.651367,123.195557L85.478394,131.417664L85.234131,137.356445L85.098999,137.890503L85.283691,143.609924L85.262329,143.867615L84.403564,153.082458L84.163940,153.811218L84.348755,154.804993L84.343506,159.324829L85.014526,161.524109L85.516479,161.814636L86.759644,162.989075L86.990234,163.692810z" fill="#69984D" stroke="none" fill-opacity="1" />
				<path d="M37.357788,28.701965L37.722656,28.712952L38.082520,28.652527L38.423828,28.523132L38.733276,28.329529L38.999023,28.079346L39.210693,27.782166L39.360596,27.449341L39.442505,27.093689L39.453491,26.728882L39.393066,26.368958L39.263672,26.027710L39.070068,25.718323L38.819946,25.452515L38.522583,25.240723L38.189819,25.091064L37.834106,25.009033L37.351685,24.790039L36.732666,24.223999L34.746094,23.292053L35.413452,23.388855L36.318481,24.117554L36.898193,25.027710L37.048584,26.252808L36.974121,27.006226L36.861816,27.370300L37.286133,27.172974L39.474731,25.956482L40.462036,25.263123L41.638794,24.686890L41.667725,24.674438L43.627197,24.091248L45.929932,22.530212L45.135132,22.877625L43.651001,23.032288L43.226440,22.998352L44.320923,23.174927L45.427734,23.110413L46.494263,22.807739L47.470093,22.281311L48.308716,21.556213L48.970581,20.666687L49.423950,19.654907L49.647705,18.569031L49.631226,17.460449L49.374878,16.381775L47.452759,21.882202L41.686157,21.993958L41.582031,21.891968L41.694214,21.970459L42.630127,23.190796L42.448364,22.736938L42.253662,21.372314L42.501465,19.836243L42.968628,18.684814L43.709229,18.394775L43.714600,17.759644L43.570068,17.990967L40.851196,18.535400L38.210205,19.962219L36.891479,21.303772L35.852783,22.723206L35.213257,23.914612L34.494507,25.975037L34.149292,27.222412L34.005005,28.411133L34.044189,29.510742L34.301147,30.709167L35.110352,32.424011L35.984009,33.459473L36.674683,34.012573L38.543091,35.148621L40.164917,35.412598L40.837646,35.701538L41.704346,35.848328L43.055054,36.007019L44.323730,35.419678L46.102173,34.700439L47.774170,33.775757L50.055054,30.965637L49.860718,30.695984L49.292969,30.844421L49.102173,30.826477L47.180908,30.555542L45.758911,29.895874L44.065430,27.593933L45.170776,22.860718L43.687256,22.885559L43.118652,22.999023L42.268677,24.294067L41.296265,27.307434L40.724854,29.417175L40.522095,31.991089L40.902222,33.916931L40.999390,34.713684L41.494263,36.440308L42.734619,38.390747L44.152344,39.604980L45.794434,40.342163L47.930420,40.624146L49.801025,40.474548L51.595337,39.856506L53.586670,39.146606L54.355103,38.000305L55.371216,37.149475L56.177368,35.115295L57.014648,33.233276L56.812988,31.696838L56.433594,30.278809L55.770752,31.636658L54.293213,33.511658L51.115234,34.665039L47.384766,33.157898L46.422485,31.756348L46.425537,31.723999L46.790039,32.573059L47.283325,33.630615L48.683960,35.403870L48.744995,35.597900L51.192749,36.708191L51.246704,36.856079L52.922852,36.880066L54.526367,36.391724L54.721802,36.545532L55.832275,35.838196L56.749023,34.893188L57.422485,33.761841L57.815918,32.505371L57.942139,31.924866L58.270996,30.005005L58.446655,28.484802L57.573730,27.179077L57.571411,27.680237L55.148560,32.922363L48.268433,32.753052L47.149170,31.472656L46.999634,31.115967L46.984131,31.021667L48.332886,34.343079L49.161499,35.934998L49.958374,37.097656L49.693604,36.123962L49.717285,34.898071L50.202271,33.461914L51.308350,32.121399L52.214844,31.582153L52.670288,31.455322L51.086182,31.777832L49.300537,32.371399L47.487549,33.596741L46.304199,35.123901L45.713135,36.724976L45.658691,38.854431L46.274902,40.781738L46.538452,41.368835L47.652344,42.837280L49.688965,44.245117L51.648926,44.767578L52.297852,44.854553L54.673828,44.628601L55.532593,44.528625L54.270874,44.350647L53.282104,43.886475L52.510498,43.187073L52.038696,42.459778L51.714355,41.464844L51.658203,40.303833L51.940063,39.109436L52.378662,38.281311L52.063599,38.663208L51.432007,39.567505L50.622070,41.391663L50.330688,43.812561L50.371094,44.188843L51.311890,46.731140L51.541382,47.061646L53.726929,48.910339L54.286621,49.182617L56.251953,49.688293L56.884521,49.739624L58.478638,49.651794L57.927734,49.623047L57.079102,49.384216L56.121948,48.912659L55.366577,47.772461L54.634155,46.450256L54.537109,45.091797L54.824585,44.269653L54.707886,45.104309L54.356934,46.522522L54.342285,48.523438L54.741821,50.093689L55.692749,51.653809L57.303955,53.089478L57.225342,52.886353L58.127930,53.562134L59.041382,53.980713L59.046509,53.169922L59.246094,52.034790L59.739014,51.138000L60.714111,50.272034L61.939087,49.892700L62.441162,49.866333L62.210449,49.383850L62.612305,49.280273L63.235107,49.747375L63.097168,50.375977L63.460327,53.810486L59.509277,56.636353L57.894165,56.286682L57.570435,55.657898L58.419067,56.054504L59.667969,57.541931L60.027466,58.633362L60.891724,59.668213L61.873657,60.808044L62.057617,60.845886L63.721191,61.557800L63.824707,61.510498L64.976929,61.500000L66.065918,61.123291L66.202148,60.905762L66.963135,60.348206L67.544189,59.605225L67.902222,58.732483L67.957520,58.319519L68.065796,57.742432L68.189209,55.680969L68.176514,55.138855L68.128906,54.667236L68.123901,54.750732L64.300903,58.408936L61.229614,54.810913L61.243774,55.708252L61.295044,56.254578L61.471313,57.475708L61.635620,58.176636L62.292236,60.103210L63.095581,62.573730L64.179077,65.471313L65.895874,68.387085L66.588623,70.076416L67.382080,72.181396L67.983398,73.040527L68.201416,73.354065L68.270996,73.539917L68.402954,73.841187L68.421753,73.994263L68.470093,74.140625L68.546143,74.274841L68.646851,74.391541L68.768311,74.486450L68.906128,74.555725L69.054688,74.596924L69.208618,74.608215L69.361572,74.589417L69.507935,74.541016L69.642090,74.465027L69.758789,74.364319L69.853760,74.242798L69.923096,74.105042L69.964111,73.956421L69.975586,73.802673L70.092163,73.479248L70.135986,73.225586L70.291748,72.812378L70.621460,71.637268L70.254761,69.339233L70.308960,67.438049L69.917236,63.819519L69.473755,61.151062L69.219849,58.438965L68.473145,56.228638L68.414185,56.047119L68.213013,55.214722L68.148804,54.909424L68.145996,55.134888L68.135010,55.315796L68.131226,54.601013L67.980469,53.902344L67.689087,53.249634L67.269653,52.670837L66.740234,52.190674L66.123169,51.829834L65.445190,51.603638L64.735107,51.521790L64.023315,51.587769L63.340576,51.798828L62.715576,52.145874L62.175537,52.614014L61.743286,53.183350L61.437622,53.829407L61.271362,54.524536L61.280273,54.559753L61.386719,55.967834L61.361938,55.824463L61.331055,55.618591L61.329468,55.565552L61.302246,56.994995L61.334473,56.821777L61.850708,55.750061L63.760254,54.458862L65.704956,54.622925L66.957153,55.435608L66.859375,54.567749L65.407715,53.099792L63.693481,51.424622L63.204346,50.209900L62.195312,48.897766L60.671143,48.235291L58.718262,48.192261L58.666992,48.295654L57.776001,48.592224L56.973877,49.080383L56.300781,49.735291L55.791260,50.523926L55.470337,51.406494L55.354980,52.338379L55.450439,53.272522L55.752075,54.161804L56.244629,54.961243L56.239502,54.775024L55.750000,54.905518L56.707520,55.881592L58.050415,56.530151L60.486206,57.068909L61.873779,57.279419L63.385254,57.136719L63.779785,57.053406L65.357422,56.087952L65.499146,55.971008L66.252808,54.947510L66.719238,53.558533L66.643188,52.024231L66.685913,51.575989L66.211548,49.070679L65.092285,46.823120L64.379517,45.893616L63.686279,45.204224L64.284424,45.940430L64.731201,47.070740L64.879639,48.159607L64.788574,49.059875L65.380981,48.436096L65.931030,47.055603L66.032227,45.315918L65.410034,43.436462L64.355957,41.538391L64.029907,40.949158L61.981323,39.500061L60.086060,38.798706L58.627075,38.627808L57.131348,38.757812L57.981201,38.897522L59.588257,39.765564L60.960327,41.715515L61.223267,43.896301L60.913086,45.098694L60.639771,45.595215L61.178711,45.049011L62.063477,43.701843L62.641724,42.085327L62.767334,40.248108L62.300049,38.151306L61.501099,36.639648L60.362305,35.342773L58.405884,34.098755L56.275146,33.522095L52.990234,33.859497L52.368652,34.057922L53.409912,34.225098L54.559326,34.831421L55.380249,35.683228L55.806519,36.672424L55.992676,38.137573L55.690308,39.542419L54.990967,40.756104L53.987305,41.666870L53.217529,42.054016L54.562622,41.994080L55.652954,41.753906L57.290527,41.066895L59.033203,39.613708L59.302856,39.301208L60.233765,37.497253L60.290771,37.320374L60.548584,35.549377L60.088379,33.034241L58.572998,30.353394L58.392334,30.082458L57.327881,26.929016L57.128174,26.405884L56.932495,25.849243L56.118774,24.558105L54.422729,23.218567L54.414307,23.148376L53.228271,22.692078L51.971191,22.507019L50.703979,22.602234L49.488525,22.973083L48.384033,23.601440L47.444214,24.456726L46.714966,25.497253L46.231567,26.672546L46.017822,27.925110L46.083740,29.194092L45.996338,29.096863L45.901733,29.063049L46.051147,31.309021L46.443237,31.149353L46.709229,30.523499L47.769897,28.016541L51.400024,26.124512L54.271362,26.667236L56.019287,28.169617L56.443481,28.754822L56.269409,28.123352L56.226196,27.950867L55.935791,27.158020L54.839233,25.595032L53.260620,24.521057L53.077515,24.354309L51.499023,23.927124L49.864868,23.993225L48.325806,24.546570L48.227295,24.540833L46.611206,25.878906L46.466431,25.958801L45.275635,28.693604L44.891479,29.304688L44.657104,31.583374L44.353027,31.553955L44.779175,31.670959L44.808838,31.500671L45.406982,31.198181L45.678833,30.508728L46.446655,30.625366L46.954224,30.469238L47.427612,30.497864L48.075562,30.572205L49.012329,30.885132L49.811523,31.454163L50.338257,32.161133L50.620117,32.858154L50.587402,32.361633L50.346436,31.281311L50.364258,31.815308L50.643921,31.825989L51.585693,31.527588L51.720581,31.789795L51.347412,31.740173L52.072144,29.963684L53.334351,28.864319L53.878296,27.813660L54.171143,26.667236L54.197632,25.484436L53.956543,24.326111L53.460083,23.252075L52.734131,22.317810L51.816162,21.571472L50.753174,21.051636L51.404541,21.496277L51.968872,21.990723L50.537476,21.190613L48.923828,20.899292L48.731567,20.895935L46.866211,21.088745L45.161987,21.582947L43.116333,22.612549L40.499023,24.356689L40.553711,24.505859L40.619995,24.534241L40.616821,24.270874L40.529907,24.658997L40.494263,24.862854L40.687744,25.141418L41.004150,25.206665L41.532715,25.718018L42.277466,26.194763L42.758789,26.708679L43.178101,27.463989L43.399902,28.138245L43.462646,28.727478L43.448242,29.118713L43.397095,29.473389L43.940430,28.813110L44.046875,28.850952L44.043823,29.131592L44.118530,29.446228L44.755615,29.161926L47.031128,28.213379L48.544556,27.768738L49.390381,26.673645L50.330444,26.313843L51.250610,24.892822L52.059692,23.116028L52.053955,22.676270L52.115601,20.673218L52.047852,20.263428L51.219849,18.176147L49.506836,15.738098L48.580322,14.705627L48.136719,14.291565L47.539917,13.799500L46.619751,13.241394L45.602173,12.891174L44.533447,12.764771L43.462280,12.868103L42.437378,13.196228L41.505249,13.734314L40.708740,14.457886L40.083740,15.334045L39.658936,16.322754L39.453491,17.379211L39.476807,18.455139L39.727905,19.501648L40.850586,14.625549L45.326904,12.985291L43.219849,12.855652L42.808716,12.892578L40.803467,13.607788L39.010620,14.965149L37.203247,15.914001L36.105347,16.611755L35.067627,17.469055L33.740479,18.639709L31.881958,20.542847L30.822754,21.701538L29.934937,23.016113L29.358276,24.704895L29.204102,26.262024L29.275146,26.430481L29.874634,28.007507L30.967407,29.410889L31.325562,29.654358L32.572876,30.309631L33.261475,30.404114L36.649536,29.319641L36.921631,28.800537z" fill="#754032" stroke="none" fill-opacity="1" />
				<path d="M70.008057,70.936035L69.886353,70.634155L69.708252,70.361877L69.480347,70.129578L69.211548,69.946289L68.912109,69.818848L68.593506,69.752319L68.268188,69.749207L67.948364,69.809631L67.646606,69.931274L67.374390,70.109436L67.142090,70.337341L66.958618,70.606201L66.831177,70.905640L66.764648,71.224182L66.761597,71.549561L66.822021,71.869324L66.573975,72.646545L66.941650,72.647949L67.057739,74.185242L67.205078,74.561890L67.422974,74.902466L67.703247,75.193970L68.034912,75.425232L68.405396,75.587280L68.800415,75.674072L69.204712,75.682007L69.602905,75.610962L69.979248,75.463562L70.319946,75.245605L70.611450,74.965393L70.842773,74.633667L71.004883,74.263184L71.091431,73.868225L71.099487,73.463928L71.028442,73.065857L70.356567,71.804321L70.682007,71.620667z" fill="#754032" stroke="none" fill-opacity="1" />
			</g>
			<g id="layer.Layer.uuid_0x2">
				<path d="M96.410400,163.911560L96.393799,164.035522L96.401733,164.160400L96.433960,164.281189L96.489014,164.393494L96.565063,164.492859L96.658936,164.575500L96.767090,164.638184L96.885498,164.678589L97.009521,164.695129L97.134277,164.687134L97.255249,164.655029L97.367310,164.599854L97.466797,164.523926L97.549316,164.430054L97.612183,164.321838L97.652466,164.203491L100.484253,154.860168L102.217041,144.198242L102.958496,135.320679L103.023804,130.110657L102.554321,122.843567L99.607788,107.154358L98.301147,103.898865L97.722412,101.859009L96.197998,98.597778L93.087402,93.168884L90.726807,90.086365L88.471680,87.225098L83.717285,82.961670L81.321167,81.361511L78.292725,79.846436L74.218750,78.867310L71.506470,78.656433L69.575073,78.923889L67.773315,79.142456L64.940430,79.984314L61.067383,81.678528L58.150146,83.403076L56.228149,84.783203L54.337158,86.149963L51.553101,88.692749L47.944092,92.470764L46.117188,94.497925L44.398193,96.761902L42.707886,98.852539L41.073486,101.175049L39.464355,103.337097L37.932495,105.694397L35.644409,109.167175L34.227295,111.700378L30.361328,118.906982L28.605713,122.834656L25.365601,130.596436L24.344727,133.299744L20.967163,142.228699L20.122437,144.935913L19.280029,147.438965L18.160522,151.346008L16.871460,156.538879L16.276978,159.197388L15.837158,161.997559L15.382690,164.640076L15.068115,167.440491L14.639526,171.554626L14.538086,174.435181L14.407837,177.201050L14.450562,180.081604L14.460571,182.807739L14.867798,189.775818L15.601196,195.470581L17.019287,202.653259L18.589722,208.403503L21.099243,215.698730L23.633179,221.426697L25.891479,225.665344L28.323975,229.640503L30.900635,233.401306L33.753662,236.846588L37.868530,241.098907L43.223633,245.636505L45.622681,247.264771L47.832886,248.698151L50.286499,249.975830L53.944580,251.711761L57.862549,253.138519L64.280151,255.057526L70.860840,256.493713L74.909302,257.061035L77.543457,257.420044L85.506348,257.899811L93.444336,258.049622L96.180420,257.915009L98.667603,257.845612L103.331299,257.393127L105.572998,257.169861L108.940796,256.523254L114.385376,255.224701L119.495483,253.690399L122.539795,252.472076L126.297241,250.686035L129.707886,248.692810L132.808472,246.467194L136.351685,243.458588L139.362427,240.211884L141.469238,237.422424L142.924194,235.111664L144.882446,231.061218L145.853149,228.581543L146.670654,226.040894L147.207031,224.389160L148.809937,217.179077L149.317871,212.580688L149.420410,210.576660L149.387695,209.984131L149.312866,207.730957L149.102783,205.970276L148.944702,204.560364L148.496338,202.383484L147.192383,197.511719L145.956909,193.937378L144.002075,189.586792L142.207275,186.402893L140.213013,183.486938L138.072266,180.863586L135.708252,178.434326L133.151855,176.258667L128.690063,172.798035L121.153320,168.088745L114.303589,164.625122L108.661743,162.448059L107.685303,162.182922L105.428345,161.519165L104.805542,161.430237L102.635010,160.981628L102.024414,160.930115L99.818726,160.613586L99.182251,160.617554L96.281982,160.414734L95.646484,160.469360L93.442871,160.718628L91.354858,161.001221L87.818970,161.693420L84.573853,162.857849L82.455688,163.950439L79.982910,165.189575L79.189331,165.621277L77.465088,166.687561L76.921875,167.015137L70.296753,171.664429L70.162476,171.763428L70.050171,171.886658L69.964111,172.029480L69.907593,172.186340L69.882690,172.351196L69.890381,172.517700L69.930664,172.679565L70.001465,172.830444L70.100586,172.964661L70.223755,173.076904L70.366577,173.162964L70.523315,173.219543L70.688232,173.244446L70.854858,173.236633L71.016602,173.196533L71.167480,173.125610L78.340210,169.552368L78.797241,169.334473L80.572021,168.691101L81.405396,168.410950L84.008057,167.350647L85.844116,166.620422L88.611694,166.024719L91.787354,165.740662L93.577148,165.744751L95.572632,165.949219L96.016113,166.028992L98.721069,166.141357L99.185791,166.248657L101.241943,166.440063L101.694702,166.548706L103.707642,166.835388L104.125244,166.969116L106.159302,167.373718L106.844360,167.626709L112.065186,169.433777L118.451172,172.612976L125.516846,177.135498L129.707031,180.320251L131.901245,182.319275L133.973389,184.414673L135.841187,186.637390L137.567749,189.159607L139.125000,191.929932L140.907837,195.846252L142.041138,198.993164L143.231567,203.513672L143.583862,205.404785L143.797974,206.591614L143.935791,208.081482L144.073120,210.062866L144.041992,210.508850L144.070923,212.098450L143.550781,216.155640L142.048950,222.970337L141.674927,224.411194L140.867676,226.676697L139.994141,228.823639L138.258057,232.470764L137.173218,234.391327L135.418579,236.759064L132.802002,239.582764L129.676025,242.334900L126.972900,244.300262L123.994873,246.067352L120.576416,247.641357L117.847534,248.644897L113.087280,250.137543L107.952759,251.353088L104.810059,251.847931L102.813477,252.184509L98.347290,252.537323L96.004761,252.713165L93.453857,252.724792L85.791504,252.687103L78.109253,252.083954L75.670166,251.840118L71.932251,251.195801L65.718262,249.832764L59.660645,248.069092L56.139160,246.697113L52.777100,245.205048L50.661865,243.992554L48.652466,242.800690L46.669189,241.355743L41.721558,237.186829L37.952271,233.249176L35.383057,230.097839L32.915771,226.739685L30.699463,223.045105L28.669312,219.102112L26.332520,213.763916L23.925293,206.855774L22.476440,201.465210L21.106201,194.672241L20.446167,189.338562L20.003052,182.630798L19.898071,180.049072L19.937988,177.317261L19.960938,174.694214L20.163696,172.007507L20.470703,168.077637L20.847412,165.436218L21.179321,162.908630L21.700684,160.277954L22.170166,157.799927L23.413452,152.812378L24.515625,149.047302L25.221558,146.606689L26.118774,144.080383L29.300415,135.211182L30.356201,132.611267L33.408569,124.947388L35.082397,121.276733L38.635986,114.208435L40.056885,111.900024L42.125854,108.466919L43.667358,106.248291L45.096191,104.069763L46.739502,101.880432L48.231323,99.781677L49.958862,97.726135L51.526123,95.789185L54.892944,92.243958L57.463135,89.939941L59.011108,88.563293L60.691406,87.370422L63.114868,85.825134L66.387207,84.289246L68.722412,83.600220L70.086792,83.242065L71.546265,83.195862L73.490601,83.126404L76.672607,83.818359L79.141846,84.937439L81.049072,86.195068L85.443970,90.072632L87.782104,92.407166L89.875000,95.220459L92.995728,100.171082L94.326294,103.176697L95.172607,105.032043L96.088989,107.993835L99.289673,123.204285L99.973511,130.177551L100.057129,135.172363L99.584106,143.846313L98.025513,154.331848z" fill="#000000" stroke="none" fill-opacity="1" />
				<path d="M70.274292,74.757202L70.284546,74.836914L70.310181,74.913147L70.350220,74.982849L70.402954,75.043335L70.466675,75.092468L70.538574,75.128235L70.616211,75.149231L70.696411,75.154724L70.776123,75.144409L70.852417,75.118774L70.921997,75.078796L70.982544,75.025940L71.031738,74.962280L71.067261,74.890320L71.088379,74.812744L71.093872,74.732544L71.103027,72.731201L71.163208,71.696289L71.129272,70.840027L71.237427,68.131653L70.897217,65.097534L70.782715,63.942688L70.291016,60.987732L69.807129,57.742554L68.922852,53.634216L67.928711,49.239563L66.388916,44.083008L65.527100,41.426086L64.593994,38.809814L62.046021,33.152527L60.662109,30.460388L59.503174,28.337585L58.122070,26.034912L56.551025,23.720398L55.062622,21.744873L51.595825,17.691650L49.581421,15.425903L48.017700,13.730103L45.982056,11.583191L45.779541,11.410156L45.547363,11.279907L45.294067,11.197449L45.029663,11.166016L44.764160,11.186707L44.507812,11.258789L44.270630,11.379578L44.061279,11.544312L43.888184,11.746582L43.757935,11.978882L43.675537,12.232117L43.644043,12.496521L43.664795,12.761963L43.736816,13.018311L43.857666,13.255676L44.022339,13.464905L46.057983,15.558289L47.584351,17.207886L49.518799,19.420471L52.722046,23.540161L54.122559,25.413818L55.618652,27.613098L56.977539,29.772339L58.118286,31.808716L59.464111,34.347534L61.873169,39.871521L62.844116,42.363708L63.752808,44.890686L65.221191,49.944580L66.381104,54.201721L67.245239,58.237793L67.951782,61.387878L68.436157,64.311951L68.671997,65.424744L69.196411,68.375244L69.889526,70.940430L69.974854,71.765564L70.144897,72.765808z" fill="#000000" stroke="none" fill-opacity="1" />
				<path d="M44.946655,12.703674L45.081787,12.608398L45.195679,12.488647L45.283936,12.348877L45.343506,12.194580L45.371460,12.031677L45.367432,11.866455L45.331055,11.705200L45.264038,11.554077L45.168579,11.419006L45.048950,11.305176L44.909058,11.216797L44.754883,11.157410L44.591919,11.129333L44.426758,11.133423L44.265503,11.169800L44.114380,11.236938L41.253296,12.851501L40.607178,13.486084L39.642578,14.212280L36.576660,16.230896L35.783936,16.776001L33.181519,19.073914L29.784790,22.568604L27.446533,25.003967L26.802490,26.109497L26.628906,26.380188L26.511353,26.679626L26.454590,26.996094L26.460571,27.317627L26.529175,27.631775L26.657837,27.926453L26.841431,28.190430L27.073120,28.413574L27.343872,28.587158L27.643188,28.704590L27.959717,28.761414L28.281250,28.755310L28.595337,28.686707L28.890015,28.558044L29.154053,28.374451L29.377197,28.142883L30.248657,27.330322L32.148560,24.748901L35.356079,21.293274L37.704224,18.855530L38.274536,18.157043L40.651855,15.433105L41.541992,14.652710L42.150391,14.296753z" fill="#000000" stroke="none" fill-opacity="1" />
				<path d="M66.872314,73.546631L66.906738,73.628723L66.956421,73.702576L67.019653,73.765198L67.093750,73.814392L67.176147,73.848145L67.263306,73.865173L67.352417,73.864807L67.439575,73.847229L67.521606,73.812866L67.595459,73.763123L67.658203,73.700073L67.707275,73.625854L67.741089,73.543457L67.758057,73.456238L67.757812,73.367188L67.740112,73.280029L67.539429,72.184814L66.956787,70.666077L66.168213,67.690796L65.658325,66.172852L64.272827,63.313110L63.147461,61.053101L61.546753,58.451660L59.922852,55.743225L57.779663,52.737183L55.614258,49.716125L52.938110,46.499573L51.613892,44.901611L50.278320,43.341980L45.585938,38.640015L42.290161,35.594421L38.640015,32.818542L35.155029,30.267273L31.701782,28.152527L25.778076,24.962646L25.551392,24.868774L25.310791,24.820923L25.065430,24.820923L24.824829,24.868774L24.598022,24.962708L24.394043,25.099060L24.220581,25.272583L24.084351,25.476624L23.990356,25.703308L23.942505,25.943909L23.942505,26.189331L23.990479,26.429993L24.084351,26.656677L24.220703,26.860657L24.394165,27.034180L24.598267,27.170532L30.422485,30.262756L33.690430,32.393738L37.132935,34.754517L40.513550,37.625549L43.769531,40.478516L48.283936,45.162231L49.638794,46.622864L50.984741,48.112671L53.531494,51.320068L55.793335,54.155823L57.834229,57.123840L59.597290,59.642883L61.095093,62.215881L62.381958,64.295837L63.834839,67.026611L64.605469,68.324829L66.012573,70.987854L66.424683,72.532227z" fill="#000000" stroke="none" fill-opacity="1" />
			</g>
		</g>
	</g>
</svg>
