<?xml version="1.0" encoding="UTF-8"?>
<!-- Generator: Blender, SVG Export for Grease Pencil - v2.0 -->
<!DOCTYPE svg PUBLIC "-//W3C//DTD SVG 1.1//EN" "http://www.w3.org/Graphics/SVG/1.1/DTD/svg11.dtd">
<svg version="1.1" x="0px" y="0px" xmlns="http://www.w3.org/2000/svg" width="183.057129px" height="300.071838px" viewBox="0 0 183.057129 300.071838">
	<g id="blender_frame.1">
		<g id="blender_object.LogoVector.002.1.uuid_0x0">
			<g id="layer.fill.uuid_0x1">
				<path d="M78.591980,214.570923L78.171814,214.713745L77.787659,214.935669L77.454102,215.228394L77.184082,215.580505L76.987976,215.978638L76.873291,216.407166L76.844360,216.850037L76.902466,217.289978L77.045288,217.710083L77.267212,218.094299L77.559937,218.427795L77.912048,218.697876L78.310120,218.894043L78.738770,219.008667L79.181580,219.037537L79.621521,218.979492L82.096069,218.401611L86.415100,216.850098L90.480652,214.205383L91.611633,213.168945L93.301453,210.575500L93.627869,209.621460L93.992798,206.160645L93.578796,203.997131L91.520264,200.559814L87.662048,196.838928L84.395508,194.866943L82.355347,194.049194L80.064514,193.617432L77.400085,193.650635L74.918884,194.207031L72.300293,195.396118L69.955933,196.786499L67.740906,198.561157L65.598450,201.075684L63.996826,203.599548L62.627808,206.669189L61.760925,209.668274L61.404541,215.210388L61.932068,218.387329L62.909973,221.090210L64.241577,223.408875L65.943481,225.459961L69.358704,228.159241L73.575012,229.814941L78.663391,230.403931L83.774292,229.780334L86.518860,228.854919L89.161682,227.506775L93.663391,224.103699L97.141785,220.059448L98.698181,217.490662L99.799072,214.902954L100.555481,210.246094L100.275940,207.803528L99.451782,205.535278L97.989319,203.462219L94.743164,200.911377L92.028564,199.722412L89.733459,199.187195L85.040039,199.386597L82.234375,200.307251L79.959473,201.601685L77.737732,203.705505L76.142639,205.876892L74.294495,210.312195L73.822021,215.128418L74.196960,217.885986L75.829102,221.982178L77.302429,224.019836L80.106262,226.172607L81.927307,226.961304L85.743164,227.282715L90.049377,226.342651L94.072083,223.886414L97.588440,220.248413L99.300781,217.677734L101.557312,212.672974L102.225098,209.983032L102.254272,205.362244L101.622314,202.955139L100.319092,200.797058L99.738220,200.193054L96.934692,198.196777L94.699219,197.300659L91.960815,196.851746L89.362122,196.835999L86.261108,197.422119L83.381470,198.596863L80.799194,200.364929L78.687622,202.367432L76.769714,205.052002L75.507141,207.621887L74.665100,210.630737L74.346802,213.309998L74.711914,218.683716L76.483154,223.518005L79.220215,227.119507L79.983398,227.736389L82.738159,229.105591L84.790527,229.500549L88.929626,228.914673L93.359558,226.519043L95.636597,224.480713L99.474304,219.592957L101.204285,216.675781L102.691040,213.197876L103.579285,210.095764L103.908752,206.943176L103.523254,204.070251L102.544861,201.666809L100.469971,199.253296L98.136169,197.659912L95.106384,196.448120L91.935913,195.862061L88.405762,195.819580L84.403381,196.419678L80.392151,197.667175L76.921265,199.333679L73.105530,201.909485L70.033875,204.878601L67.816833,207.915100L66.058594,211.501770L64.949890,215.042908L64.508545,218.598328L64.644653,221.717346L65.165039,224.649414L66.221130,227.621765L67.719666,230.252380L69.624756,232.512512L73.686401,235.497498L78.707764,237.176147L81.546143,237.430969L84.649109,237.122009L87.335205,236.446594L93.835876,233.104248L100.388672,227.952820L103.526184,224.712646L106.065918,221.324768L108.056030,217.911194L109.487183,214.356323L110.170715,211.185730L110.002625,207.481934L109.079651,204.530518L107.207886,201.631714L104.847900,199.193237L101.840027,196.898315L98.505371,195.075073L94.552795,193.646912L90.643616,192.723450L86.706848,192.309509L82.297729,192.496460L78.301392,193.315613L74.764160,194.599976L71.224670,196.740601L68.505188,199.085754L66.033203,202.113708L64.148926,205.267395L62.795776,208.542908L62.034363,211.780579L61.720398,215.121094L62.091797,218.777649L62.793396,221.519653L65.675659,226.586548L69.325012,230.125427L71.971497,231.599365L74.396729,232.364685L76.768372,232.772095L81.896179,232.315186L87.511963,230.111511L90.257996,228.277954L92.440979,226.243164L95.978699,221.404907L97.453979,218.231445L98.348389,215.237854L98.693481,212.061157L98.538513,209.355347L97.699036,206.548889L96.051392,203.836914L93.786682,201.401978L91.161987,199.384338L88.439758,197.718811L85.171387,196.293396L81.944336,195.484253L78.503906,195.106445L75.277771,195.315735L72.176270,196.209290L69.455750,197.626404L67.110352,199.682007L65.190796,202.334900L63.795471,205.280762L62.702942,211.286926L63.346558,217.425110L64.300537,220.505859L65.583557,223.183167L67.286987,225.651917L68.802795,227.370728L70.885742,228.979980L73.111755,230.082458L75.432251,230.639160L79.356445,230.303772L81.733826,229.335388L85.742188,226.277954L88.931519,221.719055L90.266785,218.702576L91.897034,211.860779L92.239380,208.337708L92.125061,204.876709L91.653564,201.454407L90.766235,198.309387L89.282227,195.208618L87.711914,192.963562L85.577332,190.931641L83.465027,189.614380L81.386047,188.999329L79.638184,189.035889L78.591003,189.407532L77.795227,189.939148L77.032471,190.800537L76.405457,192.041443L75.907593,194.167419L76.020752,198.267212L76.679321,202.160461L77.578064,205.370422L78.434753,207.188904L78.669312,207.565552L78.972900,207.889221L79.333801,208.147461L79.738098,208.330261L80.170349,208.430725L80.613892,208.444885L81.051636,208.372253L81.466797,208.215698L81.843445,207.981140L82.167114,207.677490L82.425293,207.316589L82.608154,206.912231L82.708618,206.480042L82.722778,206.036560L82.650208,205.598816L82.493530,205.183594L81.867798,203.938171L81.119141,201.267395L80.537598,197.927795L80.387756,194.762817L80.567871,193.793823L80.747314,193.322083L80.605652,193.422913L80.674622,193.454163L81.443420,193.651184L82.688477,194.409485L84.166809,195.788696L85.301025,197.371948L86.472839,199.758972L87.193298,202.246460L87.605713,205.166077L87.717590,208.073242L87.452393,210.985901L86.027161,217.102478L85.053284,219.374207L82.668091,222.934875L79.612549,225.344604L78.485901,225.875305L76.011292,226.164246L74.804810,225.892029L73.404724,225.225037L72.018494,224.192139L70.910034,222.940430L69.572021,221.033813L68.557800,218.957764L67.815247,216.666992L67.221436,211.717834L68.033752,206.900146L69.017944,204.761658L70.352417,202.851624L71.851807,201.477783L73.717651,200.471802L75.872925,199.810730L78.238342,199.630310L81.031616,199.920959L83.563843,200.529907L86.227112,201.671631L88.526611,203.067200L90.638184,204.660156L92.355591,206.460632L93.482544,208.222595L94.041016,209.943359L94.169250,211.813721L93.942261,214.176392L93.259399,216.520874L92.171997,218.943726L89.170532,223.105530L87.540222,224.653137L85.568176,226.015564L81.101624,227.846497L77.200500,228.275696L75.549988,227.989075L73.868958,227.494690L72.191406,226.607788L69.412109,224.009460L67.090149,220.060242L66.571045,218.100525L66.250244,215.289551L66.483948,212.628784L67.061218,210.071228L68.134705,207.420654L69.667053,204.818665L71.640076,202.357971L73.769226,200.489807L76.549377,198.766479L79.403564,197.709656L82.697693,197.009583L86.421631,196.830811L89.760132,197.165955L93.160767,197.956665L96.513733,199.144348L99.254333,200.618347L101.745850,202.494629L103.580688,204.348694L104.892212,206.278198L105.505676,208.082214L105.674011,210.578735L105.203918,212.876831L104.052551,215.790894L102.354431,218.729187L100.160950,221.681091L97.453857,224.502441L91.544495,229.193970L85.943237,232.130920L83.986084,232.640625L81.651672,232.900452L79.796631,232.773926L76.024170,231.603394L72.872620,229.347229L71.521362,227.785400L70.401672,225.872559L69.582703,223.640991L69.157532,221.329407L69.028137,218.920593L69.340393,216.166382L70.214539,213.305359L71.612183,210.390930L73.346741,207.970276L75.824463,205.534851L79.054138,203.330383L81.921326,201.931458L85.276367,200.865173L88.571655,200.347229L91.358582,200.356262L93.696899,200.756104L95.880188,201.577881L97.357910,202.529480L98.583313,203.825195L99.116455,205.065552L99.374573,206.808472L99.164734,209.071350L98.463989,211.570740L97.222290,214.516724L95.808960,216.931580L92.421143,221.288574L90.871582,222.728333L87.782959,224.515747L85.051514,224.993225L84.407104,224.913757L82.448425,223.906067L80.578796,221.558472L79.201172,218.009155L78.869934,213.593689L79.084045,211.629822L79.681702,209.386047L80.591614,207.485413L81.991699,205.470337L83.557983,203.958496L85.377808,202.667542L87.387695,201.812927L89.601501,201.351318L91.470154,201.348999L93.377869,201.624817L94.571045,202.045776L96.793762,203.606018L97.404663,204.568359L97.752747,205.718262L97.754944,209.218018L97.333252,211.030151L95.406372,215.362366L94.153381,217.292542L91.379456,220.236816L88.611877,222.032349L85.659180,222.744080L83.225952,222.639160L82.523254,222.355774L80.672546,221.014160L79.878174,219.979248L78.611023,216.916321L78.340820,215.209106L78.626099,211.673706L79.981934,208.291382L81.060242,206.786560L82.488770,205.345886L83.972229,204.482422L85.642029,203.885559L89.076599,203.655640L90.501282,203.979675L92.255005,204.704895L94.588135,206.433655L95.365234,207.457825L95.853882,208.742371L96.052551,209.926514L95.510986,213.424011L94.721313,215.321594L93.558960,217.285767L90.715637,220.658936L86.899963,223.579956L84.854004,224.642151L82.936768,225.324951L78.856506,225.873047L74.864685,225.466187L71.848938,224.362366L69.238220,222.346191L68.039246,220.936951L67.078491,219.313049L66.346069,217.362000L65.939758,215.185181L66.186401,210.654846L66.838257,208.340210L67.923645,205.858459L69.179016,203.850342L70.771851,201.931335L72.421204,200.587158L74.336975,199.440796L76.215759,198.538452L77.768433,198.156433L79.532959,198.107910L80.942749,198.344238L82.274475,198.862427L84.749756,200.314514L87.853699,203.230408L89.313232,205.472412L89.484436,206.092834L89.179871,208.632385L88.286316,210.110291L87.802307,210.560852L84.611023,212.688843L80.935242,214.023682z" fill="#69984D" stroke="none" fill-opacity="1" />
				<path d="M94.486084,201.523987L91.024292,200.987244L87.526611,201.182068L84.145813,202.099792L81.029724,203.700317L78.314453,205.913879L76.118835,208.643494L74.538696,211.769958L73.643066,215.156677L73.471130,218.655579L74.030457,222.113770L75.296509,225.380066L77.214050,228.311829L79.699219,230.780701L82.643433,232.679077L85.917969,233.923828L90.102112,235.030273L95.834045,235.565430L101.363953,234.528259L106.238831,231.719360L107.000244,231.089111L111.372131,225.535339L112.247559,223.743225L114.238831,216.574524L114.707275,210.020264L114.401794,204.896912L113.562439,200.711853L110.984070,195.064392L106.894104,190.414551L105.061462,188.981812L97.388000,185.636841L94.498901,185.174622L87.522522,185.533142L84.134644,186.439270L76.862549,190.200745L70.168640,195.784729L63.867126,203.105103L60.915405,207.779785L57.762085,215.500000L56.473755,221.342346L56.581848,229.318176L58.008240,235.269653L61.095947,240.925354L68.333069,247.358948L74.653748,250.294495L82.675354,251.903809L88.663208,252.117432L93.872437,251.586914L99.348694,250.380981L104.262756,248.770874L113.033875,244.581543L121.027222,239.039307L125.683411,234.694275L128.796570,231.031982L131.854248,226.272949L133.963379,221.611206L135.413330,215.213806L135.301086,208.672180L133.814453,202.963257L130.589478,197.163818L127.030640,193.215698L123.515564,190.388672L118.119995,187.515808L112.770996,185.952576L107.477722,185.380005L102.492798,185.555664L97.716125,186.265015L92.970398,187.536133L87.696472,189.732910L82.959717,192.471252L78.343872,196.057373L74.583252,199.825989L71.459473,203.857727L68.744568,208.625488L66.922913,213.369324L65.841553,219.142029L65.779297,224.210815L66.616638,229.240906L68.869568,234.796143L72.673157,239.949463L76.611816,243.393616L84.000244,247.150330L93.733215,248.933960L99.270264,248.770325L103.384094,248.052917L108.230713,246.462708L113.225647,243.774841L117.727600,240.109131L121.316772,235.783936L123.855774,231.238220L126.274902,223.490784L126.326111,215.063354L125.180725,210.541992L123.482056,206.099731L120.715210,201.549255L116.690674,197.215942L112.694031,194.174072L107.798706,191.543091L98.690552,189.188782L92.014954,188.971863L86.509338,189.795715L77.600281,193.234680L71.743042,197.043213L67.557861,201.068115L63.976624,206.106812L61.648010,210.875122L60.005188,216.457825L59.428650,225.074585L60.329834,231.353699L62.321289,236.722168L67.187134,243.884399L74.836426,250.091919L80.357605,252.678406L90.124451,254.272644L96.226379,254.019104L102.341553,252.479004L108.002380,249.768066L112.883240,246.240723L117.134705,242.046997L120.560669,237.876282L124.003967,232.563965L126.604248,227.538452L128.839050,221.824341L130.329285,216.124023L131.057434,210.176514L130.811890,204.021667L128.865662,196.753296L125.380493,190.547729L121.476074,186.222717L116.021240,182.304688L110.838257,179.879761L104.618164,178.264587L99.157837,177.723816L92.105957,178.225769L86.316956,179.475403L80.326782,181.582764L74.710999,184.346375L69.128662,188.099243L64.329590,192.385437L60.030090,197.663757L56.551819,204.070251L54.556702,209.996826L53.594971,216.727783L53.945190,223.536255L55.545654,229.909302L58.002563,235.314331L61.492126,240.466187L65.622742,244.904114L69.909424,248.531067L79.510803,254.289490L90.007935,258.316284L96.466614,259.793274L102.206482,260.452148L108.567505,260.389648L115.162476,259.365906L121.245911,257.494446L127.259033,254.716797L132.633972,251.405396L137.580139,247.431702L142.053284,242.725891L145.790283,237.433777L148.511475,231.989624L150.344666,225.586121L150.778503,218.622803L149.403076,211.180115L146.424683,204.534302L142.615601,199.046204L138.552307,194.629517L133.814392,190.610596L128.841431,187.236633L122.990234,184.161438L117.684326,182.038208L111.367371,180.322998L100.314880,178.956604L87.641235,179.571655L80.862671,180.779175L70.010742,184.331177L63.711304,187.509460L58.636780,191.104004L54.303650,195.284729L50.509033,200.602356L47.930237,206.311279L46.558289,212.602722L46.661072,219.455994L47.866394,224.928833L50.699097,231.061951L54.640137,236.246216L59.108398,240.333801L64.295471,243.779541L74.102539,248.004639L85.032898,250.461487L91.697754,250.919250L97.691772,250.583069L103.756531,249.531616L109.740967,247.657593L115.249023,245.138428L120.508972,241.984680L125.087646,238.548645L129.741943,234.137390L133.629761,229.434753L137.070312,223.944031L139.575562,218.579590L141.446472,212.491699L142.358948,206.222107L142.071350,199.543945L140.090942,192.318481L137.203979,186.582581L132.850708,181.081909L127.852356,176.729065L122.035645,173.182251L115.956543,170.632751L109.293457,168.975098L102.528687,168.284424L95.644836,168.526367L88.773743,169.734070L82.181274,171.827637L75.983643,174.713440L70.188660,178.530334L64.924255,183.335876L60.301758,189.318420L57.073730,195.389343L54.992981,201.465454L53.874390,208.132690L53.766968,214.203674L54.569824,220.352600L56.267517,226.143005L58.979553,231.677002L62.753784,236.757996L66.246643,240.256226L71.351379,243.909668L75.938843,246.282104L81.216980,248.162354L86.677307,249.291504L91.548889,249.665894L97.066284,249.319885L102.375061,248.185242L108.647583,245.547974L113.580444,242.496521L120.949585,236.123901L124.632324,232.135986L128.082275,227.423279L130.663269,222.984863L132.796265,218.056091L134.255127,212.604065L134.848267,207.748962L134.591125,201.918213L133.559570,196.875488L131.527344,191.492737L128.946167,186.817200L123.162415,179.668030L116.647522,173.843811L112.948242,171.210327L107.105225,168.043762L103.403625,166.533936L98.815796,165.473999L92.400757,165.659912L87.829712,167.135254L83.865112,169.846741L83.110474,170.540833L78.319519,178.351807L78.023621,179.407654L77.943298,188.154907L78.234558,189.272583L81.887268,196.136597L82.635071,196.983765L89.019409,201.470764L89.949524,201.839783L96.466125,203.045776L102.601013,202.132996L104.010315,201.644226L110.753906,197.478455L114.411743,193.667969L118.179016,188.080139L122.791321,176.085876L123.679749,171.498718L123.267029,166.844727L122.437988,163.276855L121.096497,159.324768L120.531006,156.510559L120.630615,153.123657L120.596191,151.334595L119.458740,145.605042L117.922974,142.342102L115.724487,139.483276L112.965271,137.161072L109.773132,135.483032L106.295776,134.526917L102.694458,134.336975L99.135803,134.921936L95.784851,136.254822L92.796631,138.273804L90.309631,140.885559L90.074402,141.192932L87.181335,147.053223L86.226379,154.058838L86.745239,161.923950L91.222168,173.240784L94.766663,178.001953L98.207581,180.873718L102.354370,183.079956L107.243958,184.278198L112.268677,183.970032L116.975159,182.183228L117.661743,181.795959L121.658630,178.656250L124.530396,174.462708L126.012756,169.601013L126.267090,167.843079L126.112427,161.097961L125.839966,157.731262L124.313171,151.560425L122.356567,147.497620L119.387451,144.103699L115.620789,141.624390L111.329468,140.239258L119.508240,145.063660L123.873657,155.907166L126.995789,142.223877L126.097595,123.313110L125.862732,118.362427L124.562805,112.470154L122.444702,108.117065L121.386353,106.735229L121.366821,103.895386L115.678162,89.269226L108.688782,79.393066L103.334351,74.502075L98.076172,71.396179L90.599487,69.427307L84.694702,69.281494L77.346802,70.778381L75.156189,71.774109L67.926025,77.522278L62.100891,86.997986L60.299561,91.870239L59.528137,98.417969L60.134949,103.291504L60.122925,104.144653L59.487183,111.395752L59.770081,117.568176L60.934753,124.295471L63.292053,131.731384L64.498779,136.458435L66.854553,142.440674L69.548035,147.240906L75.403564,153.520752L83.705933,157.920471L87.796814,158.946228L92.014160,158.917969L96.091003,157.837708L98.817505,156.732178L103.528442,153.917908L105.020569,152.897339L111.178162,146.080200L113.978577,139.917969L114.703491,136.723999L115.103394,126.943909L114.329407,120.316223L112.111267,112.210266L108.185059,104.134094L104.882996,99.015564L99.115845,93.305725L94.655396,90.651550L89.596741,89.489685L87.384949,89.333984L82.156799,89.789978L77.326050,91.840576L76.565247,92.316162L71.525757,97.199341L70.911926,98.115601L68.264404,103.443909L66.028931,114.298828L65.630981,121.447388L65.541321,127.741394L67.455994,139.825867L70.850281,149.916809L73.769592,156.254578L76.214844,160.345398L78.742126,163.443787L81.931458,165.855286L85.601257,167.442505L89.542664,168.115051L93.531189,167.834717L94.548035,167.639526L98.298340,166.448853L101.667542,164.416443L104.469971,161.654358L106.551025,158.315002L107.014160,157.330200L108.558777,152.830688L109.702271,148.469910L110.319519,146.552124L111.192688,142.618225L110.950867,135.260742L110.630798,134.029480L107.036926,127.226013L106.298889,126.380432L102.724487,123.296814L98.431946,121.332458L97.622681,121.092957L93.639404,120.421448L89.611145,120.722656L85.771973,121.979065L82.345093,124.117859L80.342041,125.733582L77.009094,129.349060L74.869141,133.776428L74.247314,135.765625L73.148193,145.203308L73.566467,154.736328L74.080566,157.164307L73.553040,156.802307L70.207275,166.542114L87.334473,172.559448L90.468933,181.634521L87.388428,181.218140L82.699402,184.850891L85.591919,184.639282L89.145020,183.985352L92.475525,182.585144L95.428406,180.503479L97.866455,177.837280L99.676392,174.710571L100.773987,171.268433L100.845459,170.917175L101.173889,167.065247L100.610840,163.240723L99.186401,159.646790L96.976135,156.475037L94.098022,153.894165L92.963257,153.092041L89.202393,151.068298L84.477844,149.678894L78.119202,148.189758L70.460693,146.462585L65.667908,146.088989L60.966248,147.091492L56.742798,149.387695L51.124695,154.068115L68.207764,156.377197L74.299438,171.039429L73.021423,172.883484L75.622375,172.020569L78.549316,169.095276L80.670166,165.541992L81.855530,161.577271L82.033142,157.442932L81.938477,156.274414L48.534424,158.981140L49.992126,152.050659L48.688416,150.514832L44.937927,154.594727L42.723206,159.674744L41.413574,164.912964L40.912476,169.375793L41.321289,173.084045L42.540405,176.609863L44.509399,179.778687L47.130737,182.433228L50.274414,184.442078L53.784668,185.705566L57.487427,186.161011L61.199219,185.785950L61.595642,185.700500L68.098328,182.741211L70.270020,179.197449L70.545227,180.836121L76.888306,182.321838L77.177368,182.308960L75.031494,181.355103L68.847168,173.751648L73.278503,155.353088L80.674561,151.398865L75.646240,151.679871L71.409424,152.472351L67.514954,154.319397L64.220520,157.098755L61.744019,160.626526L60.249390,164.669250L57.395813,177.128052L57.364990,184.905457L58.478516,189.053284L60.609680,192.781982L63.618713,195.846375L67.307800,198.045288L67.604431,198.173828L71.086426,199.251160L74.718933,199.550049L78.330200,199.056458L81.749268,197.793640L84.814453,195.821472L87.380676,193.233154L100.117676,177.227051L103.732239,172.070190L105.827087,167.903076L106.692139,163.320007L107.061462,155.458801L106.623779,146.431335L106.711670,143.848022L104.716309,148.203003L96.120361,153.597961L84.625488,151.502991L79.596375,146.072021L77.985352,140.027161L78.111450,137.343811L77.640320,138.723511L76.382874,143.461975L76.204895,144.198853L81.107544,137.950562L97.022583,135.998779L103.580811,140.976562L102.092285,137.816345L100.106689,132.391785L98.992676,126.533386L99.122375,122.639648L99.287598,118.332397L99.646118,114.979797L99.494690,115.556152L97.108398,118.559143L90.260254,122.309021L82.185120,121.758667L78.452881,119.475098L79.007446,120.601746L80.550049,123.356018L81.363892,126.221313L81.632385,128.180115L81.707336,131.170776L82.382019,129.276367L83.873962,127.054016L84.400085,126.400391L84.393372,126.549683L89.682434,125.552551L95.413696,126.807251L96.886963,128.019836L97.176941,128.210876L96.582458,126.859009L95.574768,122.754395L93.621887,116.998108L93.074951,113.928650L92.941772,112.800781L93.570618,106.030090L93.538696,100.982788L92.975586,97.451111L92.877747,99.407532L92.401917,101.224548L93.349915,99.220032L91.675049,100.773865L87.625977,102.452698L85.918579,102.383362L83.782593,101.680664L83.430908,101.320312L85.999329,104.716614L88.547485,110.159912L88.715576,113.511597L90.553650,119.488403L92.986267,124.093018L93.368530,124.591248L92.647644,122.212769L92.640564,125.233032L93.877686,137.719116L90.741821,151.654846L90.653931,158.471375L91.682861,162.617310L93.726685,166.368347L96.652466,169.480713L100.270142,171.752136L104.344604,173.035095L97.362366,169.363403L92.706299,162.369385L92.715454,163.889526L92.932068,165.002625L95.602966,157.733398L107.716309,150.863098L116.177673,152.653625L118.087952,153.988403L119.892456,156.047729L119.498474,155.533752L119.685547,155.226440L119.665894,155.091675L118.284302,159.038635L100.939331,167.609619L87.350952,154.686523L87.117920,153.164429L87.086914,157.928711L88.460327,166.834778L90.033447,171.774719L90.210449,169.776001L88.942566,171.816406L88.296753,172.699951L88.628967,172.351685L90.408081,171.149780L94.644043,169.727051L99.588806,169.868103L104.833130,172.185181L109.242554,177.175476L110.914734,184.083435L108.738464,191.635071L102.588684,197.224060L96.233032,198.775146L93.325439,198.454407L92.586853,198.231201L94.955444,199.467407L95.608704,199.914307L98.618347,202.451111L100.846436,205.018860L101.140198,205.586792L101.341309,205.993896L101.374878,206.215637L101.406250,206.212097L101.363892,206.269226L101.270691,206.765869L100.915710,207.585022L100.194580,208.858215L98.978333,210.592407L97.841431,211.868713L94.193054,215.190735L93.163452,215.846191L92.588074,216.177124L92.658020,216.122009L92.015076,216.177185L91.476257,216.139893L90.443237,215.964661L89.513489,215.662598L88.741333,215.280151L88.158081,214.943604L88.009155,214.753540L87.609375,214.326355L87.537720,214.178894L87.386414,213.688721L87.218933,212.604370L87.210388,211.364197L87.382080,209.961304L87.712402,208.906250L88.307068,207.673279L89.259460,206.328979L90.483887,205.167419L91.881348,204.187317L93.986572,203.175049L96.405640,202.348572L98.756592,201.875000L101.009521,201.743530L103.304932,201.930420L105.031860,202.287720L106.646484,202.930359L107.875488,203.600586L108.682068,204.257263L108.921997,204.475342L108.902039,204.483826L109.010315,204.689941L108.949219,204.247314L108.843994,204.845337L108.469971,206.165955L107.785034,207.680359L106.690552,209.529724L105.534607,210.984192L103.795959,212.686157L102.100891,213.992859L99.914307,215.352539L97.969177,216.295532L96.283508,216.882568L94.263123,217.259705L92.037537,217.420349L90.210754,217.376282L85.153259,216.405212L80.710083,214.596375L79.889709,214.072266L79.220825,213.503052L79.254211,213.608887L79.560364,214.201294L79.862061,215.171997L79.868408,215.731262L79.726379,216.740417L79.548767,217.248718L79.513062,217.305420L79.764526,217.083923L80.869080,216.274048L82.205750,215.513367L88.470337,213.398682L91.016113,212.898132L98.171265,212.368408L104.299805,213.062195L106.642944,213.665222L108.662903,214.446106L111.245789,215.743347L113.318665,217.112488L115.127991,218.576172L116.380432,219.872742L117.337891,221.126343L117.548523,221.425476L117.399963,220.720337L117.369141,219.909912L117.423401,219.588806L117.184448,220.021667L116.406616,221.189453L115.181641,222.528625L113.655029,223.804504L111.715271,225.042053L109.518677,226.117737L107.932373,226.663879L106.212219,226.981995L104.447693,227.032349L102.261169,226.794617L100.128174,226.390320L94.835266,224.521423L90.027039,221.763733L88.800659,220.713379L87.786011,219.724854L87.237122,218.984070L87.123901,218.780334L87.054016,218.612671L87.029114,218.349487L87.071655,217.958923L87.228088,217.493591L87.659119,216.562012L88.246460,215.819214L89.417419,214.749023L91.090210,213.560974L92.988586,212.596802L95.122437,211.795044L96.789734,211.393433L98.318665,211.193604L98.845093,211.256897L99.381958,211.334717L99.316406,211.324280L99.232422,211.224060L98.579773,210.602356L98.004883,209.633179L97.708496,208.821533L97.618774,208.494141L97.500427,209.487305L97.107300,211.090820L96.267212,213.326050L95.154541,215.526123L93.808777,217.714600L92.427490,219.415833L91.309753,220.622253L90.801025,221.039307L90.841858,221.043213L91.260132,220.919373L91.943909,220.851868L90.229065,220.725281L91.991699,221.367676L91.948242,221.457520L92.147461,221.582458L92.632385,222.567749L92.857361,223.792114L92.906372,222.573059L92.794128,223.151733L92.877747,223.030640L92.876465,222.964050L92.779663,223.091980L92.712769,223.088867L94.586182,222.266724L94.247437,222.383850L94.140686,222.342224L95.100159,222.478149L94.511292,222.295288L94.470459,222.272888L94.152893,221.912170L93.493408,220.976501L93.087708,220.096558L93.325989,219.076538L93.192383,217.820740L93.501343,217.143982L94.010315,216.490784L94.542786,215.999268L95.024780,215.699402L95.461548,215.517029L95.484985,215.484863L95.697510,215.516418L94.831421,215.533508L95.397339,215.722717L96.767517,216.710144L97.737427,217.905396L98.716003,219.821472L99.143555,221.489075L99.186279,222.199219L99.125793,222.510681L98.976685,223.026184L99.194336,222.630371L99.573547,222.130127L100.390076,221.278015L101.432800,220.409851L102.351440,219.852966L103.533386,219.322083L104.211243,219.126953L105.514587,218.922424L106.293152,218.853577L106.552490,218.857910L105.893433,218.675781L104.950195,218.229248L104.322815,217.837219L103.889771,217.355042L102.972656,215.879089L102.255127,213.910706L102.106628,212.169189L102.292297,210.824341L102.491150,210.169983L102.106567,210.799866L101.507141,211.502197L100.265259,212.760803L96.903870,215.240356L92.342285,217.467163L90.765991,217.995239L88.787842,218.474121L87.520447,218.638733L86.761658,218.670227L84.560791,218.314758L85.819946,218.860596L86.926819,219.780518L88.914856,222.515747L89.734070,224.891907L89.751160,224.811462L89.628174,225.743408L90.557861,223.355347L90.640381,223.218994L93.117798,220.163696L96.163513,217.576904L95.319580,217.917297L92.711853,218.455750L88.045105,217.544067L83.991577,214.683044L81.867676,211.342224L81.188477,209.147034L81.211609,209.718384L81.164124,211.328308L81.313110,211.032959L83.148926,207.815979L89.744507,203.093445L96.407410,202.195984z" fill="#69984D" stroke="none" fill-opacity="1" />
				<path d="M59.118408,179.666199L68.728455,147.560059L68.727234,147.559692L59.024414,146.665955L50.239868,148.783264L43.560547,152.530945L39.355774,154.434814L35.276672,156.989014L31.726624,160.202454L28.127014,164.766357L24.313232,172.179138L22.160339,178.153320L17.798950,189.202271L16.796143,191.897217L15.215820,198.932739L14.834290,205.134155L15.442505,211.633728L14.961670,216.145996L14.405640,223.834961L14.763184,232.193115L18.003296,242.167114L21.859131,248.269043L25.383484,252.195251L30.128906,256.127686L40.152710,263.105408L49.580017,269.597717L53.820435,272.064880L60.135193,274.928955L65.062195,276.413147L73.264954,277.731262L80.161255,279.727234L95.480896,280.422363L98.566711,280.930054L107.483398,281.659607L110.789062,282.146851L121.680115,282.311707L129.671997,281.075989L134.935242,279.488403L139.096863,277.716309L145.363281,273.759460L153.134033,266.806580L157.317871,262.466309L163.328125,255.117493L165.534058,251.552368L166.786072,247.551331L167.005798,243.364746L166.476746,245.273132L166.207336,247.183044L168.541260,239.313538L169.754578,234.700562L170.113525,224.614319L170.274048,221.463074L170.956970,206.082581L170.121033,200.062927L167.193115,194.737366L165.886230,193.312439L166.376648,194.091797L161.176819,180.932617L157.230408,174.712158L153.601013,170.705261L147.746338,165.911133L142.723450,163.039185L136.857117,161.073242L128.240234,160.609009L113.515930,164.422852L103.317749,166.063660L98.263611,167.305359L94.416992,168.773865L90.349304,171.139160L84.246216,177.067139L80.147827,184.707703L78.725098,193.097534L80.201599,202.026123L83.176758,208.498230L87.603699,215.214172L94.444824,223.430481L99.730530,228.763855L105.627136,233.687134L112.850708,238.407715L118.971313,241.031921L123.352356,242.005493L129.384277,241.936646L136.282288,240.067932L143.173645,235.815002L146.492249,232.649658L148.637085,230.075867L151.150940,226.082397L153.794800,219.157288L154.849304,211.458069L153.719055,203.243042L149.613525,194.876099L145.847839,190.504761L142.044922,187.406006L138.095764,185.015625L130.954651,182.450684L124.665161,181.644592L119.966187,181.964417L115.443115,183.014771L110.302917,185.279480L103.624207,190.372070L98.188843,197.263428L95.772339,202.177856L94.124939,207.792908L93.547363,213.637207L94.244385,218.959351L97.923950,226.601746L99.102356,227.988037L106.305481,232.940613L108.130859,233.583191L115.301453,234.456543L117.431946,234.251282L127.145630,230.637390L130.627441,228.454163L135.085571,224.677368L138.095093,221.316040L140.491150,217.744995L143.241455,211.772766L144.838684,204.878418L144.916260,199.487427L144.140076,195.248718L142.007507,190.040955L138.859558,185.633484L132.440735,180.603088L128.231323,178.552612L119.872620,176.967773L113.539307,177.372437L108.261780,178.986023L100.497375,184.054199L96.202515,188.744263L92.623108,195.611206L91.218811,200.092896L90.437134,206.459961L91.539062,214.961548L94.320557,221.179626L95.928772,223.407288L99.475159,227.081787L104.051392,230.001648L111.278809,232.131470L121.441895,232.130127L128.048706,230.994080L136.130615,228.521362L140.589539,226.578491L144.897766,223.687195L147.550842,220.871033L149.487427,217.521484L150.604126,213.817017L150.841431,209.955261L150.186707,206.141968L148.674866,202.580566L146.386475,199.460815L146.070190,199.120239L141.638794,195.718201L136.335388,193.961914L135.443115,193.825012L126.930847,194.496948L119.485718,197.321838L113.407715,200.864929L109.582520,203.842407L106.363464,207.201416L103.829590,210.664185L100.873779,216.827759L99.340698,224.465454L100.050110,232.153198L102.825378,238.828796L106.405212,243.432922L111.580017,247.282654L115.815002,249.078674L121.739380,250.261536L127.073425,250.142273L134.043335,248.236389L140.864441,243.841553L145.801941,237.538147L148.372864,230.664185L148.855896,224.788879L147.274353,219.110046L146.794434,218.112488L144.178833,214.200317L140.578613,211.169800L139.230164,210.326538L131.689148,207.831421L129.151672,207.627441L122.036072,208.189697L112.492188,211.141907L105.947937,214.638184L102.392029,217.310547L98.122925,221.783875L95.228394,226.107788L92.950500,232.119080L92.281006,239.195679L93.667114,245.248047L97.132263,251.295593L100.579285,254.586853L107.101868,257.978516L114.675415,259.580627L121.276794,259.731995L131.946838,258.928406L138.916138,257.463562L144.273499,255.270386L148.706177,252.054932L151.865479,247.582092L152.634155,245.994080L154.300415,239.208923L154.326111,238.375854L153.269531,231.982666L152.615173,230.235535L148.488831,223.750732L141.117065,218.056396L132.692627,215.003845L127.331787,214.233826L119.663635,214.425049L111.613953,215.857056L103.220764,218.949768L96.348328,222.776978L90.504578,227.346558L85.724548,232.632874L83.142212,236.636658L81.678955,239.905090L80.352417,245.680176L80.725098,252.716797L81.324829,254.928589L84.169312,260.699707L84.831787,261.569092L88.461487,265.107971L94.718262,268.394653L102.736328,269.864197L108.812500,269.633728L114.362915,268.667603L119.665649,267.023193L123.934448,265.100281L129.086548,261.398499L133.292358,255.829712L134.109802,254.080139L135.623047,245.545898L135.494446,244.055786L133.485107,237.426514L133.039246,236.615234L127.917419,230.925842L125.938904,229.550781L120.022644,226.881348L112.304810,225.915771L105.497437,226.401978L101.200745,227.240295L98.207153,228.070251L92.222961,230.439148L88.842224,232.186279L83.644714,235.954224L79.411621,240.378052L75.952515,246.852722L74.889832,252.031189L75.595093,259.627014L76.154358,261.302307L79.625183,267.275879L85.777466,271.986450L87.995911,272.977478L95.276794,274.723633L101.989319,274.801697L109.051697,273.596558L114.244934,272.083740L118.669739,270.382019L123.322876,267.792419L127.791504,263.745239L131.014282,257.967163L132.094238,252.998474L131.634094,247.934631L131.388184,246.942139L128.553406,240.951477L127.904724,240.082214L122.222778,235.245483L119.910828,234.039795L113.668640,231.976135L108.014709,231.021973L102.190125,230.627686L95.238403,231.056030L87.900574,232.780884L81.486267,235.707275L77.474548,238.490417L72.847229,243.590454L69.428589,250.607483L68.470032,257.660767L69.428101,263.258728L72.531128,269.622070L73.135193,270.389893L78.878479,275.218262L85.853943,278.050964L93.610291,279.117004L106.385437,279.313965L112.414368,278.271851L116.294434,276.433105L119.579834,273.668701L122.054871,270.160095L123.557007,266.137695L123.674133,265.635010L124.094299,261.075684L123.264648,256.572754L121.247070,252.462524L118.192261,249.051880L117.738464,248.667053L112.928284,245.812073L107.446472,244.699402L106.165405,244.657654L90.838562,247.521545L89.704346,247.676270L90.160034,247.683655L86.214355,246.649963L81.085266,245.893494L81.505920,246.018250L79.174194,244.700195L72.075500,241.739380L72.508911,242.013733L68.408081,238.404602L65.294434,236.234497L61.425476,234.466919L57.236145,233.730408L52.996399,234.072571L52.532288,234.170349L49.059143,235.310059L45.915771,237.175720L43.251770,239.678589L41.193848,242.699524L39.839966,246.094849L39.254517,249.703003L39.465332,253.352234L40.462524,256.868896L42.198486,260.085754L42.863342,261.048889L48.091187,266.845703L53.443298,271.579956L57.573181,274.694397L63.820068,279.023193L67.466553,281.092285L73.959900,283.397400L83.855469,284.995361L89.339355,285.426575L97.786560,285.339783L104.479736,284.226379L118.835571,278.770142L122.871704,276.735413L127.676514,273.221802L132.210693,267.693970L134.144653,263.529907L134.875793,258.997131L134.349365,254.436218L134.182373,253.788635L132.695618,250.001221L130.339905,246.683777L127.254089,244.031982L123.620056,242.201904L122.432312,241.775452L116.879700,240.789612L111.314453,241.701721L109.538330,242.313110L105.643982,244.217224L100.566772,248.798157L98.128052,252.801758L96.893738,257.324280L96.802612,258.043640L96.907532,262.965088L98.438049,267.643677L101.262024,271.675659L102.235779,272.703491L106.416504,275.911316L111.386719,277.662354L120.594666,279.345703L124.710632,279.459839L115.889038,274.523743L111.845398,260.669922L117.369202,251.272583L120.622559,249.289551L119.943115,249.334045L110.262146,249.946228L99.936157,251.271667L98.033325,251.490173L96.437500,251.180481L88.106750,249.308167L79.098267,248.355896L71.029419,247.132324L63.752441,246.624451L64.906677,246.943115L62.535583,245.685120L60.523621,244.473511L60.196594,244.045044L57.068604,239.678345L57.340210,240.740417L57.750183,243.531494L57.205811,246.315491L61.048767,239.732483L63.300232,234.702515L62.808960,234.104370L47.028503,241.414429L39.169922,239.579956L43.186646,243.820618L46.390808,246.432739L51.036133,249.461548L54.437561,251.279114L59.257202,253.527588L62.935669,254.880920L68.745728,256.346863L72.692932,256.882874L78.683411,256.582703L84.525024,254.921021L91.323914,250.070862L96.113708,242.955200L97.874756,237.622620L98.627808,232.241394L98.465393,225.325195L97.044189,218.101929L95.784851,214.203613L93.700256,209.831360L91.284119,206.062378L85.934448,200.222290L78.562927,195.060181L73.658508,192.845947L68.950073,191.627319L64.100586,191.184143L59.467163,191.528442L53.836304,193.115967L49.205078,195.514526L45.065918,198.675659L41.641846,202.243530L38.828674,206.162292L36.583801,210.277832L33.900818,217.094971L32.685608,222.230957L32.768250,230.799255L34.628235,237.316284L36.469482,240.838806L42.955811,248.188904L49.837219,252.536072L56.982727,254.867126L65.306702,255.154236L73.839172,252.685303L80.934326,247.961243L86.258179,242.195679L90.229370,236.021667L92.155518,232.032593L94.521606,224.161804L95.335876,219.211853L95.484619,214.305542L94.893311,209.101868L93.596863,204.276367L91.547180,199.619446L89.112793,195.704102L85.914001,191.890564L81.992554,188.443054L75.300964,184.599060L69.544128,182.688965L64.575134,182.078430L59.705627,182.353149L53.837219,184.047119L49.122314,186.767639L44.835388,190.775574L41.933350,194.935303L40.075928,198.737976L38.542542,203.819275L37.868591,210.832947L39.117981,219.043823L41.526367,224.725891L46.688049,230.973022L54.443237,235.851501L61.836121,237.834045L66.233093,238.122314L71.184570,237.489258L76.013794,235.808655L79.498962,233.869019L84.385254,229.801453L89.020386,223.646667L92.618958,214.873291L93.913879,207.078003L93.584534,200.465210L91.636597,193.558411L89.121155,188.781311L86.756531,185.704834L82.878662,182.144775L76.806641,178.592407L71.490173,176.738586L65.854736,176.075012L60.351501,176.628357L51.973022,179.909851L45.384338,184.531006L40.414124,189.568298L36.530579,195.348206L34.031311,201.851135L33.329102,208.230042L35.052246,215.546143L37.920166,220.487915L42.281677,224.178833L43.336548,224.798340L48.850647,226.862610L55.571350,227.076172L60.856140,225.674133L66.407593,222.784058L70.780823,219.502991L76.769958,213.420593L80.609924,208.352112L84.102966,201.686584L86.028564,194.616516L85.935730,187.229004L84.744507,182.734436L81.171448,176.933899L80.539612,176.264832L77.031677,173.433472L72.895996,171.639709L68.431763,171.013367L67.852661,171.010803L64.011169,171.439392L60.370056,172.736877L57.123108,174.834167L54.443115,177.619568L53.975708,178.233765L50.641724,186.664307L50.401489,188.996826L50.283569,191.590210L50.881104,197.065430L52.423889,202.042114L56.141602,207.938782L61.843445,212.463867L63.835938,213.430908L70.623474,215.203796L75.904480,215.287354L82.227966,214.228271L87.648438,212.290771L91.987732,209.996460L97.387695,205.387939L101.365356,198.099060L101.568481,197.300781L101.701965,191.888184L102.579895,190.169678L103.578430,184.837585L104.326355,175.370239L104.473938,168.970337L103.207031,162.247070L102.849121,161.380737L102.391724,168.614319L77.859497,179.935974L79.165405,152.329529L99.637817,157.430542L101.660767,160.899109L101.429810,160.135315L69.369629,169.897705L69.668274,170.878601L70.274109,172.709656L72.693848,177.360046L76.432190,181.035095L76.566833,181.131165L79.653687,182.873535L83.038025,183.927490L86.568359,184.245972L90.086670,183.814819L93.435547,182.653198L96.465210,180.813110L99.039978,178.376831L101.044678,175.453613L102.389648,172.174011L103.014709,168.684937L103.153809,166.736023L103.009216,163.044678L102.059265,159.474792L100.350159,156.199768L97.965027,153.378784L95.019714,151.148987L91.657410,149.618774L88.041504,148.862427L84.347778,148.916748L80.755676,149.779175L77.439819,151.407654L76.853943,151.780762L74.098877,153.973389L71.862915,156.693420L70.244690,159.820618L69.315613,163.216858L69.116821,166.732239L69.656982,170.211670L70.912292,173.501404L72.827332,176.456177L72.956177,176.338806L71.253296,171.749268L70.874695,173.382507L70.378357,180.317993L70.202515,181.593445L68.971741,185.534607L68.362854,192.260742L68.611389,192.025635L70.416870,185.940002L73.491333,182.171692L73.897644,181.743103L73.826660,181.822876L73.427124,181.898376L73.883972,181.879578L76.039795,182.327637L79.577026,184.263245L82.582336,187.665710L83.584595,189.939697L83.751770,190.893494L83.791687,191.798828L82.892883,194.543762L75.185425,202.797974L61.689148,203.143066L54.721436,197.227478L53.020874,193.256165L52.829041,190.885498L53.086121,189.176392L52.623962,189.975037L51.682922,191.226379L49.072388,193.999329L48.262146,194.628418L48.415894,194.606018L49.941833,194.086365L53.611450,193.815186L58.040894,194.788818L63.613953,198.970703L66.544617,204.752014L66.656799,209.041077L66.226013,210.749634L66.097900,211.026184L67.012268,210.096436L67.920532,209.328125L68.230835,209.122986L66.148499,209.538940L64.477356,209.457703L62.909790,209.035339L63.113037,209.157593L62.083618,208.325806L61.360901,207.524475L60.743774,206.416931L60.571777,205.892456L60.490173,205.350769L60.505005,205.503052L59.884888,207.194275L60.327148,206.573792L60.552490,206.266541L61.678955,205.542358L62.912903,205.058472L64.771118,204.685120L66.460571,204.673157L67.007629,204.865173L68.512451,205.705078L69.834351,206.941833L71.093750,209.242859L71.290833,210.212646L71.380432,210.322998L71.208679,211.054016L71.029541,211.530457L70.612671,212.134521L69.472656,213.320923L67.878052,214.424133L65.630432,215.262451L63.807251,215.549622L62.784790,215.478882L61.662109,215.151978L62.301453,215.508484L61.882263,215.210449L61.977844,215.338684L61.945740,215.289185L62.012695,215.412354L61.988159,215.329529L62.017029,215.533264L62.006165,215.884338L61.940308,216.394531L61.097839,219.506042L61.045593,219.577026L59.827820,221.631897L58.969543,222.707947L59.179810,222.639465L60.774658,222.063782L62.603577,221.921814L63.914673,222.197632L64.179504,222.338318L64.649902,222.922607L65.592041,224.955139L65.892700,226.203674L65.733093,227.473083L66.783081,224.775513L67.197021,223.981445L67.397461,223.654663L67.459290,223.579224L67.338562,223.664795L66.700867,224.024475L65.392822,224.458801L64.099609,224.670471L63.308777,224.631287L62.868164,224.548523L62.195801,224.260864L63.462158,225.005859L64.459778,226.097107L64.415100,226.095703L64.615601,226.464844L64.607605,226.471985L65.157837,228.787048L65.238647,229.794312L65.074829,230.810730L65.477661,229.518005L66.586975,227.651428L69.148865,225.293579L72.865479,223.664856L74.144287,223.440857L75.373413,223.516846L73.004089,222.925232L72.549011,222.775269L69.370605,221.277893L68.334839,220.768738L66.171936,219.389465L65.911926,219.210632L65.308105,218.647034L62.562683,214.836304L59.911987,212.000244L56.679749,209.850281L53.039551,208.501709L49.186768,208.026978L45.328125,208.451538L41.670654,209.752563L38.410767,211.860352L37.991028,212.206787L34.507202,216.155273L32.420715,220.990051L32.038025,222.697449L31.343262,224.239258L26.877625,232.259033L24.654480,239.100891L24.781982,248.008423L26.764832,254.082336L28.277954,256.804199L33.746887,264.590332L37.816101,269.049194L45.028320,274.247864L51.210938,277.489258L56.177734,279.226013L66.651672,280.352905L74.591431,281.561401L81.866394,282.217896L89.774963,284.018616L95.057068,284.824402L102.771118,284.661255L113.000732,283.343384L123.042480,282.691772L128.175781,281.890625L134.261902,279.811768L138.416626,277.352478L141.697754,273.810791L142.135010,273.175232L144.230164,268.966797L145.073792,264.341919L144.599548,259.664673L144.471558,259.145874L142.958801,255.218872L140.515320,251.792542L137.295288,249.083191L133.501709,247.261475L132.878052,247.053528L125.306152,246.191589L122.383728,246.446106L129.352600,254.940918L128.907043,266.061157L125.060730,271.375305L122.013428,273.372498L116.657532,274.302429L105.572754,269.261414L101.580322,255.951538L104.582397,249.077942L105.702820,247.999939L105.591370,247.998657L96.119385,251.802979L95.571228,251.938171L90.977905,251.961487L87.958923,251.738892L82.457458,251.005188L81.755676,250.821228L82.067505,250.929504L77.283264,247.591003L74.872742,245.820862L71.807556,243.180969L69.662659,240.967651L71.553955,256.773376L53.551880,266.972656L47.559998,264.612122L51.758972,268.292786L55.920898,271.074890L64.065186,274.601929L66.836182,276.120056L71.676147,278.020569L78.884644,279.340881L83.141418,280.433044L87.813477,281.095398L94.943481,280.766663L107.151062,278.092224L100.873291,277.082520L91.444580,267.091492L94.895142,251.000916L104.011047,245.994751L96.256409,245.716980L93.710693,245.506104L95.240784,246.083191L97.681641,247.726318L100.762573,251.916809L101.837158,255.131897L101.739380,258.965393L100.714844,262.013184L99.604675,263.574402L98.326599,264.643494L98.484924,264.528687L99.593689,264.249756L101.547485,264.115051L103.757263,264.253784L106.077759,264.607544L106.144104,264.536316L103.612976,262.863159L99.976807,258.140015L98.644348,250.931824L100.585571,244.378479L103.469543,240.916565L104.907532,239.861938L103.757507,240.260437L101.581055,240.936462L99.399963,241.416504L98.982300,241.456177L99.623596,241.621277L102.799011,243.382080L106.729126,247.916382L108.174561,252.771545L108.029541,256.409241L106.699585,259.593628L105.473511,261.324341L106.125732,260.869934L105.919067,261.012451L108.378540,259.988892L109.012573,259.826843L109.843811,259.617249L111.809509,259.401123L111.858093,259.313293L108.947327,258.330811L105.900208,255.896912L102.763367,250.357422L102.428955,244.061340L104.739197,238.637634L107.413696,236.025085L107.940430,235.644958L106.779541,236.041748L105.412659,236.309631L104.237488,236.408936L105.088989,236.631714L107.365540,237.532410L110.121826,239.678223L112.528015,243.135681L113.631409,247.445679L113.420105,250.503784L112.852661,252.100281L112.350464,252.927673L113.041992,252.104126L114.462463,250.940552L116.908691,249.515991L119.799866,248.319214L122.458862,247.795898L125.465698,247.676758L125.098816,247.608459L125.547607,247.641968L124.310913,246.782471L122.357361,244.397278L121.044739,240.592163L121.278320,234.696716L124.859680,228.506958L129.266174,225.426025L127.975037,225.676575L120.565247,226.232422L118.113098,226.264221L117.937622,226.337769L119.456604,226.991150L122.090759,229.013611L124.353882,232.108459L125.479553,235.159485L125.576904,239.167542L125.165222,241.064941L124.211792,242.744507L124.610840,242.367004L124.138916,242.756958L125.065796,242.161255L128.094055,241.107117L128.234741,241.081665L125.082214,240.442932L119.210022,236.554688L115.492737,227.961060L116.162720,222.092651L117.556702,219.914978L119.945618,217.965698L122.123596,217.073364L123.886292,216.856140L125.637695,217.103821L126.830811,217.466797L129.119385,218.933472L131.110291,220.966919L132.233521,223.166321L132.731262,225.694763L132.563354,227.478394L132.356201,228.167236L132.105530,228.636169L132.044739,228.683594L132.003967,228.718933L133.896423,227.555176L135.253479,226.912842L133.289856,227.140137L125.947327,225.331299L117.384094,209.837524L124.415222,197.306885L124.879639,196.971558L120.621582,198.328186L118.439636,198.771912L115.905579,199.009277L117.350281,199.325562L119.968628,200.641968L121.910828,202.323425L123.202759,204.528625L123.855652,206.746948L123.946594,207.161621L123.735413,207.992676L123.854370,207.574585L122.640564,209.120850L122.304260,209.310547L120.420532,210.128479L118.445740,210.376953L117.679871,210.273621L115.487854,209.470764L114.959839,208.999512L113.127563,206.935669L112.123169,204.951050L111.634277,203.164612L111.565369,201.371826L111.686035,200.657043L111.438477,201.095276L111.506104,200.941589L111.808777,200.601990L110.966125,201.337830L111.161804,201.200562L111.182007,201.471069L115.720520,201.143127L121.363037,203.326599L125.788696,208.479187L126.988708,212.216919L126.922729,214.348999L127.126953,213.960388L126.779602,214.663391L126.887878,214.389099L127.306030,214.098022L126.096313,214.744263L125.126099,215.052063L124.426514,215.129272L123.252625,215.002258L123.380676,215.071716L122.758423,214.788940L122.863770,214.865540L122.312988,214.230042L121.856201,213.220459L121.419800,211.624695L121.455261,210.629944L121.277954,210.979492L121.703674,210.176880L121.768494,210.036072L121.897522,209.955933L122.661194,209.553894L124.440002,208.861511L126.280701,208.674622L128.676147,208.997681L129.171265,209.194946L126.042114,207.128540L122.758301,204.428040L119.517517,201.203979L114.863037,195.740723L112.245300,191.838928L111.968384,191.532898L112.124207,192.513000L111.970215,194.856262L111.140686,196.876526L110.182495,198.042908L109.171875,198.841309L108.035583,199.332397L109.497803,198.993347L119.935547,197.300110L131.628540,193.888611L130.412842,193.856934L129.131775,193.629700L128.570496,193.349915L130.098145,194.558411L131.070984,195.642761L130.998596,195.329285L135.471558,207.038513L136.729187,209.723389L138.312317,210.615784L136.796387,219.913818L136.618835,223.698486L136.892944,228.577576L136.015991,231.246216L135.698853,233.524780L135.327759,233.847046L133.699768,238.285156L133.376099,243.001282L134.301514,239.582642L132.604675,239.840210L129.968079,242.593994L125.495605,246.799438L124.028076,247.817017L123.639099,247.948425L122.287048,248.403503L120.063171,248.874817L114.382141,248.848450L111.733154,248.421143L102.969788,247.712524L99.309692,247.149170L87.139099,247.025208L81.441284,245.246704L72.517090,243.748657L72.317444,243.738892L69.538513,242.477600L67.958313,241.582947L59.202209,235.532349L50.541626,229.553833L48.544312,227.994263L48.514038,228.003967L47.980164,227.272095L47.781067,227.263245L47.875671,225.135925L48.354309,218.986816L48.889099,213.014954L48.330017,204.915466L48.334839,203.874146L48.648682,202.223938L49.038879,201.334778L53.475769,190.084473L54.968018,185.689392L56.194885,183.018860L56.077087,183.179077L55.950928,183.340271L54.775635,184.141907L58.089844,182.723511L62.339111,179.701904L61.191956,180.145630z" fill="#69984D" stroke="none" fill-opacity="1" />
				<path d="M82.462463,66.378845L75.197937,99.095520L81.167297,100.420959L85.825867,100.787903L90.404663,99.854126L94.547485,97.692322L100.439636,93.478271L80.943787,66.218811L81.451111,67.643799z" fill="#69984D" stroke="none" fill-opacity="1" />
				<path d="M53.260376,18.355774L52.333679,18.311279L51.416138,18.448486L50.542969,18.762024L49.747681,19.239868L49.061035,19.863647L48.509216,20.609497L48.113464,21.448547L47.889038,22.348816L47.844543,23.275452L47.981689,24.193054L48.295227,25.066223L48.773071,25.861389L49.396912,26.548157L50.142700,27.100037L50.981812,27.495667L51.882019,27.720093L52.218079,26.990479L52.724670,20.032715L54.098022,17.222778L52.171936,16.789062L52.513977,22.253174L48.908997,24.316162L64.448425,26.602661L71.482422,27.139221L74.320862,27.697632L76.542419,27.838989L83.706665,27.713989L87.354309,26.822998L88.331299,26.414673L89.193054,25.799500L89.896545,25.007996L90.406372,24.080078L90.697144,23.061890L90.754333,22.004578L90.732422,21.627930L90.552368,20.581909L90.143799,19.602417L89.527222,18.738647L88.733643,18.033936L87.802979,17.523804L86.782043,17.233887L80.452209,16.184204L75.494080,16.015259L71.074585,15.388855L66.636963,15.295166L69.238586,19.483887L66.780701,24.725098L76.323181,24.742615L82.983765,24.403076L90.006958,24.654968L92.795166,25.129822L99.440125,25.100586L102.340881,25.372986L105.429932,25.209534L102.400269,21.638428L103.986938,16.206177L102.408997,17.424255L101.995972,17.913391L98.877197,24.815491L97.902161,26.260986L92.190002,33.010681L90.308167,35.673401L85.853333,43.790344L82.985840,50.324646L83.042053,52.416992L86.545166,51.498108L88.647888,52.691406L86.327881,47.991394L82.910156,43.672363L80.113098,41.113586L76.234741,38.308838L71.572266,34.186584L69.442627,32.754944L66.377258,31.296997L63.124329,28.942078L61.809570,27.703308L61.132568,27.015869L61.243713,29.382080L59.579041,31.664795L57.605225,32.237549L66.009705,34.477051L73.461365,37.723328L79.335022,41.069824L81.299133,41.675171L82.095581,41.739075L83.128906,41.708740L84.130920,41.454773L85.054016,40.989258L85.853943,40.334473L86.492676,39.521606L86.939636,38.589478L87.173462,37.582520L87.183167,36.548767L87.065857,35.380066L86.500549,33.566528L84.331238,29.635010L82.013367,26.768494L78.835205,24.379700L75.898254,23.124329L73.626404,22.730042L70.619629,23.115112L68.885681,23.848999L68.218262,24.306274L66.741699,25.735535L65.460205,27.978760L64.910217,30.325439L65.438721,35.195740L66.066223,36.917786L67.321899,38.992493L69.624207,41.568237L71.449524,42.941101L75.561096,44.544128L79.550049,44.969177L84.239380,44.498840L88.346619,43.433777L90.899231,42.171997L93.111877,40.131287L94.402100,38.040222L95.250671,34.234497L95.153687,32.337219L94.445740,29.600586L92.705811,26.417969L91.132690,24.569702L89.000610,23.213013L86.950500,22.586914L85.281250,22.389282L83.648254,22.787476L82.950928,23.096924L81.468079,24.133362L80.850037,24.772644L79.848572,26.329529L78.787170,29.027893L78.008301,33.885742L78.333435,36.938782L79.286438,39.039795L80.430481,40.477600L82.343262,41.911865L83.120789,42.229614L85.017700,42.580261L85.737488,42.564087L87.787170,42.045715L88.692749,41.582275L90.116089,40.465515L91.495544,38.870789L92.444458,37.150757L93.458984,33.812561L93.853577,29.976440L93.342651,26.739075L92.314392,24.675232L91.472839,23.692688L89.552551,22.258301L87.684937,21.620850L86.957886,21.534119L84.582336,21.862244L83.219666,22.427795L81.710327,23.429810L81.140198,23.992249L79.286743,27.318298L78.707947,30.078369L78.892700,32.877014L79.645386,34.912903L80.276001,35.864014L81.686890,37.246155L83.117249,38.152649L85.985413,39.152649L88.806030,39.316895L91.475281,38.893066L95.318665,37.205566L97.545654,35.656189L100.057800,32.808411L101.750000,29.332275L102.220032,26.163879L101.872192,24.081787L101.600403,23.421448L100.682617,21.992432L99.319458,20.979370L98.171692,20.412598L96.564453,19.948608L94.896301,20.072876L92.739319,20.628113L90.832947,21.623474L89.980652,22.356567L88.344116,24.729309L87.529053,27.886353L87.474060,29.207397L87.786743,30.492188L88.302002,31.786316L88.917236,32.881104L89.798828,33.775574L90.884583,34.406677L92.170959,34.940613L93.556458,35.282715L94.980957,35.196289L98.470398,34.445312L101.670349,33.166687L104.620239,30.952759L105.904053,29.245728L106.244873,28.476685L106.637146,26.919128L106.485840,25.320129L106.312134,24.679810L105.754272,23.404785L104.849609,22.347168L103.676453,21.598267L102.545166,21.092529L101.132751,20.708801L99.670715,20.775085L98.235657,21.066711L93.875122,23.184204L90.299622,25.981018L87.191162,29.484619L83.555359,35.649536L81.953247,40.406982L81.584656,43.258362L81.638794,44.530640L82.030273,45.742432L82.730652,46.806030L82.989441,47.102661L83.701965,47.766968L84.535522,48.271423L85.454712,48.594482L86.420532,48.722412L87.392090,48.649780L88.328247,48.379883L89.189209,47.923950L89.938660,47.301392L90.544678,46.538574L90.981689,45.667786L91.603943,44.024780L92.029358,40.201477L91.877380,38.740051L91.284424,37.395630L90.941467,36.862061L90.282166,36.049866L89.460449,35.402527L88.516663,34.951416L87.496826,34.718628L86.450806,34.715698L85.429626,34.942566L84.541199,35.246155L83.331360,35.866089L82.347534,36.804260L81.061401,38.444641L80.373962,39.651794L80.066650,41.006592L80.011475,41.732910L80.059631,42.852783L80.369751,43.929871L80.924500,44.903870L81.692749,45.720093L82.631409,46.332642L83.687866,46.707336L84.802795,46.823120L85.229919,46.816589L86.392761,46.653198L87.479492,46.208496L88.423340,45.509949L88.958984,44.999329L89.850464,43.835999L90.343201,42.455627L90.625549,40.966614L90.656494,39.385437L90.164673,37.882446L89.645325,36.894592L89.070190,36.041199L88.324219,35.332336L87.442627,34.801392L86.467102,34.473633L85.443787,34.364441L84.421143,34.479126L83.447388,34.812073L82.699097,35.162964L81.674194,35.815674L80.849365,36.707947L80.278870,37.780823L78.609131,42.249939L78.072510,43.246521L78.080139,43.785950L81.852783,43.825256L83.981018,46.406555L84.037476,47.721497L86.420044,41.713989L86.867432,38.682373L86.559692,36.368591L85.586304,34.443481L85.136047,33.906799L84.209412,33.060913L83.093262,32.488525L81.865784,32.229309L80.613403,32.301697L79.920410,32.435425L78.377808,33.026978L77.132507,34.112671L76.747498,34.590454L75.737305,36.965332L75.391113,39.844666L75.370911,40.076660L76.291992,39.043579L78.063171,38.337463L79.154846,38.396851L75.908936,36.801575L74.923645,36.460938L73.887817,36.344299L72.851501,36.457336L71.865051,36.794373L70.976318,37.339233L70.228516,38.065430L72.896301,36.753052L72.998779,35.350159L70.858215,34.308167L69.500427,33.922119L68.089172,33.953613L67.479553,34.059570L66.422607,34.373657L65.467102,34.923767L64.664734,35.679932L64.059143,36.601257L63.683167,37.637756L63.557190,38.733032L63.558411,39.245605L64.145752,41.518372L64.572571,42.293274L70.194824,48.648865L79.037903,54.583130L80.838745,55.461914L82.771301,55.888550L83.733704,55.894897L84.657593,55.809998L85.547119,55.546631L86.368225,55.114685L87.089294,54.530823L87.682556,53.817627L88.125244,53.002380L88.400452,52.116272L88.497437,51.193542L88.412659,50.269775L88.149170,49.380188L87.717285,48.559082L87.133423,47.838135L86.420166,47.244812L85.604858,46.802063L84.718872,46.526855L83.796204,46.429871L83.822632,46.534729L83.897156,46.468079L76.778381,41.821411L72.565063,37.253540L72.873047,38.050720L71.914856,41.764771L68.298462,43.310730L68.064270,43.418213L70.951843,45.369080L71.985046,45.890076L73.113892,46.144836L74.270752,46.117981L75.386475,45.811279L76.394470,45.242981L77.234375,44.446960L74.907166,45.696533L75.730957,47.194763L77.828735,47.720032L80.247192,47.465271L80.831421,47.242188L81.994202,46.598389L82.932068,45.656616L83.373962,45.066162L84.533203,42.261169L84.787476,39.412415L83.257080,41.137634L79.927612,41.408569L77.737305,39.620728L77.433472,38.633972L77.389709,38.956360L74.973083,45.124451L74.647827,47.434204L75.202332,49.738098L75.466980,50.235107L76.110474,51.158813L76.953918,51.904419L77.949646,52.429749L79.041199,52.705017L80.166931,52.714661L80.886414,52.634766L82.086731,52.338928L83.169556,51.742310L84.060913,50.885742L85.710022,48.822205L87.065247,46.489624L88.183289,42.660583L83.949097,43.583191L81.295166,40.784241L81.536438,39.311829L83.365540,37.704407L88.176697,38.847351L89.197388,43.077698L88.812317,43.582825L85.403748,43.890137L82.729065,41.168823L82.546570,41.375488L85.719543,39.333496L90.800537,42.240295L91.111877,42.744263L91.996826,39.899719L94.645874,35.299988L96.584412,33.045959L98.743225,31.289246L100.788330,30.154907L100.093872,30.116943L98.148132,28.994934L97.199341,26.198853L97.795105,24.483398L97.319580,24.789124L96.035706,25.310059L94.414001,25.856506L96.069580,26.713562L96.893372,28.275818L96.971313,28.551697L96.752991,28.912720L96.109619,29.406555L95.587952,29.363342L93.765381,28.453186L92.827942,26.663025L92.796692,26.372864L92.344177,27.362610L91.462891,28.428284L90.791077,28.904907L89.102722,29.751587L88.348694,29.872864L87.857056,29.896179L87.562195,29.825806L87.532104,29.867920L88.028687,30.656555L88.128418,30.761169L88.143127,30.588013L88.345642,30.068481L87.651306,30.741943L87.044312,30.921387L85.595093,30.799072L84.827148,30.389038L84.484131,29.864380L84.412903,29.976013L84.277832,31.572388L83.772461,33.488586L83.615417,33.645935L84.470764,33.244507L85.771606,33.195068L86.972961,33.744568L87.299805,34.138123L87.431946,34.384521L87.773743,31.942932L88.232971,30.622253L87.581909,31.301636L85.854919,31.837097L85.077576,31.732117L84.928223,31.796936L85.519165,32.662109L85.845520,33.764038L85.729187,34.334045L85.785645,34.169861L85.680969,34.310425L85.316589,34.484802L82.792419,35.151550L79.722351,35.514954L78.047607,35.433960L76.249695,34.807434L76.113525,34.695557L75.129639,33.666687L74.561584,32.847107L74.317444,31.069336L74.289612,31.327148L74.171936,31.552917L73.994812,31.785034L73.405090,32.111633L73.346924,32.163391L73.139587,32.158813L73.951416,32.466919L75.239868,33.351135L76.295288,34.613647L77.838684,37.261169L79.094482,33.708801L83.071716,32.434998L77.926636,29.373779L69.432861,25.643921L58.854492,22.916321L56.728821,22.873962L56.133606,22.998657L54.629822,23.596558L53.415344,24.666138L52.978821,25.209351L52.304688,26.340759L51.968445,27.614258L51.996155,28.930969L52.110413,29.636047L53.010498,31.737732L54.512695,33.719604L56.851624,36.023254L61.215088,39.218384L64.601196,40.882324L65.589233,41.512146L70.155090,45.559387L74.021729,48.354187L75.839111,49.953247L78.203796,52.825195L80.963074,58.088684L82.544006,59.828003L82.912231,60.070312L84.482971,60.735962L86.187744,60.801392L86.768311,60.717957L87.788757,60.452454L88.725220,59.967712L89.531006,59.287537L90.166199,58.445923L90.599304,57.484497L91.751526,53.888184L94.264648,48.135925L98.214783,40.870361L99.557800,38.948547L105.302795,32.155579L106.990356,29.670532L109.646667,23.440247L108.916992,24.223694L108.905396,24.346863L109.746826,23.831299L110.463013,23.152649L111.023010,22.340088L111.402222,21.429138L111.584351,20.459290L111.561401,19.472900L111.334412,18.512573L110.913208,17.620239L110.316101,16.834656L109.569092,16.189880L108.704651,15.714111L107.760315,15.427917L106.777161,15.343689L105.797913,15.465332L104.370605,15.810791L102.814636,15.927673L100.052795,15.658508L93.929260,15.742493L91.263977,15.278442L83.125305,14.936584L76.195007,15.277405L66.289246,15.285034L63.623291,15.740173L62.690918,16.038269L61.839783,16.521790L61.106323,17.169983L60.521912,17.955139L60.111511,18.843811L59.892700,19.797974L59.874878,20.776611L60.058838,21.738037L60.436523,22.641174L60.991943,23.447144L61.701355,24.121582L62.534302,24.635742L63.455261,24.967529L64.424683,25.102783L65.401306,25.035706L66.954712,24.744934L70.059692,24.794800L74.446350,25.418518L79.227051,25.564026L82.488342,25.066833L82.162903,19.550781L82.906677,18.303467L76.773315,18.377441L75.765503,18.350403L73.013794,17.802673L65.648865,17.212524L49.757874,14.903198L48.233398,14.903137L47.179626,15.102234L46.197754,15.533447L45.338196,16.174683L44.645020,16.992920L44.153931,17.946228L43.890015,18.985596L43.866943,20.057739L44.085815,21.107605L44.215149,21.499329L44.819885,22.711670L45.743286,23.703003L46.909668,24.392090L49.193298,25.303223L52.813416,27.796814L53.656677,28.252930L54.574646,28.529907L55.529541,28.616089L56.482239,28.508057L57.393555,28.210266L58.226196,27.734924L58.945923,27.101501L59.523193,26.335999L59.934387,25.469849L60.162537,24.538513L60.198303,23.580383L60.040222,22.634766L59.921021,22.198914L59.512573,21.184753L58.882446,20.291443L58.064087,19.566650L57.101257,19.048767L56.045349,18.765747z" fill="#754032" stroke="none" fill-opacity="1" />
			</g>
			<g id="layer.Layer.uuid_0x2">
				<path d="M119.611267,154.302917L119.445801,155.216797L119.461853,156.145203L119.658691,157.052917L120.028809,157.904663L120.557983,158.667786L121.225891,159.313049L122.006836,159.815674L122.870789,160.156250L123.784668,160.321655L124.713196,160.305725L125.620850,160.108826L126.472595,159.738708L127.235718,159.209534L127.881042,158.541626L128.383606,157.760681L128.724182,156.896606L130.809692,149.569458L131.540833,144.162354L131.426331,133.687866L129.927246,123.117065L127.346497,111.622620L124.883240,103.115967L122.750854,97.293091L116.941284,85.246521L112.087585,77.805969L108.717224,74.056946L104.148376,70.205994L97.484009,66.062317L90.287109,63.695801L83.550720,62.692566L79.917847,63.025391L77.261353,63.956299L73.221985,66.402527L67.221741,72.802612L62.364990,79.804932L59.277771,85.018982L57.512451,88.840210L55.683533,94.242920L54.347046,100.938110L54.346191,108.890869L55.160522,115.275085L58.235718,127.707275L60.740479,143.007385L62.712830,148.755310L65.422546,153.983093L67.144653,156.236267L67.823853,156.913330L68.625427,157.439758L69.516663,157.793884L70.460938,157.961304L71.419556,157.935059L72.353271,157.716309L73.223816,157.314087L73.995483,156.744690L74.636780,156.031677L75.121216,155.203979L75.429077,154.295776L75.547729,153.344177L75.472351,152.388123L75.189087,150.832458L74.352844,148.885559L73.100342,147.172180L71.634216,145.651917L69.893616,144.574219L67.268921,143.655884L60.817200,143.267212L51.499146,144.232361L45.085571,145.683716L40.054871,147.843811L31.968689,153.104431L28.822388,155.796265L25.018433,159.616699L21.465637,164.328003L19.101257,168.484802L15.785400,176.305237L13.335571,183.192322L10.907837,192.973633L9.046936,206.251892L8.884338,219.993713L9.197998,228.521484L11.194214,237.702759L13.622314,244.338867L19.875000,255.122253L25.793213,263.185364L30.513306,268.849670L36.430847,274.320923L44.756897,279.722168L55.175781,284.300903L62.277710,286.607117L69.806824,288.626404L79.476379,290.465210L85.364685,291.156555L98.069885,291.018921L113.016663,289.459351L125.644836,286.629395L133.840332,283.748840L141.375732,280.187378L147.582458,276.535522L152.785339,272.747131L156.921936,269.140137L161.708069,263.691772L165.660461,257.066467L168.106689,251.691833L170.201843,245.717041L171.661682,239.796509L173.159485,228.869934L174.075378,216.347046L174.172852,205.056763L173.647034,199.557678L170.691650,191.626343L165.925354,182.952820L162.210571,175.283875L159.899109,171.484924L157.411377,168.708374L148.168640,161.504883L142.270996,157.789307L137.294434,155.581482L129.685669,154.595459L127.591614,154.052063L129.912476,158.953186L126.929504,162.543884L128.604919,162.569153L129.528687,162.473572L130.416016,162.199524L131.232910,161.757629L131.947876,161.164917L132.533386,160.444092L132.967102,159.622864L133.232239,158.732849L133.318665,157.808167L133.223022,156.884399L132.948975,155.997070L132.507080,155.180237L131.914368,154.465332L131.193542,153.879700L130.372314,153.446045L129.482300,153.180908L128.557678,153.094482L126.319336,153.105591L124.108826,153.516357L123.179688,153.853149L122.340637,154.375427L121.628174,155.060486L121.073364,155.878296L120.700317,156.793579L120.525330,157.766296L120.555969,158.754211L120.790833,159.714172L121.219849,160.604614L121.824280,161.386536L122.577759,162.026062L122.914673,162.256287L127.512817,163.808777L134.220886,164.514832L137.557495,166.000671L142.565430,169.148865L150.790710,175.476074L152.107361,176.853821L153.793091,179.626892L157.455444,187.201233L161.998535,195.407227L164.286194,201.165710L164.696289,205.239563L164.614319,215.815186L163.749939,227.749756L162.396057,237.801453L161.176819,242.823303L159.380066,247.995667L157.347229,252.514038L154.260071,257.818237L150.429749,262.231689L147.013733,265.230225L142.555237,268.500977L137.108826,271.725037L130.434814,274.903809L123.274658,277.451538L111.743347,280.066345L97.721497,281.548096L86.146790,281.709106L81.066895,281.123352L72.083313,279.427368L65.064636,277.550659L58.729004,275.514587L49.537598,271.533142L42.523926,267.053589L37.581421,262.531860L33.332275,257.444702L27.918518,250.108704L22.355774,240.641418L20.364746,235.299744L18.649780,227.727478L18.359680,219.969055L18.474243,207.247498L20.167603,194.996033L22.344788,186.135437L24.573364,179.849487L27.497375,172.867493L29.251038,169.719421L31.986694,166.045654L35.182373,162.817261L37.446777,160.828491L44.276062,156.317810L47.666931,154.788574L52.800232,153.621765L60.896057,152.746887L64.852966,152.787781L65.835266,153.073730L65.698425,153.073547L66.175354,153.550781L68.824280,148.936340L73.557434,149.148499L71.520508,145.246338L70.021362,141.052246L67.554504,125.983459L64.517456,113.761597L63.816833,108.491211L63.741150,102.263367L64.769836,96.945984L66.235352,92.531067L67.561646,89.610840L70.268372,85.033203L74.474915,78.906616L78.783875,74.044678L81.209839,72.559509L81.830811,72.286987L82.902039,72.121765L87.866516,72.864014L93.042908,74.453369L98.354309,77.710449L101.970398,80.701660L104.399658,83.330566L108.550110,89.657593L113.940308,100.786316L115.831238,105.919800L118.136047,113.849854L120.577759,124.663879L121.957336,134.139648L122.109558,143.317322L121.610962,147.327881z" fill="#000000" stroke="none" fill-opacity="1" />
				<path d="M79.867493,64.559082L79.439392,65.383240L79.180359,66.275085L79.100281,67.200317L79.202209,68.123352L79.482300,69.008850L79.929749,69.822632L80.527344,70.533569L81.252197,71.114075L82.076294,71.542175L82.968140,71.801208L83.893372,71.881348L84.816528,71.779358L85.701965,71.499268L86.515747,71.051880L87.226562,70.454224L87.807190,69.729370L101.655884,48.462891L112.656799,29.995178L114.495361,26.204285L115.967651,20.414001L116.010803,18.453552L115.583740,16.189514L114.935242,14.540222L114.301453,13.535522L110.964172,10.564209L109.222107,9.702515L106.637024,9.034668L85.135559,8.934753L60.719177,9.596436L46.565796,10.487671L39.545593,11.467468L37.107300,12.233887L35.725281,13.006531L34.675110,14.191406L34.263245,14.852356L33.781982,15.882751L33.560059,16.998230L33.610474,18.134399L33.930176,19.225830L34.500854,20.209656L35.289490,21.029053L36.858826,22.309082L42.540649,24.779480L45.061707,26.870911L50.435730,32.553101L68.079956,53.014343L77.463135,62.610840L80.588196,66.329224L81.290649,67.008423L82.117493,67.528992L83.033630,67.869019L83.999939,68.013855L84.975403,67.957214L85.918579,67.701721L86.789246,67.258179L87.550354,66.645447L88.169617,65.889465L88.620605,65.022705L88.884155,64.081848L88.949097,63.106873L88.812622,62.139282L88.410522,60.520630L88.099487,59.645630L87.623596,58.848022L87.001282,58.158752L86.256470,57.604004L85.417725,57.205322L84.517334,56.977783L83.589844,56.930359L82.670898,57.064880L81.795898,57.375977L80.998352,57.851868L80.309021,58.474121L79.754333,59.218872L79.355530,60.057617L79.128113,60.958069L79.080750,61.885559L79.215149,62.804443L82.064392,59.060059L84.600708,56.377014L75.157410,46.713318L57.538025,26.280823L51.714417,20.131714L47.922729,17.013123L42.265564,14.560791L42.957153,16.581421L41.666016,20.387573L41.342041,20.758240L47.346802,19.931946L61.061584,19.065491L85.217590,18.409424L104.860840,18.322021L105.936768,18.535583L106.776489,19.235596L106.519531,18.801147L106.619263,19.227539L105.755188,22.582275L104.410950,25.333435L93.664185,43.372253z" fill="#000000" stroke="none" fill-opacity="1" />
			</g>
		</g>
	</g>
</svg>
