<?xml version="1.0" encoding="UTF-8"?>
<!-- Generator: Blender, SVG Export for Grease Pencil - v2.0 -->
<!DOCTYPE svg PUBLIC "-//W3C//DTD SVG 1.1//EN" "http://www.w3.org/Graphics/SVG/1.1/DTD/svg11.dtd">
<svg version="1.1" x="0px" y="0px" xmlns="http://www.w3.org/2000/svg" width="559.512085px" height="138.021545px" viewBox="0 0 559.512085 138.021545">
	<g id="blender_frame.1">
		<g id="blender_object.GPencil.003.1.uuid_0x0">
			<g id="layer.Layer.uuid_0x1">
				<path d="M53.587036,35.891113L53.575806,35.673950L53.522461,35.463135L53.428955,35.266785L53.298889,35.092468L53.137451,34.946838L52.950623,34.835571L52.745728,34.762817L52.530518,34.731506L52.313293,34.742737L52.102539,34.796082L51.906311,34.889587L51.731873,35.019592L51.586304,35.181091L51.474915,35.367920L51.402344,35.572815L51.370911,35.788025L50.155518,46.841064L50.018677,51.534973L49.845825,55.963196L50.365906,68.332397L51.710693,83.709778L52.127441,87.657227L52.846680,91.688538L54.215759,100.494812L54.379578,101.114868L54.661194,101.690979L55.049866,102.201111L55.530457,102.625610L56.084778,102.948242L56.691223,103.156494L57.326660,103.242432L57.966675,103.202759L58.586792,103.039001L59.162903,102.757385L59.673096,102.368713L60.097595,101.888062L60.420166,101.333862L60.628479,100.727356L60.714417,100.091858L60.674683,99.451782L59.199463,90.645081L58.527100,86.609253L57.725342,82.959167L55.642944,67.939697L54.648865,55.742004L54.118958,51.421936L53.774353,46.946289z" fill="#000000" stroke="none" fill-opacity="1" />
				<path d="M12.764954,51.167358L12.814697,51.276794L12.884888,51.374390L12.972656,51.456421L13.074707,51.519775L13.187256,51.561951L13.305908,51.581421L13.425964,51.577393L13.542908,51.549927L13.652466,51.500244L13.750000,51.430176L13.832092,51.342346L13.895325,51.240234L13.937622,51.127747L13.957031,51.009155L13.953003,50.889038L13.925598,50.772034L12.940796,47.463074L12.698853,45.739563L13.047974,42.755859L14.253357,37.797729L15.942627,34.584045L20.176208,29.567505L21.868164,28.223083L23.256653,26.940063L25.537781,25.555420L26.650024,24.659241L29.957520,23.016052L37.510010,20.141418L40.900757,19.097778L48.443054,17.760498L54.446167,17.321289L62.845947,17.064209L68.854980,17.374695L74.148193,18.504456L78.617371,19.987366L79.532166,20.483765L82.153381,22.281555L82.774719,23.222778L83.757019,24.643311L84.307373,26.329712L84.733948,27.446899L84.288269,30.117188L83.447876,32.666260L81.719849,35.233215L79.421997,38.514709L76.457275,41.603882L73.254639,45.000305L65.910583,51.038025L55.221375,58.617920L45.401306,63.872925L44.923035,64.180420L44.514099,64.575317L44.190063,65.042358L43.963257,65.563721L43.842529,66.119263L43.832581,66.687683L43.933777,67.247131L44.141968,67.776123L44.449524,68.254272L44.844360,68.663269L45.311584,68.987366L45.832886,69.214111L46.388428,69.334717L46.956787,69.344727L47.516235,69.243591L48.045288,69.035278L58.222412,64.048584L69.817810,56.435059L77.424561,49.686523L81.165039,46.184265L84.157654,42.540588L87.021057,39.012268L88.853333,35.610962L90.522156,32.151794L90.921082,27.562439L90.666138,24.760071L89.586609,22.104919L88.315186,19.643127L86.826843,17.935425L83.199646,14.986572L81.200806,14.058533L76.037964,12.228088L69.801331,11.220032L63.135193,10.626953L54.134521,10.864502L47.688843,11.726562L39.697693,13.251099L35.718201,14.184082L27.565735,17.537048L23.817444,19.810120L22.244812,20.681946L19.968445,22.572449L18.154236,24.028870L16.421265,25.988281L12.249451,32.147949L10.633301,36.505554L10.019531,42.451111L10.836853,45.966125L11.498413,47.859802z" fill="#000000" stroke="none" fill-opacity="1" />
				<path d="M242.001465,32.692078L241.981567,32.506104L241.926025,32.327576L241.836548,32.163330L241.716675,32.019714L241.571167,31.902222L241.405518,31.815369L241.226196,31.762451L241.039917,31.745605L240.853882,31.765442L240.675415,31.821167L240.511230,31.910645L240.367432,32.030396L240.250000,32.175903L240.163208,32.341553L240.110229,32.520935L240.093506,32.707214L239.619995,42.014954L239.560425,43.764771L239.010864,48.779297L239.142212,50.048889L238.736938,57.728821L238.142822,68.172607L237.992676,70.774963L238.073608,75.641907L239.586548,94.016296L239.813599,98.819275L239.891968,99.399475L240.082153,99.953247L240.376587,100.459229L240.764038,100.898071L241.229858,101.252869L241.755859,101.510010L242.321777,101.659607L242.906128,101.695862L243.486328,101.617432L244.040039,101.427368L244.546021,101.132874L244.984863,100.745300L245.339722,100.279602L245.596802,99.753662L245.746460,99.187622L245.782715,98.603271L245.658936,93.712280L243.812866,75.390259L243.627441,70.700867L243.436768,68.246216L243.287109,57.820374L243.138184,50.102173L243.278687,48.789490L242.720947,43.754089L242.622437,41.988770z" fill="#000000" stroke="none" fill-opacity="1" />
				<path d="M219.268433,46.148804L219.283081,46.310486L219.328979,46.466248L219.404419,46.610046L219.506348,46.736328L219.631104,46.840332L219.773560,46.918030L219.928589,46.966370L220.090088,46.983521L220.251709,46.968933L220.407471,46.923035L220.551147,46.847656L220.677612,46.745605L220.781494,46.620911L220.859253,46.478394L220.907593,46.323425L220.924805,46.161987L220.970947,42.189392L221.506714,40.469543L223.990845,36.757507L228.487671,33.665649L232.633667,31.951965L234.493408,31.191528L237.326050,30.685364L238.828003,30.207092L242.876465,29.938538L245.198853,30.010437L246.235107,29.861450L251.072021,30.701538L254.567627,31.741089L257.176147,33.101929L259.031616,34.116089L260.747925,35.632202L262.688232,37.368347L264.004883,39.104980L266.118530,43.028076L266.822021,46.600403L266.063477,50.091736L263.922729,53.502197L262.916382,54.782898L260.801880,56.438110L259.139893,57.814941L257.094116,59.064087L254.677856,60.574951L241.511719,66.955627L240.470947,67.792480L239.702393,68.981384L239.126099,70.273560L238.875732,71.454407L239.008057,72.938965L239.453369,74.463196L240.070801,75.478577L241.761841,77.026062L245.509277,80.056641L248.134155,81.919189L256.496948,86.305542L270.871826,94.220276L277.247192,96.848022L284.389038,98.540039L286.484253,98.981323L290.198486,99.474976L290.714478,99.509705L291.227417,99.443115L291.717407,99.277771L292.165894,99.019958L292.555420,98.679626L292.870850,98.269836L293.100586,97.806396L293.235229,97.307007L293.270020,96.790955L293.203491,96.278015L293.038086,95.787964L292.780273,95.339600L292.439819,94.950073L292.030151,94.634460L291.566650,94.404907L291.067383,94.270142L287.491211,93.546204L285.655396,93.231018L279.255127,91.445251L273.503418,89.050049L259.156982,81.374573L251.154663,77.081177L248.892334,75.710510L245.768677,73.067139L244.858887,71.871643L244.645020,71.688171L244.564941,71.924622L244.702393,71.989746L257.377075,65.887390L260.234009,64.371033L262.505981,62.861084L264.691528,61.358948L267.003174,58.977722L268.640869,57.208984L271.311768,52.662415L272.559570,47.213257L272.572266,46.122803L271.796875,41.532349L269.073242,36.069580L267.005005,33.603210L264.728760,31.286926L262.483276,29.587891L260.211182,27.948853L256.753418,26.519470L252.553467,25.134766L246.804077,24.508606L245.289673,24.287292L242.674927,24.387451L238.093872,25.181702L236.152832,25.418945L233.134399,26.439148L230.782593,27.186951L226.225586,29.595825L221.373657,34.251404L220.903442,34.860535L219.363281,39.651489L219.293213,42.016663z" fill="#000000" stroke="none" fill-opacity="1" />
				<path d="M317.381592,21.760132L317.420044,21.540649L317.414917,21.317932L317.366333,21.100464L317.276367,20.896606L317.148315,20.714294L316.987061,20.560425L316.799072,20.440979L316.591309,20.360535L316.371704,20.322144L316.149048,20.327332L315.931641,20.375854L315.727783,20.465881L315.545410,20.593872L315.391479,20.755066L315.272095,20.943115L315.191528,21.150879L314.125732,24.001343L313.214600,28.165283L310.644775,35.868652L309.407349,39.619629L307.801270,46.492004L306.551880,51.238281L304.462769,65.923523L304.022583,72.793762L304.848022,79.118713L306.943726,85.018799L310.142456,90.522949L314.604980,94.948853L318.351685,97.310120L322.121338,99.214417L330.068848,100.778198L336.581543,100.151001L340.884277,99.062927L345.112061,96.794373L351.199829,92.632935L354.799194,88.753174L358.117188,85.235107L362.901733,78.270996L363.153442,77.837341L363.315796,77.362915L363.382324,76.865906L363.350830,76.365479L363.222046,75.880798L363.001587,75.430603L362.697144,75.032043L362.320801,74.700500L361.887329,74.448792L361.412842,74.286499L360.915894,74.219849L360.415527,74.251465L359.930908,74.380066L359.480591,74.600830L359.081909,74.905090L358.750366,75.281311L353.893799,81.680176L351.112549,85.033020L347.551025,87.910767L342.389771,91.800537L338.843506,93.317688L335.708008,94.491760L330.748413,94.927490L324.272461,93.644409L321.319214,92.437317L318.611206,90.445740L315.080322,86.948608L312.209229,82.830017L310.646973,78.043762L309.940674,72.646667L309.666870,66.484741L311.652344,52.205383L312.354370,47.488098L313.812866,40.617981L314.313110,36.741943L315.528442,28.772400L316.823853,24.745972z" fill="#000000" stroke="none" fill-opacity="1" />
				<path d="M288.957153,56.868469L288.794922,56.951538L288.651978,57.064697L288.533936,57.203552L288.445068,57.362793L288.389160,57.536194L288.368286,57.717285L288.382812,57.898987L288.432617,58.074280L288.515625,58.236511L288.628906,58.379456L288.767700,58.497559L288.927002,58.586304L289.100342,58.642212L289.281494,58.663269L289.463135,58.648621L289.638428,58.598755L292.556763,57.639709L297.698608,55.480469L304.812012,53.350342L307.816772,52.300110L316.608643,49.074890L322.980957,46.542542L353.364624,35.589783L358.525513,33.544800L358.961060,33.336975L359.347534,33.048157L359.670410,32.689514L359.916870,32.274719L360.078003,31.819885L360.146973,31.342346L360.121582,30.860474L360.002686,30.392883L359.794922,29.957397L359.505981,29.570862L359.147339,29.248047L358.732666,29.001526L358.277710,28.840576L357.800293,28.771484L357.318359,28.796814L356.850708,28.915771L351.553223,30.654785L321.545166,42.819702L315.129395,45.330383L306.512695,49.015991L303.605957,50.313904L296.972412,53.644531L291.745361,55.580444z" fill="#000000" stroke="none" fill-opacity="1" />
				<path d="M399.665039,62.086914L399.576172,61.925415L399.457397,61.784424L399.313232,61.669312L399.149536,61.584534L398.972534,61.533264L398.788696,61.517578L398.605469,61.538025L398.429810,61.593811L398.268188,61.682800L398.127319,61.801636L398.012085,61.945679L397.927368,62.109375L397.876221,62.286438L397.860474,62.470154L397.880981,62.653381L397.936768,62.829163L400.127563,67.784241L400.758789,69.840820L403.213379,76.967163L406.469849,85.301270L408.176758,90.402222L408.712280,95.367188L408.515137,100.051025L407.846802,103.145142L406.375244,105.942047L404.562744,109.015289L402.006348,111.764923L397.281250,115.897400L393.673340,117.911407L391.807983,118.780243L385.888672,120.896210L379.348022,121.864960L372.404663,121.113068L365.715332,119.329163L359.669922,116.842010L351.970825,111.811798L351.557983,111.577606L351.107178,111.428497L350.636108,111.370178L350.162598,111.404877L349.705200,111.531281L349.281006,111.744537L348.906616,112.036438L348.596191,112.395752L348.362061,112.808716L348.213013,113.259399L348.154785,113.730530L348.189453,114.204010L348.315796,114.661560L348.529053,115.085693L348.820923,115.460114L349.180298,115.770325L356.697510,121.467163L363.296143,125.022247L370.932129,127.382202L379.146362,128.009949L387.044922,127.179810L394.156494,124.758209L396.648193,123.413544L400.557861,120.748688L406.095459,116.222412L409.061035,112.618927L411.568115,108.984802L413.042236,105.181519L414.222534,101.182922L414.458252,95.247192L413.012817,89.314026L411.080444,83.608826L406.804321,75.316895L402.814087,68.924866L401.749023,67.085510z" fill="#000000" stroke="none" fill-opacity="1" />
				<path d="M432.509888,44.585205L432.545044,44.388855L432.541382,44.189453L432.498657,43.994568L432.418823,43.811829L432.304932,43.648132L432.161255,43.509766L431.993164,43.402161L431.807495,43.329346L431.611206,43.294189L431.411865,43.298035L431.216919,43.340637L431.034180,43.420471L430.870483,43.534485L430.732178,43.678162L430.624390,43.846069L430.551758,44.031799L429.421875,47.092346L428.458374,50.842285L427.869873,52.731567L427.690308,54.366577L427.332764,56.918518L427.396484,58.168396L427.220947,64.226501L428.075684,72.835144L431.059937,83.193542L434.979858,92.663147L437.274292,96.334473L438.578979,98.124573L439.839111,99.332642L442.779663,102.357117L446.468384,104.736084L450.190430,106.141968L452.684448,106.324005L454.634888,106.468628L458.583496,105.638916L462.498779,103.886169L466.071777,101.340149L470.469604,96.484070L473.654053,90.064026L474.647095,87.922607L475.129639,86.230835L476.407837,82.144836L476.492065,80.978027L477.750610,75.780334L477.759644,74.722595L478.633057,70.781128L479.148804,67.299866L480.244629,58.051636L479.793945,53.390564L479.019043,49.099182L477.319458,45.082703L475.384155,42.738037L474.709839,42.119934L472.833130,40.881470L471.774414,40.552246L470.783691,40.474915L469.546143,40.731384L467.782837,41.750549L467.299194,42.083435L466.916992,42.528992L466.661621,43.057556L465.698975,45.738098L465.471436,48.100647L465.687988,49.586304L466.120239,53.484558L473.762939,76.015137L479.849487,96.206421L480.033081,96.664856L480.302490,97.078735L480.647339,97.432129L481.054565,97.711365L481.508423,97.905823L481.991577,98.008057L482.485474,98.014038L482.970947,97.923523L483.429321,97.740051L483.843140,97.470764L484.196533,97.125793L484.475952,96.718506L484.670288,96.264648L484.772461,95.781494L484.778320,95.287781L484.687866,94.802307L478.999756,74.418335L471.056396,52.307922L470.108154,49.267700L470.260864,48.184814L470.228027,46.888550L470.545166,45.254211L471.111938,45.173584L470.919434,45.167786L472.021606,45.730225L472.766235,47.267456L473.886719,50.338135L474.523071,53.724670L474.235718,57.588867L473.329590,66.445312L472.759399,69.786804L472.272949,73.719116L471.919189,74.606384L471.051880,79.703857L470.639160,80.569763L469.677979,84.375977L469.036499,85.802124L468.506226,87.591675L465.626953,92.769897L462.312744,96.679138L459.723877,98.452515L456.938599,99.643433L454.157227,100.248169L453.115112,100.448853L451.909546,100.162354L449.494873,99.307983L446.839111,97.592224L444.085938,95.279175L443.289429,94.238159L442.217041,93.016296L440.347656,90.041260L436.291260,81.476074L433.483521,71.868896L432.009399,63.968445L431.543701,58.216736L431.665039,57.083801L431.522461,54.664856L431.627319,53.133484L431.457397,51.349731L431.886230,47.729614z" fill="#000000" stroke="none" fill-opacity="1" />
				<path d="M492.995728,10.535278L492.930786,10.393677L492.839233,10.267517L492.724976,10.161560L492.592041,10.080017L492.445679,10.025940L492.291992,10.001404L492.136230,10.007385L491.984619,10.043579L491.842896,10.108765L491.716675,10.200256L491.610962,10.314636L491.529297,10.447449L491.475220,10.593628L491.450684,10.747620L491.456665,10.903381L491.492920,11.054932L492.522583,14.909302L493.465454,16.672058L494.536499,22.215454L497.757324,42.038391L499.693359,56.676636L502.719727,88.886353L503.142212,95.212097L503.097290,97.896484L503.972168,101.567627L503.974854,102.374573L504.088013,102.954224L504.316895,103.498718L504.651367,103.985291L505.078125,104.393677L505.578857,104.706787L506.132812,104.911438L506.716797,104.999146L507.306519,104.966309L507.877319,104.814209L508.405029,104.549194L508.867920,104.182434L509.246460,103.729187L510.344238,102.269531L510.819336,101.056274L511.898193,93.084473L512.960449,86.986328L513.559814,83.407898L514.327637,80.435913L514.765259,78.331604L516.783813,73.153320L519.147461,69.363586L520.775757,67.744507L524.468994,65.464844L526.063110,65.096802L527.917603,65.441833L529.273804,65.551392L532.077271,67.665039L535.544556,71.996582L537.310913,75.764587L541.198364,86.550415L543.386230,101.149109L544.082153,107.510193L544.186523,108.033417L544.391113,108.526184L544.687866,108.969604L545.065308,109.346619L545.509277,109.642731L546.002319,109.846558L546.525635,109.950256L547.059204,109.949890L547.582520,109.845398L548.075195,109.640900L548.518555,109.344147L548.895630,108.966614L549.191772,108.522797L549.395508,108.029694L549.499268,107.506348L549.498901,106.972809L548.923828,100.521118L546.486328,85.493896L542.831421,73.662476L540.319092,69.221558L536.368652,63.768677L531.854980,60.853577L529.235229,59.753113L526.295654,59.561646L523.095459,59.727478L521.984253,60.114197L517.333252,62.805908L514.758301,65.646240L511.559204,70.075806L509.192017,76.476440L508.538696,79.133545L507.949463,82.193420L507.149780,85.929688L506.298096,92.220276L505.094727,99.513977L507.570679,99.315796L509.576660,100.912170L509.114502,97.540649L509.010498,95.064514L508.676514,88.470825L505.053345,56.054260L502.403564,41.249146L497.242188,21.574219L494.908081,16.210815L494.569336,14.209656z" fill="#000000" stroke="none" fill-opacity="1" />
				<path d="M85.906860,71.358521L85.748047,71.326172L85.585938,71.325439L85.426819,71.356323L85.276855,71.417664L85.141602,71.507080L85.026428,71.621216L84.935791,71.755554L84.873047,71.905029L84.840698,72.063843L84.840027,72.225952L84.870850,72.385071L84.932312,72.535095L85.021545,72.670288L85.135803,72.785400L85.270020,72.876038L85.419556,72.938782L89.630310,74.210632L92.112732,75.003723L94.469055,75.530884L96.263489,75.690125L100.549438,76.010742L102.343872,75.588867L108.053406,74.665466L112.380737,73.073853L116.553894,71.843506L118.918335,71.014160L124.849792,68.275330L133.839844,63.327942L136.859375,60.915405L138.800537,59.183350L140.164185,57.639771L141.192871,55.613342L142.188354,51.232666L142.073730,49.883301L141.733887,48.295776L141.168091,47.356567L139.840454,46.122986L138.014282,44.612183L136.167603,43.873657L129.997742,42.840759L123.324524,44.020569L121.016174,44.554993L116.210510,46.513733L111.300354,48.479614L106.486511,51.335022L101.958008,54.114990L95.698364,59.622681L91.839050,63.560059L88.800293,68.103455L86.194275,72.380737L84.696716,77.056030L83.863892,83.608337L85.709412,90.075134L86.191345,91.010315L89.817505,95.513306L93.460754,98.610596L98.146362,100.712280L102.893127,102.390137L105.675781,103.015503L113.937561,103.106079L116.875061,102.942078L122.574402,101.610901L130.791992,99.330322L139.984009,95.290283L140.392944,95.072876L140.751587,94.779907L141.046143,94.422546L141.265503,94.014587L141.401001,93.571716L141.447388,93.110901L141.403076,92.649902L141.269531,92.206360L141.052246,91.797424L140.759155,91.438721L140.401855,91.144104L139.993896,90.924866L139.551025,90.789429L139.090210,90.742981L138.629150,90.787354L138.185669,90.920776L129.183777,94.353210L121.586609,96.714661L116.272827,97.264771L113.956787,97.527588L106.568787,97.074768L104.444946,96.744446L100.336121,95.692871L96.753540,93.737793L93.902527,91.856628L90.960693,87.960571L89.787109,83.538147L89.985474,78.540039L91.425720,74.974182L93.280212,71.153992L96.299561,67.421631L99.443176,63.741760L105.356567,58.869629L109.217590,56.023926L113.782227,53.693848L118.109070,51.503662L122.658813,50.122437L124.429138,49.548645L129.811768,48.728516L134.277222,48.887512L135.042664,49.468506L136.118164,49.954468L136.649170,50.719238L137.020752,50.992065L136.579956,53.475830L135.747009,54.606934L135.103699,55.775879L133.882751,57.179688L131.179199,58.948853L122.710693,63.905762L117.026001,66.560120L114.910583,67.574890L111.118713,69.338074L106.971558,70.495422L101.739319,72.171387L100.289551,72.247559L96.384766,72.884583L94.723511,72.797729L92.487488,72.858398L90.063660,72.666870z" fill="#000000" stroke="none" fill-opacity="1" />
				<path d="M152.075562,71.358521L151.916748,71.326172L151.754761,71.325439L151.595581,71.356323L151.445435,71.417664L151.310425,71.507080L151.195190,71.621216L151.104614,71.755554L151.041748,71.905029L151.009399,72.063843L151.008789,72.225952L151.039673,72.385071L151.100952,72.535095L151.190430,72.670288L151.304443,72.785400L151.438843,72.876038L151.588379,72.938782L155.798950,74.210632L158.281372,75.003723L160.637817,75.530884L162.432251,75.690125L166.718018,76.010742L168.512695,75.588867L174.222046,74.665466L178.549316,73.073853L182.722534,71.843506L185.086914,71.014160L191.018555,68.275330L200.008545,63.327942L203.028076,60.915405L204.969238,59.183350L206.332886,57.639771L207.361572,55.613342L208.357056,51.232605L208.242310,49.883484L207.902710,48.295959L207.336670,47.356445L206.009033,46.122925L204.182983,44.612183L202.336304,43.873657L196.166382,42.840759L189.493164,44.020569L187.184814,44.554993L182.379150,46.513733L177.468994,48.479614L172.655151,51.335022L168.126709,54.114990L161.866943,59.622681L158.007690,63.560059L154.968872,68.103455L152.362915,72.380798L150.865479,77.056030L150.032593,83.608337L151.878052,90.075073L152.359985,91.010315L155.986206,95.513306L159.629395,98.610596L164.314941,100.712280L169.061890,102.390137L171.844604,103.015503L180.106201,103.106079L183.043701,102.942078L188.743164,101.610901L196.960815,99.330322L206.152710,95.290283L206.561646,95.072876L206.920410,94.779907L207.214966,94.422546L207.434204,94.014587L207.569702,93.571716L207.616089,93.110901L207.571777,92.649902L207.438354,92.206360L207.220947,91.797424L206.927979,91.438721L206.570557,91.144104L206.162598,90.924866L205.719727,90.789429L205.258911,90.742981L204.797974,90.787354L204.354370,90.920776L195.352661,94.353210L187.755371,96.714661L182.441406,97.264771L180.125366,97.527588L172.737549,97.074768L170.613647,96.744446L166.504761,95.692871L162.922119,93.737793L160.071167,91.856628L157.129395,87.960571L155.955933,83.538208L156.154175,78.540039L157.594482,74.974182L159.448853,71.153992L162.468262,67.421631L165.611816,63.741760L171.525391,58.869568L175.386230,56.023926L179.950928,53.693848L184.277710,51.503662L188.827637,50.122437L190.597778,49.548645L195.980347,48.728516L200.445923,48.887512L201.211304,49.468506L202.286743,49.954468L202.817871,50.719177L203.189453,50.992004L202.748657,53.475891L201.915771,54.606934L201.272461,55.775879L200.051514,57.179688L197.348022,58.948853L188.879395,63.905762L183.194702,66.560120L181.079224,67.574890L177.287354,69.338074L173.140259,70.495422L167.908081,72.171387L166.458252,72.247559L162.553345,72.884583L160.892090,72.797729L158.656128,72.858398L156.232422,72.666870z" fill="#000000" stroke="none" fill-opacity="1" />
				<path d="M396.731445,41.758301L396.913574,41.757385L397.092163,41.721008L397.260132,41.650452L397.411133,41.548523L397.539307,41.419067L397.639893,41.267090L397.708740,41.098450L397.743408,40.919495L397.742554,40.737366L397.706177,40.558838L397.635620,40.390808L397.533569,40.239807L397.404175,40.111633L397.252197,40.011169L397.083496,39.942200L396.904663,39.907593L395.703857,39.703613L394.509033,39.480225L392.812134,39.144165L391.545654,39.350281L390.323730,39.978577L389.220947,40.804199L388.517212,41.468750L387.827148,42.715271L387.647705,43.559998L387.725220,44.527527L388.002319,45.636108L388.390625,46.370361L389.031128,47.138184L390.343506,47.987976L391.826782,48.444397L393.174316,48.562500L393.987061,48.520630L395.222656,48.256226L396.542358,47.687866L397.698975,46.813477L398.355835,46.013916L398.959351,44.572083L399.082153,43.419739L398.443237,41.869202L398.011353,40.990356L396.979736,39.885437L395.467285,39.190002L393.927979,38.951843L392.211182,39.262329L391.285645,39.760315L390.626099,40.366516L389.981445,41.391357L389.735596,42.267700L389.689209,43.455078L390.043091,44.583679L390.689087,45.445496L391.316406,45.947205L392.186279,46.374084L392.896851,46.532288L393.567749,46.628662L394.142700,46.632263L394.698364,46.484863L395.196167,46.196777L395.431641,46.017273L395.704468,45.812805L396.281006,45.159851L396.395752,44.962341L396.685059,43.912781L396.687866,43.598389L396.612671,42.996582L396.374390,42.438965L395.984009,41.793213L395.566040,41.291504L395.017944,40.936523L393.761597,40.363525L392.057617,40.086853L390.394165,40.401001L389.532593,40.865234L388.922729,41.403381L388.488525,41.925110L388.235596,42.555115L388.159912,43.332031L388.215210,44.457886L388.541626,45.044312L388.971924,46.014465L389.246460,46.319153L389.575317,46.564392L389.945557,46.740845L390.343140,46.841614L390.752808,46.862915L391.158691,46.803833L391.545166,46.666748L391.897583,46.456909L392.202393,46.182312L392.447632,45.853516L392.624023,45.483276L392.724854,45.085693L392.746094,44.676086L392.687012,44.270203L392.549805,43.883606L392.339966,43.531250L392.134521,43.519775L392.266357,43.694946L392.233521,44.159363L392.007568,44.427429L392.059448,44.434631L392.312866,44.458008L392.681885,44.544128L392.416016,44.130493L392.411499,43.299866L392.765381,42.636414L392.804688,42.552490L393.311890,42.377930L393.803711,42.270325L393.656738,42.278198L393.821899,42.423401L394.017700,42.780579L394.041748,43.117065L393.979126,43.190796L393.825195,43.371277L393.837280,43.411499L394.034302,43.473572L394.318726,43.630493L394.692993,43.785217L394.745483,43.663086L394.786011,44.041809L394.853394,43.809265L394.887451,44.027405L394.939941,43.961609L394.626709,44.245544L394.132568,44.480774L393.547119,44.607849L393.306763,44.622620L392.682739,44.569824L392.147095,44.409302L391.848145,44.203003L391.896362,44.207397L391.923584,44.184326L391.962524,44.244141L392.040894,44.051697L392.082153,43.811951L392.026123,43.688049L392.382324,43.298950L392.936401,42.996582L393.470703,42.638245L394.566650,41.921387L395.553101,41.739563z" fill="#000000" stroke="none" fill-opacity="1" />
			</g>
		</g>
	</g>
</svg>
