<?xml version="1.0" encoding="UTF-8"?>
<!-- Generator: Blender, SVG Export for Grease Pencil - v2.0 -->
<!DOCTYPE svg PUBLIC "-//W3C//DTD SVG 1.1//EN" "http://www.w3.org/Graphics/SVG/1.1/DTD/svg11.dtd">
<svg version="1.1" x="0px" y="0px" xmlns="http://www.w3.org/2000/svg" width="720.444336px" height="271.994385px" viewBox="0 0 720.444336 271.994385">
	<g id="blender_frame.1">
		<g id="blender_object.GPencil.006.1.uuid_0x0">
			<g id="layer.Layer.001.uuid_0x1">
				<path d="M643.768433,164.493591L643.375854,164.780457L643.046875,165.138306L642.793945,165.553589L642.626709,166.010132L642.551880,166.490540L642.572266,166.976318L642.687012,167.448792L642.891479,167.889771L643.178467,168.282471L643.536377,168.611633L643.951538,168.864502L644.407959,169.031677L644.888550,169.106506L645.374268,169.086121L645.846680,168.971497L646.287964,168.766785L647.418335,168.638733L649.023071,168.284607L651.861572,167.408936L653.500610,165.231018L655.205688,161.088013L656.048462,156.112793L656.410278,155.161926L656.278442,154.679199L657.545654,145.661560L657.615723,145.190918L658.536987,138.618286L658.418335,137.752197L658.552734,131.883057L658.750610,123.239441L658.695679,121.769043L657.578857,114.282654L656.865967,109.221619L655.790771,105.222412L651.444458,96.584961L651.268188,96.371826L650.079468,93.884399L649.594849,93.076660L648.747925,91.853027L646.146240,89.015259L643.498413,86.399780L642.118530,85.360840L639.398071,83.652100L636.477417,82.191284L633.773315,81.224243L630.076660,80.389282L626.817749,80.380615L624.551880,80.701172L623.359131,81.055786L620.090332,82.239258L615.816162,84.408569L613.283203,85.998779L610.583496,88.361816L605.281128,95.284912L603.135376,98.147339L601.156372,101.081055L601.027100,101.150146L598.285645,103.252380L596.454834,105.056335L594.359863,108.052795L592.121460,111.911377L588.428833,118.468750L584.237183,128.571045L583.504150,130.420532L581.520996,137.376892L580.442261,145.192871L580.341553,145.954346L580.256958,146.313354L580.246582,146.275818L579.029297,148.373840L578.855957,148.764343L576.763306,153.054077L574.439575,158.645691L573.651245,161.348572L572.657349,167.016113L572.356812,177.028198L572.323853,180.668762L572.577271,184.602173L573.568481,193.207092L574.800659,199.380310L576.660034,204.410583L580.895874,213.275452L584.653076,219.486328L589.353516,226.004639L594.901733,232.284241L597.344238,235.651245L600.011108,238.741028L604.107788,243.206787L605.882202,244.835571L609.461548,247.514038L612.611328,249.379395L618.920654,252.550781L619.438110,252.896606L621.534180,253.816345L633.110352,255.866516L637.257080,256.064514L637.530396,256.018738L641.467529,256.278076L644.288330,256.934814L652.500610,256.755188L655.169922,256.925781L660.667725,256.203552L663.938354,256.021790L671.278564,255.156128L678.990723,251.863281L680.816406,250.851746L682.658691,249.930481L684.453247,248.990723L688.487061,246.724243L691.651733,244.397400L695.375488,241.174072L699.245728,234.972839L700.904785,232.179321L702.566284,228.639160L703.125732,227.356079L703.253296,226.747803L703.920166,224.847046L703.991699,224.217468L704.555786,222.322876L704.871826,220.495605L705.089844,219.457275L705.254761,217.766724L705.327759,216.581360L705.403931,214.563354L705.422974,213.533752L705.613892,209.224609L705.387451,206.733459L704.469727,204.406433L701.331421,199.121521L701.107178,197.200195L701.064331,195.757141L700.793213,193.198547L699.689331,188.751953L698.283325,185.855347L697.044800,184.120483L694.436279,181.774597L691.691895,180.125793L690.563599,179.510986L688.836548,178.241821L684.762817,174.073425L681.902344,171.477661L674.968384,167.721558L666.435913,164.583313L658.914185,162.519409L655.448486,161.922119L649.411865,161.378052L641.407715,161.632568L639.440796,161.353760L638.067993,160.996033L639.696167,162.235718L640.949707,163.753113L641.726440,165.916809L641.772827,167.753418L641.525146,169.000061L641.128784,169.711792L640.864868,170.063599L640.994629,170.080078L644.477661,166.946960L645.979736,165.361877L647.527710,162.534546L648.487915,159.226196L649.125854,153.745422L649.286377,139.539001L649.435303,131.868469L649.834473,125.600708L649.970947,124.630798L650.020020,120.391541L649.518188,116.112732L648.399658,111.103394L647.591797,108.599243L646.202026,105.478271L646.155396,105.290771L645.038818,101.787842L644.042236,99.522095L643.009888,97.687378L642.089844,96.415649L639.957520,94.468140L636.165771,92.460693L632.319702,91.496460L630.266479,91.241455L626.191528,91.274048L623.380981,91.764404L619.531494,92.955566L617.131226,93.950562L614.333374,95.862793L611.757935,98.881348L610.264038,102.470093L610.052124,105.652039L611.102905,109.297668L613.588501,112.596802L614.567871,113.510132L618.492310,115.408997L623.320801,116.390198L624.813965,116.789978L625.113037,116.806824L624.832886,116.528809L624.042114,115.649475L623.115112,113.545837L623.003296,111.128662L623.651489,109.061218L625.264893,106.942688L626.852051,105.827209L627.996582,105.548340L621.773804,105.319763L617.086670,105.583313L613.322510,106.127197L609.221191,107.751587L606.247925,110.313721L606.026733,110.590515L604.529053,113.848450L604.421021,114.781433L604.468628,118.901001L604.927490,120.661926L606.013428,123.229126L606.945801,124.792419L609.068726,127.028992L612.075806,129.103699L616.657715,130.734680L619.047852,131.181519L620.130371,131.249756L623.161865,131.549927L625.042114,131.888916L628.126953,133.032410L629.503662,133.736328L629.095947,133.405518L628.441162,132.451111L627.778320,130.537598L627.891724,128.450378L628.439575,126.900818L629.225464,125.973694L630.045044,125.090820L630.970581,124.652954L631.807617,124.431946L631.671631,124.335938L629.806885,124.019897L619.663696,121.941223L611.201538,120.897522L606.238647,120.519714L602.614502,121.086792L598.646851,122.989319L598.023804,123.483643L595.630249,126.675903L595.341675,127.474365L594.583984,131.506287L594.943237,135.254944L596.682495,139.518311L599.769287,143.272217L601.292603,144.603394L603.274292,146.076355L606.949829,147.692200L610.321777,148.318726L613.711060,148.504089L617.355835,148.501892L619.160889,148.630188L622.100220,149.074341L623.427002,149.377747L624.276367,149.655212L624.196777,149.594299L624.168701,149.534302L623.702026,148.867920L623.306641,147.488281L623.134888,145.785278L623.386108,144.217102L624.627686,141.797791L626.775879,139.891052L628.197876,139.375305L627.534302,139.273071L626.841064,139.244080L625.972778,139.055542L625.245850,139.005005L622.211548,138.436951L611.936646,136.581604L605.735840,135.654114L601.354736,135.487915L599.046387,135.548706L597.269287,135.835327L593.648682,136.549866L590.259521,137.453003L586.670044,139.099426L583.974487,141.179626L583.403076,141.894592L581.655396,144.911621L581.368652,145.766418L580.975342,149.907043L581.784424,153.927917L583.917358,157.627197L586.076660,160.075684L587.325928,161.019897L588.427612,161.881714L591.358765,163.511597L594.506348,164.990112L596.915283,165.775330L598.209229,166.071899L599.086548,166.296875L600.407593,166.580872L602.352417,166.748047L604.442627,166.879395L620.237427,167.056702L622.601440,167.382507L623.684692,167.450195L621.946533,166.007324L620.717407,163.652344L620.554199,161.734009L620.758301,160.729675L621.343750,159.894348L621.834473,159.482544L618.712891,160.764343L618.897095,160.742981L617.350708,160.662170L612.150269,159.914795L602.805420,159.327026L599.662476,159.462402L595.670898,160.334778L592.883179,161.795959L591.657715,162.747009L588.829590,165.603394L586.942383,168.082397L585.050293,171.634705L583.735107,174.999146L582.988403,178.895203L582.857544,182.243652L583.448120,186.007874L586.373169,194.436035L589.691528,201.673279L592.882446,209.898193L594.145020,212.779846L595.401367,215.070618L599.069458,220.171204L602.602173,223.950806L606.869019,227.891113L609.521240,230.575562L612.743530,233.333618L616.011230,235.643433L619.104614,237.477051L622.246826,239.004761L630.341797,242.198914L635.331299,244.026978L639.577515,245.228577L643.598755,245.974304L648.619995,246.449890L651.853882,246.608093L656.879028,246.696960L659.851685,246.394531L660.738159,246.211792L664.982422,245.701355L665.827759,245.499268L672.333252,243.728760L677.630615,242.038513L680.926636,240.672119L684.290649,238.791626L687.925537,235.864746L690.727173,232.712280L691.831177,231.020630L692.654907,229.423279L693.761108,227.551025L695.587524,222.122681L697.727905,211.455078L697.832397,208.400757L697.016357,204.174133L695.913818,201.591370L695.035034,199.980652L693.878784,197.724304L692.901367,195.931458L691.316650,193.384644L688.255493,189.800537L684.406860,187.002808L680.126465,184.098328L677.250732,182.738647L672.662109,181.071655L663.829468,178.760132L650.624146,175.956787L644.634277,174.579956L638.081299,173.559631L616.173706,170.907776L609.159424,171.031433L604.830200,171.862671L600.859131,173.767822L597.655273,177.191223L597.231567,177.958557L596.245605,181.439941L596.231445,182.298157L596.482544,185.053162L597.153564,187.161621L601.124634,194.000488L604.603638,200.588196L606.074829,203.137634L608.484497,207.691833L609.455078,210.065063L611.102417,212.890198L612.805908,215.013733L615.591797,217.771729L617.402466,219.202820L619.834595,221.037109L620.278320,221.464600L622.477539,223.013123L627.894287,226.785767L632.240845,229.309814L640.633179,233.025269L644.968140,234.449280L649.264526,235.368042L655.155762,236.254211L660.468994,236.538635L663.831177,236.385071L667.535278,235.743896L671.534790,234.451538L677.116943,231.701904L681.058105,229.313843L683.877930,226.617188L685.810669,224.050659L686.939209,221.463440L687.832397,218.685913L688.562622,215.914978L688.809082,214.086670L688.859009,210.998108L688.428833,208.172913L687.862671,205.836060L686.455688,203.101257L684.972778,201.224670L683.856323,200.039612L680.962769,197.936951L678.957886,196.892761L678.096802,196.559082L674.744873,195.183533L664.549805,191.495361L646.469971,186.232788L633.016357,183.612183L627.448975,182.468933L624.352417,182.070068L620.965942,182.353333L617.355103,183.749939L617.023071,183.944946L615.031494,185.787537L613.655029,188.061707L612.905151,191.679260L612.880615,192.523682L613.966431,196.674866L615.364624,199.341553L617.286743,201.921570L620.768799,205.891357L623.138062,208.161865L626.786011,211.082031L629.170776,212.553528L634.378784,215.323669L643.853149,219.577759L653.537598,222.993530L654.193970,223.099121L657.198242,223.963440L658.104736,224.184204L660.180664,224.452271L662.777588,224.521667L667.474609,224.018188L670.915283,223.045471L672.756714,222.593201L674.259644,221.888428L675.596313,220.903992L676.715088,219.677795L677.573120,218.256836L678.137573,216.695679L678.386597,215.054565L678.310547,213.396362L677.912598,211.784851L677.207886,210.281921L676.223389,208.945312L674.997192,207.826599L673.576050,206.968506L672.015015,206.404114L670.374023,206.155090L668.715820,206.231018L667.104370,206.629028L666.676636,206.939636L665.060913,207.090820L662.429443,207.350159L662.196777,207.308533L661.798584,207.152222L661.823853,207.148438L659.483521,206.468933L659.232178,206.274170L650.611572,203.347839L642.390137,199.772217L638.210205,197.444824L636.785522,196.540955L634.336060,195.059326L633.118042,194.019592L630.605469,191.402832L629.680664,190.122314L629.496338,189.966187L629.774048,190.802429L629.697632,193.273621L628.740479,195.659668L627.481812,197.115417L625.141235,198.513855L623.498657,198.983887L623.605469,199.088989L628.661011,200.865356L641.879517,203.507935L658.883057,208.424011L668.389160,211.638123L671.145874,212.703857L671.487427,212.905396L671.926147,213.080994L672.608521,213.405396L672.057861,212.855225L671.770142,212.569519L671.711060,212.432373L671.624023,211.835571L671.548340,211.769897L671.507812,212.275696L671.458984,212.140076L671.071533,213.786377L670.697510,214.990662L670.518311,215.202393L670.696899,215.099487L670.630127,215.074951L669.235229,215.998413L665.121582,217.622375L663.610718,218.191284L662.574585,218.303833L660.901123,218.271912L656.898926,218.136719L652.785034,217.831421L649.859741,217.059082L647.169434,216.337402L640.821289,213.720764L637.818726,211.826782L633.003296,208.558655L630.997925,206.984497L630.421875,206.662720L628.193848,205.059326L627.346558,204.407837L625.829956,203.141113L625.672485,202.962097L625.337524,202.444397L624.457031,200.479736L621.739380,194.850403L620.015625,192.049866L616.413818,185.464905L613.245850,180.491394L613.528198,181.122192L613.739868,182.379761L613.526489,184.453308L611.873047,187.286926L609.862061,188.831726L610.281494,188.947144L614.686157,188.981934L635.399170,191.276062L640.999023,192.255127L646.852783,193.486328L659.780273,195.941589L667.492676,197.745422L670.168579,198.555054L671.128784,199.138489L675.073364,201.491150L676.110840,202.136169L677.119263,203.372620L677.985107,204.668579L678.675537,205.840759L679.575195,207.523804L679.916992,208.497803L680.400146,209.794434L680.458618,209.504089L680.307495,208.811768L678.601685,217.168518L677.603027,220.151733L677.217773,221.163269L676.510986,222.368835L676.398926,222.708862L676.343872,222.989990L674.825317,223.946289L673.649780,224.652100L672.033081,225.251953L667.168579,226.684937L662.704834,228.138428L662.512573,228.056335L658.253906,228.733826L657.678101,228.765259L656.256836,228.927795L652.199829,229.078125L650.181885,229.060181L646.551514,228.555786L643.676636,227.974792L641.186157,227.413025L636.730347,225.572266L629.599365,222.992920L628.124878,222.216370L626.106812,220.816895L623.986206,219.323547L621.878296,217.567200L619.294312,215.055847L615.460938,211.610840L613.046143,208.849182L610.163208,205.442810L609.909424,205.137451L609.316040,203.746460L606.643311,195.240295L603.206299,187.859192L600.808838,181.559692L600.638428,181.128540L600.680298,181.595154L601.112183,180.355652L601.464844,179.075745L601.968750,178.020691L602.341187,177.528870L603.454346,176.313416L603.024170,176.699646L602.449219,176.999207L601.464844,177.242004L602.067871,177.406189L610.361328,177.949829L615.994385,178.431702L620.254639,178.297607L623.348267,177.770081L629.557617,175.418823L633.047485,173.166992L636.083008,169.630432L637.793579,165.061035L638.061523,160.834351L637.044312,157.156616L636.468872,155.952026L633.711182,152.831665L632.615479,151.973389L626.675659,149.721069L621.952148,149.090637L605.352417,148.847961L604.100098,148.757141L603.133789,148.595520L602.706177,148.576965L602.431396,148.546021L602.069580,148.416870L601.189453,148.133118L599.718384,147.592590L598.378418,146.778503L598.225952,146.742493L598.240479,146.671387L598.108643,146.729126L598.350586,147.121399L598.543701,148.109253L598.596069,149.955933L597.789673,152.242798L596.156006,154.177368L595.855103,154.500916L597.419312,154.111206L600.008789,153.629700L600.874268,153.557617L601.327637,153.424988L603.850342,153.524719L608.932861,154.089111L619.053833,156.019043L622.531738,156.510254L623.784668,156.728271L625.426758,156.786438L627.332275,156.878906L630.377808,156.620422L633.438843,155.941406L636.317993,154.415405L637.023804,153.817261L639.623535,150.356628L639.830078,149.888489L640.438354,147.526001L640.478027,145.289368L639.634644,141.662659L638.125000,139.100586L636.219116,136.920105L633.924438,135.075867L630.364136,133.088745L626.491089,131.812744L621.813599,130.894043L618.339966,130.558655L614.078491,130.679993L612.497803,130.644043L612.219849,130.567200L612.052856,130.568787L612.048096,130.648376L612.099854,130.696411L611.463623,130.205872L611.682495,130.813354L611.929810,131.975159L611.856812,133.237305L610.777100,135.539673L608.127686,137.672791L606.382446,138.364014L609.366455,138.500793L616.474731,139.367981L626.516479,141.416626L629.820557,141.889832L632.934692,141.881592L635.742798,141.421387L638.493286,140.358215L640.812744,138.581604L642.982056,136.244385L644.346680,133.542358L645.155762,129.315063L644.427856,125.413025L643.926270,124.164490L641.850708,121.082092L639.982910,119.404419L635.829712,117.009094L630.236450,115.067078L626.305420,114.129883L622.023438,113.670532L621.529785,113.558838L621.032349,113.509644L619.824219,113.261963L620.280273,113.609436L620.673218,113.952576L621.223267,114.782410L621.543213,115.437500L621.659668,116.641541L621.166382,119.523743L619.107422,122.231262L617.323975,123.318848L618.716187,123.269897L622.240234,122.935669L629.009766,122.618896L631.597290,122.261597L635.183472,120.648071L638.170776,117.881348L638.407104,117.522766L639.474365,115.258057L639.933472,111.312012L639.056274,107.738281L638.655884,106.900818L636.102173,103.665710L633.078857,101.535889L630.692627,100.413208L627.410278,99.504639L623.662231,98.823486L624.365845,99.142578L625.942383,100.702881L627.177246,103.160583L627.369995,105.548157L626.826294,107.505859L626.039795,108.688538L625.363770,109.276611L625.304688,109.304382L627.386719,108.664673L627.749023,108.579346L629.726440,108.372070L629.799805,108.300842L630.304565,108.314026L629.987671,108.177002L629.411133,107.799255L628.903076,107.167419L628.818359,106.989685L628.950562,107.395874L629.945190,110.609070L630.250244,111.411316L631.163940,114.098816L631.481812,115.283081L632.145020,118.422852L632.259644,120.711426L632.214600,123.946411L632.275879,124.472473L631.789185,130.870544L631.650635,139.287231L631.654419,152.861206L631.636963,156.231201L631.720337,156.021484L631.959106,155.393982L632.805664,154.337341L629.531250,156.797607L628.510010,157.858704L627.098999,159.477478L625.712646,161.695068L624.822021,164.358276L624.496582,167.721985L625.222656,171.083496L626.890869,173.824036L629.338745,176.055603L630.036255,176.651855L635.729736,178.454163L640.300659,178.869995L648.331787,178.951355L652.636108,179.351318L654.617188,179.801453L660.959473,181.499878L667.591309,183.622253L671.177856,185.450195L672.570190,186.668091L676.918945,190.983154L680.341553,193.701294L682.509399,195.160034L684.120605,195.867249L683.394531,194.871277L683.558105,195.903992L683.591797,196.422607L683.547974,198.024902L684.241455,203.397278L688.247314,210.803528L687.745728,212.901367L687.769531,214.088074L687.708252,215.250183L687.623901,215.793274L687.450928,216.873413L687.437866,217.282410L687.184570,218.347473L686.949951,219.754150L686.813965,219.882751L686.552856,221.070007L686.366821,221.337830L686.300049,221.738342L685.586182,223.354980L683.931763,225.831055L682.358276,229.105347L680.883911,230.336792L679.080200,231.552795L675.960815,233.470764L674.854370,234.070862L673.014404,234.907349L670.848145,235.976990L667.455078,237.920715L662.971313,238.486633L659.514404,238.462952L655.145752,239.221619L653.045044,239.055115L646.755859,239.293945L644.429077,238.818481L638.518433,238.315979L637.371338,238.243896L635.201050,238.372498L627.560303,237.093628L626.797485,236.700745L626.489624,236.663635L620.879028,234.083313L618.831421,233.002869L616.638550,231.715027L616.321411,231.440857L613.004272,227.721802L611.401367,225.607910L609.083618,221.909058L603.446899,215.669739L599.878784,209.996277L597.018799,205.184265L593.575806,197.616028L592.627686,194.983398L591.805298,190.795044L591.055786,183.216492L590.900757,180.450928L590.912231,177.424622L591.150269,169.236572L591.597534,165.920227L591.902954,165.028809L593.459839,160.795410L595.119263,157.440979L595.305908,157.182739L596.691895,154.288513L597.419800,152.534058L598.131592,150.098450L598.528931,147.809998L599.310913,141.595642L600.665039,136.636475L601.146484,135.428772L604.630737,126.946350L608.029785,120.952942L609.790894,117.821411L610.221924,117.195862L610.198853,117.277954L612.903320,115.098206L614.835571,113.156799L617.764282,109.058655L619.977905,106.264832L623.646362,100.292603L623.699341,100.149902L624.618286,99.530640L627.139282,97.974243L628.900391,97.114502L628.714111,97.176270L628.566650,97.103149L628.385620,97.077393L629.573853,97.119263L630.200195,97.234985L631.308960,97.692505L632.420654,98.417480L632.981445,98.930542L634.812866,100.204834L635.556641,101.118652L635.394531,101.066162L635.354858,101.111450L636.494507,103.533752L636.804443,104.275024L640.832275,110.880554L641.296875,112.070312L641.865479,116.518127L642.886108,123.018066L642.893066,123.195618L642.720093,131.417603L642.475952,137.356384L642.340820,137.890564L642.525269,143.609924L642.504272,143.867615L641.645264,153.082397L641.405518,153.811035L641.590332,154.804932L641.585205,159.324768L642.256104,161.524109L642.758057,161.814575L644.001465,162.988953L644.231812,163.692749z" fill="#69984D" stroke="none" fill-opacity="1" />
				<path d="M594.599609,28.701904L594.964355,28.712891L595.324341,28.652466L595.665527,28.522949L595.974976,28.329468L596.240723,28.079224L596.452515,27.782104L596.602173,27.449219L596.684204,27.093506L596.695190,26.728760L596.634766,26.368774L596.505371,26.027588L596.311646,25.718140L596.061523,25.452393L595.764404,25.240723L595.431396,25.090942L595.075928,25.009033L594.593384,24.790039L593.974487,24.223877L591.987671,23.291992L592.655029,23.388916L593.560059,24.117554L594.140015,25.027832L594.290283,26.252930L594.215820,27.006226L594.103760,27.370239L594.527710,27.172852L596.716431,25.956543L597.703735,25.263062L598.880493,24.686890L598.909302,24.674438L600.868896,24.091187L603.171509,22.530273L602.376953,22.877686L600.892944,23.032349L600.467773,22.998291L601.562378,23.174927L602.669067,23.110474L603.735718,22.807861L604.711670,22.281494L605.550293,21.556396L606.212158,20.666870L606.665649,19.655151L606.889648,18.569214L606.872925,17.460693L606.616577,16.381958L604.694092,21.882324L598.927734,21.993896L598.823975,21.891968L598.935913,21.970459L599.871826,23.190796L599.690063,22.736938L599.495361,21.372437L599.743164,19.836304L600.210327,18.684692L600.951294,18.394653L600.956299,17.759644L600.811646,17.990967L598.092896,18.535400L595.451904,19.962280L594.133179,21.303589L593.094604,22.723389L592.455200,23.914673L591.736206,25.974976L591.390991,27.222412L591.246582,28.411133L591.285889,29.510986L591.542969,30.709106L592.352051,32.423950L593.226074,33.459717L593.916260,34.012573L595.784668,35.148560L597.406616,35.412598L598.078857,35.701538L598.946411,35.848267L600.296631,36.007080L601.565796,35.419434L603.343750,34.700439L605.015747,33.775879L607.296753,30.965576L607.102295,30.696045L606.534668,30.844360L606.344238,30.826416L604.422607,30.555542L603.000244,29.895508L601.306885,27.592773L602.412720,22.860474L600.929077,22.885498L600.359497,22.999878L599.510620,24.293823L598.537842,27.307495L597.966675,29.416992L597.763794,31.990967L598.144043,33.916992L598.241089,34.713623L598.735840,36.440308L599.976318,38.390869L601.394043,39.605103L603.035645,40.341919L605.171997,40.624146L607.042725,40.474487L608.837036,39.856445L610.828735,39.146240L611.596558,38.000732L612.612793,37.149536L613.419189,35.115234L614.256470,33.233276L614.054688,31.696777L613.675293,30.278687L613.012451,31.636475L611.535522,33.511108L608.357666,34.665039L604.626465,33.157715L603.664062,31.756348L603.667236,31.723999L604.031860,32.572998L604.524902,33.630493L605.926636,35.404663L605.987427,35.598633L608.434448,36.708008L608.488647,36.856079L610.163940,36.880005L611.767212,36.392212L611.962402,36.546143L613.073242,35.838745L613.990234,34.893677L614.663818,33.762207L615.057617,32.505493L615.183838,31.924927L615.512817,30.004761L615.688232,28.484741L614.815430,27.178955L614.812988,27.679932L612.388794,32.923462L605.509155,32.752075L604.391113,31.472656L604.241333,31.116089L604.225830,31.021729L605.574585,34.343140L606.403076,35.935059L607.199951,37.097656L606.935181,36.123779L606.958984,34.897949L607.443970,33.461914L608.550171,32.121338L609.456665,31.582153L609.911865,31.455322L608.327759,31.777832L606.542236,32.371216L604.729126,33.596802L603.545776,35.124146L602.954834,36.724976L602.900513,38.854492L603.516602,40.781860L603.780273,41.368896L604.894043,42.837280L606.930542,44.245117L608.890625,44.767700L609.539673,44.854614L611.915527,44.628540L612.774170,44.528564L611.512817,44.350708L610.523926,43.886475L609.752075,43.187012L609.280396,42.459839L608.956177,41.464844L608.899902,40.303589L609.181763,39.109375L609.620239,38.281494L609.305298,38.663330L608.673950,39.567139L607.863770,41.391602L607.572388,43.812500L607.612793,44.188843L608.553467,46.731079L608.783203,47.061646L610.968750,48.910400L611.528564,49.182617L613.493164,49.688232L614.125732,49.739624L615.720215,49.651733L615.169312,49.623047L614.320801,49.384277L613.363770,48.912720L612.608154,47.772339L611.875732,46.450073L611.778809,45.091797L612.066162,44.269653L611.949463,45.104370L611.598755,46.522217L611.583984,48.523438L611.983521,50.093628L612.934570,51.654175L614.545532,53.089355L614.467041,52.886353L615.369507,53.562134L616.283203,53.980713L616.288086,53.169922L616.487671,52.034912L616.980957,51.137695L617.956055,50.271851L619.180664,49.892700L619.682983,49.866333L619.452271,49.383911L619.854004,49.280151L620.476685,49.746948L620.338623,50.375610L620.701538,53.811523L616.750366,56.636353L615.135864,56.286743L614.812256,55.657959L615.660767,56.054565L616.909546,57.541870L617.269409,58.633301L618.133301,59.668213L619.115723,60.808228L619.299683,60.846069L620.962524,61.557739L621.065918,61.510376L622.218628,61.500000L623.307861,61.123047L623.444214,60.905640L624.204834,60.348022L624.786011,59.605103L625.143799,58.732422L625.199097,58.319580L625.307495,57.742432L625.430908,55.680908L625.418091,55.138794L625.370728,54.667236L625.365601,54.750732L621.542480,58.408936L618.471191,54.810913L618.485474,55.708130L618.536743,56.254517L618.713135,57.475708L618.877197,58.176392L619.533813,60.103149L620.337402,62.573730L621.420898,65.471313L623.137451,68.387085L623.830322,70.076416L624.623779,72.181396L625.225098,73.040527L625.443115,73.354004L625.512695,73.540039L625.644653,73.841064L625.663574,73.994263L625.711792,74.140625L625.787842,74.274780L625.888550,74.391479L626.010132,74.486450L626.147949,74.555664L626.296387,74.596802L626.450195,74.608154L626.603149,74.589355L626.749634,74.541016L626.883789,74.464966L627.000488,74.364258L627.095459,74.242798L627.164673,74.104980L627.205811,73.956421L627.217285,73.802612L627.334106,73.479370L627.377686,73.225586L627.533569,72.812378L627.863159,71.637329L627.496338,69.339233L627.550537,67.437988L627.158813,63.819580L626.715454,61.151001L626.461670,58.438965L625.715088,56.228760L625.656128,56.047119L625.454956,55.214722L625.390381,54.909302L625.387573,55.134888L625.376709,55.315796L625.372803,54.601074L625.222046,53.902344L624.930786,53.249756L624.511475,52.670898L623.981934,52.190796L623.364990,51.829834L622.687134,51.603638L621.976929,51.521729L621.265259,51.587769L620.582275,51.798706L619.957520,52.145630L619.417358,52.613770L618.985229,53.183105L618.679321,53.829224L618.512939,54.524170L618.521973,54.559326L618.628418,55.967896L618.603516,55.824463L618.572754,55.618530L618.571045,55.565430L618.543945,56.994995L618.576050,56.821655L619.092285,55.750122L621.001953,54.458862L622.946533,54.622925L624.198730,55.435547L624.101074,54.567749L622.649292,53.099731L620.935303,51.424561L620.445923,50.209717L619.437012,48.897705L617.912720,48.235352L615.961060,48.192139L615.909790,48.295410L615.018799,48.591797L614.216431,49.079590L613.543335,49.734375L613.033447,50.522827L612.712524,51.405273L612.596558,52.337158L612.691772,53.271240L612.993164,54.160645L613.485596,54.960205L613.480957,54.774658L612.992065,54.906006L613.949463,55.881836L615.291992,56.530029L617.727905,57.068970L619.115723,57.279419L620.627075,57.136597L621.021851,57.053345L622.598633,56.088379L622.740356,55.971558L623.494385,54.947510L623.960938,53.558350L623.884888,52.024170L623.927612,51.575928L623.453125,49.070679L622.333984,46.823120L621.621216,45.893555L620.927856,45.204102L621.526001,45.940308L621.972900,47.070801L622.121460,48.159668L622.030518,49.060059L622.622681,48.436035L623.172852,47.055420L623.274048,45.315796L622.651733,43.436768L621.597534,41.538452L621.271484,40.949097L619.222778,39.499878L617.327637,38.798706L615.868896,38.627808L614.373169,38.757812L615.223022,38.897339L616.829834,39.765503L618.202148,41.715576L618.465088,43.896118L618.154663,45.098877L617.881348,45.595337L618.420410,45.048950L619.305298,43.701538L619.883301,42.085571L620.009033,40.248535L619.541626,38.151123L618.742798,36.639648L617.604004,35.342773L615.647461,34.098633L613.516846,33.522095L610.231934,33.859497L609.610229,34.057739L610.651611,34.224976L611.801147,34.831299L612.621948,35.683105L613.048218,36.672363L613.234375,38.137573L612.932007,39.542236L612.232666,40.755859L611.228882,41.666870L610.459106,42.054077L611.804199,41.994141L612.894653,41.753906L614.532227,41.066895L616.274902,39.613647L616.544556,39.301147L617.475708,37.497192L617.532349,37.320312L617.790283,35.549561L617.330078,33.034180L615.814697,30.353394L615.633911,30.082397L614.569580,26.928955L614.369751,26.405640L614.174194,25.849243L613.360352,24.558105L611.667114,23.219971L611.658813,23.149658L610.472778,22.692749L609.215454,22.507080L607.947998,22.601807L606.732300,22.972168L605.627441,23.600220L604.687134,24.455322L603.957275,25.495850L603.473755,26.671143L603.259521,27.923950L603.325317,29.193237L603.238037,29.096558L603.143433,29.063232L603.292725,31.308960L603.684814,31.149414L603.950928,30.523438L605.011841,28.015991L608.642090,26.124390L611.512451,26.666992L613.260742,28.169312L613.685181,28.754883L613.511108,28.123291L613.467896,27.950928L613.177612,27.158081L612.080933,25.595093L610.502197,24.520996L610.319336,24.354248L608.740112,23.927124L607.105591,23.993408L605.566284,24.547241L605.467773,24.541504L603.852783,25.879150L603.707886,25.959106L602.517334,28.693604L602.133179,29.304565L601.898682,31.583374L601.594604,31.553955L602.020874,31.671021L602.050659,31.500610L602.648804,31.197876L602.920776,30.508545L603.688232,30.625488L604.196167,30.469360L604.669312,30.497925L605.317383,30.572266L606.254272,30.885132L607.053101,31.453979L607.579956,32.161011L607.861816,32.858154L607.829102,32.361694L607.588135,31.281372L607.605957,31.815308L607.885620,31.825928L608.827393,31.527588L608.962524,31.789551L608.589478,31.739746L609.313721,29.963623L610.575684,28.864868L611.119751,27.814331L611.412720,26.668091L611.439331,25.485352L611.198608,24.327148L610.702393,23.253174L609.976807,22.318848L609.059082,21.572266L607.996460,21.052124L608.647217,21.496826L609.211060,21.991089L607.779297,21.190552L606.164917,20.899170L605.972778,20.895874L604.107788,21.088745L602.403809,21.582886L600.358276,22.612427L597.740723,24.356689L597.795532,24.505737L597.861572,24.534180L597.858398,24.270996L597.771606,24.658936L597.736328,24.862793L597.929688,25.141357L598.245850,25.206665L598.774414,25.717896L599.519043,26.194580L600.000366,26.708618L600.419922,27.463989L600.641602,28.138062L600.704224,28.727295L600.689941,29.118652L600.638794,29.473389L601.182007,28.813232L601.288574,28.850952L601.285400,29.131592L601.360352,29.446167L601.997314,29.161865L604.272705,28.213379L605.786499,27.768677L606.631958,26.673706L607.571777,26.314087L608.492554,24.892700L609.301636,23.115723L609.295776,22.676147L609.357300,20.673096L609.289551,20.263428L608.461548,18.176147L606.748535,15.738159L605.821899,14.705444L605.378296,14.291504L604.781982,13.799683L603.861816,13.241455L602.844116,12.891113L601.775513,12.764893L600.704224,12.868042L599.679199,13.196045L598.747314,13.734131L597.950562,14.457642L597.325562,15.333740L596.900635,16.322632L596.695190,17.379028L596.718384,18.454834L596.969604,19.501343L598.092407,14.625366L602.568726,12.985352L600.460938,12.855835L600.049805,12.892578L598.045410,13.607666L596.252319,14.965088L594.444824,15.913940L593.347290,16.611694L592.309326,17.468994L590.982178,18.639648L589.123657,20.542847L588.064331,21.701660L587.176758,23.016113L586.600220,24.704712L586.445801,26.261719L586.516724,26.430176L587.116455,28.007568L588.208984,29.410889L588.567261,29.654175L589.814575,30.309570L590.503296,30.404053L593.891113,29.319580L594.163208,28.800415z" fill="#754032" stroke="none" fill-opacity="1" />
				<path d="M627.249878,70.936035L627.128174,70.634277L626.949829,70.361816L626.722046,70.129517L626.453247,69.946167L626.153809,69.818848L625.835205,69.752319L625.509888,69.749146L625.190186,69.809692L624.888306,69.931152L624.615967,70.109497L624.383789,70.337402L624.200439,70.606201L624.072998,70.905640L624.006470,71.224121L624.003296,71.549561L624.063721,71.869263L623.815674,72.646729L624.183594,72.648315L624.299316,74.185181L624.446655,74.561890L624.664673,74.902344L624.944824,75.193970L625.276733,75.425171L625.647095,75.587280L626.042114,75.673950L626.446289,75.682007L626.844482,75.610962L627.221069,75.463623L627.561523,75.245605L627.853149,74.965454L628.084351,74.633667L628.246460,74.263184L628.333130,73.868286L628.341187,73.463867L628.270142,73.065796L627.598267,71.804199L627.923584,71.620239z" fill="#754032" stroke="none" fill-opacity="1" />
			</g>
			<g id="layer.Layer.uuid_0x2">
				<path d="M653.651978,163.911499L653.635498,164.035522L653.643433,164.160339L653.675659,164.281189L653.730591,164.393494L653.806641,164.492798L653.900635,164.575439L654.008667,164.638184L654.127197,164.678589L654.251221,164.695129L654.375977,164.687134L654.496826,164.654968L654.609253,164.599854L654.708374,164.523865L654.791138,164.429993L654.853760,164.321777L654.894165,164.203491L657.725830,154.860168L659.458618,144.198181L660.200195,135.320618L660.265381,130.110718L659.796143,122.843506L656.849365,107.154358L655.542725,103.898804L654.963989,101.859009L653.439819,98.597778L650.329102,93.168823L647.968506,90.086182L645.713257,87.225098L640.958862,82.961670L638.562744,81.361572L635.534668,79.846436L631.460449,78.867188L628.748169,78.656372L626.816650,78.923828L625.015015,79.142456L622.182007,79.984375L618.309082,81.678467L615.391724,83.403076L613.469971,84.783203L611.578857,86.149902L608.794800,88.692749L605.185669,92.470825L603.359009,94.497925L601.640015,96.761841L599.949463,98.852539L598.315063,101.175049L596.706055,103.336975L595.174194,105.694275L592.886108,109.167175L591.469116,111.700317L587.603027,118.906982L585.847290,122.834656L582.607300,130.596375L581.586548,133.299683L578.208862,142.228638L577.364258,144.935852L576.521729,147.438904L575.402100,151.346008L574.113159,156.538818L573.518677,159.197327L573.078857,161.997498L572.624390,164.640076L572.309937,167.440369L571.881226,171.554749L571.779785,174.435120L571.649414,177.201050L571.692383,180.081665L571.702148,182.807678L572.109375,189.775818L572.842896,195.470520L574.261230,202.653259L575.831421,208.403442L578.340820,215.698669L580.875122,221.426697L583.133301,225.665405L585.565552,229.640564L588.142334,233.401245L590.995239,236.846558L595.110107,241.098877L600.465454,245.636475L602.864502,247.264771L605.074585,248.698120L607.528198,249.975891L611.186279,251.711670L615.104248,253.138550L621.521973,255.057556L628.102417,256.493713L632.151123,257.061035L634.785156,257.420044L642.748169,257.899841L650.685913,258.049622L653.421997,257.914917L655.909180,257.845520L660.573120,257.393066L662.814575,257.169861L666.182373,256.523193L671.627075,255.224670L676.737061,253.690308L679.781372,252.472046L683.539062,250.685974L686.949585,248.692749L690.050293,246.467163L693.593506,243.458618L696.604126,240.211853L698.711060,237.422424L700.165894,235.111572L702.124268,231.061218L703.094727,228.581482L703.912231,226.040894L704.448730,224.389160L706.051636,217.179016L706.559570,212.580627L706.662231,210.576660L706.629272,209.984131L706.554443,207.730957L706.344360,205.970215L706.186279,204.560303L705.738037,202.383484L704.434082,197.511658L703.198608,193.937256L701.243774,189.586731L699.448853,186.402954L697.454712,183.487000L695.313843,180.863586L692.949829,178.434326L690.393433,176.258606L685.931763,172.797974L678.395142,168.088745L671.545288,164.625183L665.903442,162.448059L664.927124,162.182861L662.669922,161.519165L662.047241,161.430237L659.876709,160.981628L659.265991,160.930054L657.060547,160.613464L656.423828,160.617554L653.523682,160.414734L652.888184,160.469360L650.684814,160.718567L648.596558,161.001221L645.060669,161.693420L641.815552,162.857910L639.697388,163.950439L637.224731,165.189636L636.431030,165.621216L634.706787,166.687561L634.163696,167.015076L627.538330,171.664429L627.404175,171.763306L627.291992,171.886597L627.205811,172.029358L627.149170,172.186279L627.124390,172.351196L627.132202,172.517700L627.172241,172.679565L627.243164,172.830444L627.342163,172.964539L627.465332,173.076904L627.608154,173.162964L627.765137,173.219482L627.929932,173.244324L628.096558,173.236694L628.258423,173.196533L628.409180,173.125610L635.582031,169.552246L636.038940,169.334412L637.813721,168.691162L638.647217,168.410950L641.249756,167.350586L643.085693,166.620422L645.853271,166.024658L649.029175,165.740601L650.818848,165.744690L652.814209,165.949280L653.257812,166.028992L655.962769,166.141296L656.427368,166.248657L658.483765,166.440125L658.936279,166.548645L660.949341,166.835327L661.366821,166.969055L663.401001,167.373718L664.085938,167.626709L669.306763,169.433777L675.692871,172.612915L682.758545,177.135498L686.948608,180.320251L689.142822,182.319275L691.214966,184.414673L693.083008,186.637329L694.809448,189.159607L696.366699,191.929993L698.149658,195.846313L699.282837,198.993164L700.473267,203.513611L700.825439,205.404846L701.039551,206.591614L701.177368,208.081482L701.314697,210.062927L701.283691,210.508850L701.312866,212.098389L700.792358,216.155579L699.290649,222.970276L698.916626,224.411133L698.109619,226.676636L697.235840,228.823608L695.499878,232.470703L694.414795,234.391296L692.660278,236.759033L690.043945,239.582764L686.917603,242.334900L684.214478,244.300232L681.236816,246.067383L677.818115,247.641357L675.089355,248.644836L670.328979,250.137573L665.194336,251.353088L662.051758,251.847900L660.055054,252.184448L655.588989,252.537292L653.246338,252.713135L650.695679,252.724731L643.033203,252.687134L635.350952,252.083984L632.911987,251.840088L629.174072,251.195862L622.959961,249.832825L616.902222,248.069031L613.380859,246.697083L610.018921,245.205078L607.903564,243.992554L605.894287,242.800598L603.910889,241.355713L598.963501,237.186829L595.193848,233.249146L592.624756,230.097839L590.157593,226.739624L587.941406,223.045044L585.911255,219.102112L583.574219,213.763855L581.166992,206.855652L579.718018,201.465149L578.347900,194.672180L577.687988,189.338562L577.244751,182.630798L577.139771,180.049011L577.179688,177.317261L577.202637,174.694153L577.405640,172.007507L577.712402,168.077637L578.089111,165.436218L578.421143,162.908569L578.942383,160.277893L579.411865,157.799866L580.655273,152.812439L581.757202,149.047241L582.463257,146.606628L583.360718,144.080383L586.541992,135.211182L587.597900,132.611206L590.650391,124.947449L592.324219,121.276733L595.877686,114.208496L597.298706,111.900024L599.367676,108.466919L600.909180,106.248169L602.337891,104.069763L603.981201,101.880371L605.473022,99.781738L607.200562,97.726196L608.767822,95.789062L612.134644,92.243896L614.704834,89.939941L616.252808,88.563354L617.933228,87.370361L620.356445,85.825195L623.628784,84.289185L625.964111,83.600220L627.328491,83.242065L628.787842,83.195801L630.732300,83.126465L633.914429,83.818359L636.383423,84.937500L638.290894,86.195068L642.685669,90.072632L645.023682,92.407104L647.116699,95.220337L650.237305,100.171021L651.568115,103.176575L652.414307,105.032043L653.330933,107.993835L656.531372,123.204346L657.215088,130.177551L657.298706,135.172363L656.825684,143.846313L655.267090,154.331848z" fill="#000000" stroke="none" fill-opacity="1" />
				<path d="M627.515991,74.757202L627.526245,74.836914L627.551758,74.913208L627.591919,74.982788L627.644653,75.043335L627.708374,75.092407L627.780396,75.128296L627.857910,75.149170L627.938110,75.154663L628.017944,75.144409L628.093994,75.118774L628.163818,75.078735L628.224365,75.025879L628.273438,74.962280L628.309204,74.890259L628.330078,74.812622L628.335449,74.732544L628.344849,72.731323L628.404907,71.696289L628.370972,70.839966L628.479248,68.131592L628.139038,65.097534L628.024414,63.942627L627.532715,60.987549L627.048950,57.742554L626.164673,53.634155L625.170410,49.239502L623.630615,44.083008L622.768799,41.426025L621.835571,38.809692L619.287720,33.152466L617.903687,30.460327L616.744873,28.337524L615.363770,26.034790L613.792847,23.720337L612.304321,21.744873L608.837402,17.691650L606.822998,15.425903L605.259521,13.730103L603.223633,11.583252L603.021240,11.410156L602.788940,11.279907L602.535767,11.197388L602.271240,11.165894L602.005859,11.186646L601.749634,11.258789L601.512207,11.379517L601.302979,11.544189L601.130005,11.746582L600.999634,11.978882L600.917236,12.231934L600.885864,12.496460L600.906372,12.761963L600.978638,13.018311L601.099365,13.255615L601.263916,13.464844L603.299561,15.558228L604.826050,17.207886L606.760498,19.420532L609.963745,23.540161L611.364136,25.413818L612.860474,27.613159L614.219238,29.772217L615.359863,31.808594L616.705933,34.347534L619.114990,39.871460L620.086060,42.363647L620.994507,44.890625L622.462891,49.944458L623.622925,54.201782L624.486816,58.237671L625.193604,61.387817L625.677979,64.311890L625.913574,65.424805L626.437988,68.375244L627.131226,70.940430L627.216553,71.765503L627.386475,72.765747z" fill="#000000" stroke="none" fill-opacity="1" />
				<path d="M602.188477,12.703613L602.323486,12.608398L602.437500,12.488525L602.525757,12.348755L602.585205,12.194580L602.613159,12.031616L602.609009,11.866333L602.572632,11.705200L602.505615,11.554077L602.410400,11.418945L602.290527,11.305054L602.150757,11.216797L601.996582,11.157349L601.833618,11.129150L601.668335,11.133423L601.507080,11.169800L601.356079,11.236938L598.494995,12.851440L597.848877,13.486084L596.884277,14.212280L593.818359,16.230835L593.025635,16.776001L590.423218,19.073975L587.026367,22.568481L584.688110,25.004028L584.044189,26.109497L583.870483,26.380249L583.753052,26.679688L583.696167,26.996094L583.702271,27.317627L583.770996,27.631836L583.899536,27.926514L584.083252,28.190552L584.314819,28.413574L584.585571,28.587158L584.884888,28.704590L585.201416,28.761475L585.522827,28.755249L585.837036,28.686768L586.131714,28.557983L586.395752,28.374390L586.618774,28.142822L587.490479,27.330322L589.390381,24.748779L592.597778,21.293335L594.945923,18.855469L595.516357,18.157104L597.893555,15.433105L598.783691,14.652710L599.391968,14.296631z" fill="#000000" stroke="none" fill-opacity="1" />
				<path d="M624.114014,73.546631L624.148438,73.628784L624.198120,73.702515L624.261353,73.765259L624.335327,73.814453L624.417725,73.848145L624.505127,73.865112L624.593994,73.864868L624.681274,73.847168L624.763306,73.812866L624.837036,73.763184L624.899780,73.699951L624.948853,73.625854L624.982788,73.543457L624.999878,73.456055L624.999390,73.367188L624.981812,73.280029L624.781128,72.184814L624.198608,70.666138L623.409912,67.690796L622.899902,66.172852L621.514526,63.313110L620.389282,61.053101L618.788574,58.451782L617.164673,55.743164L615.021362,52.737183L612.855957,49.716064L610.179810,46.499512L608.855835,44.901489L607.520020,43.341919L602.827515,38.640015L599.531738,35.594360L595.881714,32.818481L592.396851,30.267212L588.943604,28.152466L583.019775,24.962646L582.793091,24.868652L582.552490,24.820801L582.307251,24.820923L582.066406,24.868774L581.839844,24.962769L581.635742,25.098999L581.462280,25.272583L581.325928,25.476562L581.232056,25.703369L581.184204,25.943848L581.184204,26.189331L581.232056,26.429932L581.326050,26.656738L581.462280,26.860718L581.635742,27.034180L581.839844,27.170532L587.664062,30.262695L590.932007,32.393677L594.374756,34.754517L597.755371,37.625488L601.011230,40.478516L605.525635,45.162231L606.880493,46.622681L608.226440,48.112671L610.773193,51.320068L613.035156,54.155762L615.075928,57.123779L616.839111,59.642822L618.336792,62.215820L619.623657,64.295898L621.076416,67.026611L621.847168,68.324829L623.254150,70.987793L623.666382,72.532227z" fill="#000000" stroke="none" fill-opacity="1" />
			</g>
			<g id="layer.Layer.002.uuid_0x3">
				<path d="M53.195312,158.819763L53.187927,158.679382L53.153442,158.543213L53.092957,158.416321L53.009033,158.303528L52.904602,158.209473L52.783875,158.137512L52.651367,158.090454L52.512329,158.070251L52.371887,158.077454L52.235718,158.112000L52.108765,158.172485L51.996033,158.256470L51.901978,158.360840L51.829956,158.481628L51.783081,158.614075L51.762756,158.753235L50.794800,169.817749L50.743652,174.465088L50.695190,178.875427L51.299622,191.221802L52.775513,206.536560L53.259399,210.422119L53.969360,214.447998L55.357666,223.257385L55.463684,223.658142L55.645691,224.030640L55.896790,224.360352L56.207520,224.634766L56.565857,224.843262L56.957825,224.977844L57.368591,225.033447L57.782288,225.007812L58.183105,224.901855L58.555542,224.719788L58.885315,224.468689L59.159790,224.157959L59.368286,223.799683L59.502808,223.407715L59.558472,222.996826L59.532715,222.583069L58.075806,213.773499L57.396179,209.744751L56.663330,206.051331L54.710693,190.967957L53.799927,178.732422L53.394165,174.392090L53.134094,169.885742z" fill="#000000" stroke="none" fill-opacity="1" />
				<path d="M12.970215,174.044373L13.002319,174.115112L13.047607,174.178223L13.104431,174.231201L13.170410,174.272217L13.243225,174.299500L13.319702,174.312073L13.397400,174.309448L13.473022,174.291687L13.543762,174.259644L13.606873,174.214233L13.659851,174.157532L13.700928,174.091553L13.728210,174.018860L13.740662,173.942200L13.738098,173.864502L13.720276,173.788879L12.687195,170.485291L12.370667,168.740662L12.507385,165.680603L13.597046,160.554382L15.261536,157.137817L19.491272,151.911316L21.200867,150.438965L22.659729,149.128540L24.946960,147.646484L26.133301,146.758118L29.502380,145.007141L37.162537,142.043457L40.667114,141.014893L48.288940,139.642761L54.369385,139.127319L62.868896,138.871094L68.992310,139.228027L74.441223,140.327698L79.045837,141.873779L80.131836,142.426270L82.932617,144.409546L83.730103,145.499451L84.762756,147.101746L85.419800,148.951477L85.829224,150.334534L85.423584,153.343262L84.423645,156.099976L82.676514,158.822449L80.273132,162.157837L77.302856,165.347595L74.007629,168.762329L66.627930,174.921021L55.782654,182.509216L45.868652,187.732544L45.559570,187.931335L45.295349,188.186584L45.085754,188.488586L44.939087,188.825500L44.861206,189.184631L44.854675,189.552124L44.920105,189.913757L45.054688,190.255554L45.253479,190.564636L45.508789,190.828979L45.810608,191.038513L46.147644,191.185120L46.506775,191.263062L46.874207,191.269592L47.235779,191.204163L47.577698,191.069519L57.722595,186.019531L69.153503,178.409607L76.703003,171.791504L80.345886,168.308289L83.334229,164.760071L86.103271,161.265320L87.917603,158.003540L89.453125,154.658386L89.828613,150.409241L89.530151,147.936890L88.537354,145.457764L87.311401,143.185486L85.953613,141.600159L82.502563,138.872864L80.715637,138.041443L75.662659,136.270569L69.603882,135.249573L63.055908,134.710083L54.167969,134.953674L47.801392,135.742615L39.889587,137.235657L36.004333,138.192566L27.956299,141.465576L24.302307,143.623596L22.818542,144.496277L20.533264,146.304077L18.799683,147.727295L17.060242,149.594238L12.874268,155.563110L11.256958,159.719177L10.549744,165.483704L11.167175,168.887024L11.754761,170.741699z" fill="#000000" stroke="none" fill-opacity="1" />
				<path d="M241.664185,155.641724L241.651367,155.521545L241.615356,155.406128L241.557495,155.299927L241.480103,155.207092L241.385986,155.131104L241.278931,155.075012L241.162964,155.040833L241.042480,155.029907L240.922485,155.042664L240.807007,155.078796L240.700806,155.136536L240.607910,155.214050L240.531982,155.308044L240.475952,155.415161L240.441650,155.531067L240.430908,155.651489L240.150757,164.957703L240.119263,166.708496L239.765503,171.727234L239.848633,173.002991L239.541382,180.691040L239.078613,191.139465L238.988892,193.713623L239.088623,198.560547L240.659546,216.894592L240.868896,221.728027L240.919556,222.103088L241.042480,222.461060L241.232788,222.788086L241.483276,223.071777L241.784424,223.301147L242.124390,223.467346L242.490234,223.564026L242.867920,223.587402L243.243042,223.536743L243.600830,223.413879L243.927979,223.223572L244.211792,222.973022L244.441040,222.671997L244.607178,222.332031L244.703857,221.966187L244.727417,221.588440L244.584839,216.698059L242.798584,198.397888L242.631348,193.665771L242.500854,191.187012L242.482666,180.750183L242.431763,173.037354L242.524048,171.733887L242.162109,166.701538L242.091553,164.940735z" fill="#000000" stroke="none" fill-opacity="1" />
				<path d="M219.561279,169.098083L219.570801,169.202637L219.600464,169.303223L219.649048,169.396240L219.715088,169.477844L219.795532,169.545044L219.887817,169.595276L219.988037,169.626648L220.092285,169.637573L220.196899,169.628235L220.297485,169.598633L220.390503,169.549805L220.472046,169.483826L220.539429,169.403259L220.589600,169.311096L220.620728,169.210999L220.631958,169.106628L220.673096,165.115173L221.114380,163.300232L223.474854,159.306091L228.040283,155.915649L232.286743,154.066162L234.234619,153.305237L237.107300,152.703735L238.680176,152.269653L242.812134,151.908142L245.207275,151.945374L246.309570,151.859192L251.292725,152.651489L254.925537,153.751831L257.678833,155.123230L259.617676,156.247681L261.434814,157.797546L263.428711,159.628723L264.866943,161.476318L267.107910,165.630676L267.856201,169.559509L267.036621,173.417847L264.778809,177.065613L263.658813,178.447144L261.509155,180.236389L259.750977,181.641785L257.660034,182.942322L255.171753,184.453064L241.975464,190.856201L241.302612,191.397034L240.496826,192.556580L240.124268,193.391846L239.890381,194.575500L239.975952,195.535034L240.454834,197.047180L240.853760,197.703430L242.494263,199.297485L246.127319,202.251587L248.688232,204.023926L256.965088,208.379395L271.360962,216.266113L277.635864,218.853577L284.626953,220.551697L286.667969,220.968384L290.352051,221.501648L290.685547,221.524170L291.017212,221.481079L291.333984,221.374207L291.623779,221.207581L291.875488,220.987610L292.079590,220.722717L292.228027,220.423157L292.315063,220.100342L292.337524,219.766724L292.294434,219.435181L292.187622,219.118408L292.020996,218.828491L291.801025,218.576843L291.536133,218.372742L291.236450,218.224365L290.913696,218.137329L287.318970,217.455078L285.445801,217.119202L278.933716,215.361206L273.062012,212.924011L258.684570,205.192017L250.640503,200.896545L248.314209,199.442200L245.087402,196.735291L243.948975,195.371948L243.619629,194.726562L243.640015,194.458984L244.037964,194.110229L256.916504,187.887024L259.689819,186.373230L261.927490,184.904785L264.025146,183.419067L266.303101,181.161133L267.834106,179.465637L270.429077,175.079651L271.564941,169.955627L271.573242,169.250854L270.778442,164.663818L268.150757,159.509094L266.221558,157.192688L264.009033,154.987549L261.850464,153.318298L259.642944,151.788208L256.338379,150.376587L252.250488,149.053101L246.677490,148.399109L245.265991,148.245972L242.681763,148.316833L238.205444,149.019897L236.348877,149.299500L233.355591,150.231689L231.089478,150.984253L226.578003,153.284912L221.782959,157.686096L221.479126,158.079956L219.728882,162.771423L219.588623,165.003479z" fill="#000000" stroke="none" fill-opacity="1" />
				<path d="M316.994385,144.599365L317.019165,144.457458L317.015747,144.313538L316.984497,144.172974L316.926270,144.041199L316.843506,143.923340L316.739380,143.823853L316.617798,143.746704L316.483521,143.694641L316.341553,143.669800L316.197632,143.673218L316.057007,143.704590L315.925293,143.762756L315.807373,143.845520L315.708008,143.949646L315.630737,144.071289L315.578857,144.205566L314.602417,147.080811L313.623047,151.222290L311.292847,158.972107L310.186157,162.744019L308.605469,169.618225L307.450684,174.370483L305.378540,188.999207L305.068481,195.752258L305.880249,201.928162L307.894165,207.634705L311.048584,212.889587L315.349121,217.134583L318.909424,219.417664L322.559326,221.202942L330.264038,222.705078L336.477295,222.092163L340.563110,220.981689L344.668457,218.839844L350.583618,214.724121L354.161987,211.028625L357.386719,207.535217L362.167725,200.689392L362.330444,200.408997L362.435425,200.102417L362.478516,199.781128L362.458130,199.457703L362.374756,199.144348L362.232178,198.853394L362.035522,198.595703L361.792358,198.381470L361.512085,198.218689L361.205322,198.113831L360.884155,198.070740L360.560669,198.091125L360.247437,198.174316L359.956299,198.317017L359.698730,198.513672L359.484253,198.756775L354.656738,205.237244L351.778931,208.623901L348.225098,211.671753L342.908691,215.611816L339.244141,217.267944L335.912720,218.434021L330.703369,218.923218L323.949707,217.602539L320.827759,216.267822L317.938721,214.223816L314.240356,210.579163L311.297852,206.219910L309.628662,201.233215L308.893921,195.657166L308.742554,189.361877L310.747559,174.995605L311.548706,170.262146L313.033569,163.389282L313.663940,159.536621L315.118652,151.614685L316.346436,147.562256z" fill="#000000" stroke="none" fill-opacity="1" />
				<path d="M289.077515,180.121338L288.972778,180.175049L288.880249,180.248230L288.803955,180.337891L288.746704,180.440857L288.710449,180.552979L288.696899,180.669983L288.706299,180.787415L288.738647,180.900757L288.792358,181.005615L288.865356,181.098022L288.955200,181.174377L289.058105,181.231750L289.170166,181.267883L289.287231,181.281494L289.404663,181.272034L289.518066,181.239807L292.413452,180.222595L297.570312,178.102722L304.598755,175.760437L307.586182,174.666443L316.346802,171.359985L322.725464,168.831909L353.040283,157.665588L358.229370,155.673401L358.510864,155.539001L358.760620,155.352295L358.969360,155.120483L359.128906,154.852417L359.232788,154.558350L359.277466,154.249634L359.261108,153.938171L359.184326,153.635864L359.049927,153.354370L358.863159,153.104614L358.631348,152.895935L358.363281,152.736511L358.069214,152.632568L357.760498,152.587830L357.449097,152.604248L357.146851,152.681091L351.869385,154.475647L321.797241,166.425537L315.390503,168.939514L306.743286,172.543579L303.819214,173.797668L297.100952,176.916077L291.888794,178.891418z" fill="#000000" stroke="none" fill-opacity="1" />
				<path d="M399.359497,185.165100L399.301880,185.060669L399.225098,184.969604L399.132080,184.895142L399.026245,184.840393L398.911865,184.807190L398.793091,184.797119L398.674561,184.810242L398.560913,184.846313L398.456543,184.903931L398.365479,184.980713L398.291016,185.073669L398.236206,185.179626L398.203125,185.294128L398.192993,185.412781L398.206177,185.531250L398.242310,185.644836L400.414185,190.607971L401.123413,192.628967L403.846802,199.619263L407.278076,207.928589L409.026245,213.126343L409.729980,218.236755L409.537964,223.144226L408.781738,226.414856L407.315430,229.392517L405.381714,232.571838L402.761353,235.472839L397.892456,239.682129L394.218384,241.818787L392.256714,242.765808L386.152588,244.946411L379.370972,245.903381L372.196899,245.183472L365.328247,243.301880L359.178345,240.630615L351.477417,235.458618L351.210449,235.307190L350.919189,235.210815L350.614624,235.173096L350.308594,235.195618L350.012817,235.277344L349.738647,235.415100L349.496582,235.603821L349.296265,235.836060L349.144775,236.103088L349.048462,236.394348L349.010620,236.698853L349.033081,237.004883L349.114868,237.300720L349.252686,237.574829L349.441284,237.816895L349.673584,238.017395L357.257080,243.620361L363.764404,246.981934L371.245117,249.235779L379.240723,249.875549L386.899902,249.008057L393.776733,246.634338L396.142334,245.376770L400.010498,242.817932L405.404419,238.354126L408.289429,234.901184L410.672119,231.359314L412.140137,227.731079L413.227173,223.875916L413.444214,218.159241L412.152100,212.423035L410.258423,206.834595L406.168091,198.552612L402.451904,192.036865L401.462402,190.156372z" fill="#000000" stroke="none" fill-opacity="1" />
				<path d="M432.163696,167.434265L432.186523,167.307373L432.183960,167.178467L432.156494,167.052490L432.104858,166.934326L432.031128,166.828613L431.938232,166.739136L431.829712,166.669556L431.709717,166.622498L431.582886,166.599792L431.453857,166.602234L431.328003,166.629822L431.209839,166.681458L431.103882,166.755127L431.014526,166.848022L430.945068,166.956482L430.897949,167.076599L429.854858,170.161621L428.986694,173.888611L428.533813,175.753357L428.367188,177.374146L428.098511,179.898376L428.129639,181.132812L428.067993,187.152527L429.036621,195.645508L431.993896,205.868164L435.944458,215.182007L438.163940,218.718384L439.423950,220.399170L440.603394,221.577026L443.535034,224.496887L447.056519,226.757019L450.555176,228.049255L452.796265,228.234863L454.601440,228.311890L458.348389,227.513672L462.056396,225.850647L465.458496,223.426453L469.655884,218.725281L472.755737,212.549194L473.657104,210.489319L474.171387,208.833069L475.390259,204.803894L475.532227,203.691223L476.720581,198.514709L476.790161,197.488953L477.595215,193.548828L478.121826,190.083374L479.186035,180.881775L478.861206,176.358215L478.103027,172.218811L476.491333,168.368042L474.735718,166.153259L474.299805,165.753723L472.404541,164.546021L471.720215,164.333130L470.729248,164.260498L469.929443,164.426270L468.149414,165.412964L467.836670,165.628113L467.589722,165.916199L467.424683,166.257874L466.484985,168.946106L466.318115,171.075745L466.471802,172.510254L466.999146,176.253601L474.685059,198.667175L480.704956,218.905090L480.823608,219.201477L480.997681,219.468994L481.220581,219.697388L481.483887,219.877869L481.777344,220.003601L482.089722,220.069702L482.408691,220.073486L482.722534,220.015015L483.018921,219.896484L483.286377,219.722412L483.514771,219.499390L483.695312,219.236145L483.821045,218.942688L483.887207,218.630432L483.890869,218.311279L483.832520,217.997498L478.070190,197.635071L470.189697,175.493103L469.329224,172.304321L469.413940,171.130127L469.428223,169.692505L470.024658,167.754761L470.941528,167.297607L471.167725,167.316650L472.541260,168.110107L473.538208,169.785950L474.785400,173.019714L475.454102,176.574219L475.301880,180.582581L474.360352,189.531067L473.798584,192.906067L473.243530,196.840332L472.951172,197.755920L472.015747,202.867493L471.661377,203.785828L470.647583,207.634094L470.030396,209.118713L469.425781,210.950073L466.525513,216.324524L463.028687,220.413574L460.262695,222.338379L457.285156,223.638184L454.292847,224.290955L453.074951,224.437134L451.666504,224.183960L449.012817,223.248291L446.159058,221.416870L443.348389,218.956848L442.468872,217.887085L441.358887,216.573425L439.414185,213.487183L435.375366,204.757935L432.532227,195.020996L431.163330,186.985779L430.810303,181.164062L430.899048,180.005127L430.844727,177.566895L430.962646,176.013184L430.925171,174.216797L431.447876,170.573486z" fill="#000000" stroke="none" fill-opacity="1" />
				<path d="M492.730103,133.574097L492.687988,133.482544L492.628784,133.401001L492.554932,133.332458L492.468994,133.279785L492.374512,133.244812L492.275024,133.228943L492.174316,133.232849L492.076416,133.256226L491.984741,133.298401L491.903320,133.357544L491.834839,133.431396L491.782104,133.517334L491.747070,133.611816L491.731323,133.711243L491.735107,133.812012L491.758545,133.909912L492.884277,137.732056L493.719849,139.535828L495.012451,145.037659L498.577026,164.834656L500.639648,179.501221L503.772217,211.748291L504.178955,218.121277L504.163940,220.828491L504.960083,224.372986L504.992065,225.229248L505.065308,225.603943L505.213135,225.955933L505.429565,226.270386L505.705322,226.534424L506.029053,226.736755L506.386963,226.869080L506.764526,226.925781L507.145752,226.904541L507.514648,226.806213L507.855835,226.634888L508.155029,226.397888L508.399658,226.104797L509.469971,224.626709L509.777100,223.842468L510.907959,215.878601L511.931274,209.755554L512.565918,206.148132L513.304199,203.152588L513.773071,200.984680L515.824707,195.609070L518.346191,191.681152L520.115845,189.880249L524.137207,187.458557L526.046509,187.075256L528.106689,187.379761L529.656738,187.651550L532.782959,189.853699L536.369629,194.416748L538.273560,198.299988L542.127075,209.270874L544.363770,223.971313L545.039795,230.362061L545.107300,230.700317L545.239502,231.018860L545.431274,231.305481L545.675537,231.549133L545.962280,231.740601L546.281006,231.872375L546.619385,231.939392L546.964233,231.939087L547.302368,231.871582L547.620972,231.739441L547.907593,231.547546L548.151123,231.303589L548.342651,231.016663L548.474365,230.697998L548.541382,230.359619L548.541260,230.014709L547.943237,223.565308L545.545166,208.587891L541.841919,196.941162L539.455811,192.622986L535.557007,187.334961L531.333984,184.595642L528.959595,183.695984L526.196777,183.484863L523.236572,183.713074L522.518311,183.963135L517.877075,186.671204L515.508911,189.278259L512.447388,193.619812L510.166382,199.784241L509.562256,202.310730L508.939575,205.363098L508.175293,209.072632L507.288086,215.320007L506.076660,222.845520L507.316406,223.252075L508.582886,223.949219L508.061279,220.597656L507.972534,218.026001L507.622559,211.479675L504.104492,179.098938L501.580200,164.324341L496.761353,144.623169L494.652466,139.237732L494.207397,137.279846z" fill="#000000" stroke="none" fill-opacity="1" />
				<path d="M85.820740,194.584839L85.717957,194.563904L85.613220,194.563477L85.510376,194.583435L85.413452,194.623047L85.326111,194.680847L85.251465,194.754639L85.193054,194.841492L85.152466,194.938110L85.131531,195.040771L85.131104,195.145569L85.151123,195.248352L85.190674,195.345337L85.248535,195.432678L85.322266,195.507202L85.409058,195.565796L85.505737,195.606384L89.713867,196.886780L92.188171,197.573181L94.517578,197.994995L96.298767,198.142029L100.522766,198.291077L102.248779,197.929443L107.877197,196.871582L112.165161,195.357849L116.269226,194.033569L118.592529,193.170105L124.487549,190.442383L133.392761,185.487427L136.358398,183.181763L138.170166,181.502686L139.397949,180.029114L140.409546,178.112549L141.280273,174.016418L141.206299,173.144287L140.792969,171.583313L140.427124,170.976135L139.139771,169.706116L137.459717,168.399902L135.756348,167.678040L129.893555,166.821533L123.496643,167.949402L121.287964,168.491760L116.528259,170.349304L111.720032,172.357117L106.951416,175.120911L102.533997,177.919250L96.337463,183.317383L92.608093,187.211121L89.574219,191.614746L87.098877,195.823120L85.610901,200.324280L84.903320,206.640015L86.664795,212.739014L86.976318,213.343445L90.579407,217.864441L94.082947,220.726013L98.567383,222.788147L103.194275,224.346252L105.874451,224.918152L113.969788,225.066833L116.789978,224.882935L122.425171,223.687744L130.530762,221.390503L139.665894,217.464722L139.930420,217.324097L140.162109,217.134766L140.352661,216.903748L140.494507,216.640137L140.581909,216.353760L140.612061,216.055908L140.583252,215.757935L140.497070,215.471252L140.356567,215.206909L140.167114,214.975037L139.936157,214.784607L139.672485,214.642883L139.386108,214.555359L139.088257,214.525269L138.790283,214.553955L138.503540,214.640259L129.491272,218.173279L121.786621,220.522888L116.400574,221.211487L113.981934,221.457764L106.452393,221.072327L104.197937,220.694275L99.982849,219.543701L96.211365,217.576233L93.219910,215.500793L90.059265,211.372131L88.731934,206.594604L89.029602,201.283630L90.480530,197.499573L92.469849,193.586609L95.491333,189.707275L98.758118,185.979980L104.730896,180.992554L108.716736,178.151794L113.324219,175.727539L117.755493,173.574707L122.350098,172.091797L124.211243,171.524841L129.773376,170.627258L134.534424,170.918945L135.538879,171.539001L136.733765,172.182678L137.506226,173.149780L137.940063,173.860901L137.405029,176.722595L136.542725,178.068665L135.776794,179.296997L134.431335,180.763611L131.672913,182.656860L123.104797,187.617859L117.369202,190.290955L115.206970,191.274292L111.349243,192.943054L107.177795,194.176025L101.857849,195.719727L100.354492,195.856384L96.377014,196.328613L94.682007,196.228271L92.430359,196.186401L89.993958,195.888916z" fill="#000000" stroke="none" fill-opacity="1" />
				<path d="M151.989380,194.584839L151.886841,194.563904L151.781982,194.563477L151.679077,194.583435L151.582153,194.623047L151.494751,194.680847L151.420288,194.754639L151.361694,194.841492L151.321167,194.938110L151.300293,195.040771L151.299805,195.145569L151.319824,195.248352L151.359497,195.345337L151.417236,195.432678L151.490967,195.507202L151.577881,195.565796L151.674438,195.606384L155.882568,196.886780L158.356689,197.573181L160.686157,197.994995L162.467407,198.142029L166.691406,198.291077L168.417480,197.929443L174.045776,196.871582L178.333740,195.357849L182.437866,194.033569L184.761230,193.170105L190.656250,190.442383L199.561401,185.487427L202.527100,183.181763L204.338867,181.502686L205.566650,180.029114L206.578369,178.112549L207.448853,174.016418L207.374878,173.144287L206.961792,171.583313L206.595825,170.976135L205.308472,169.705994L203.628418,168.399902L201.925049,167.678040L196.062134,166.821533L189.665283,167.949402L187.456665,168.491760L182.697021,170.349304L177.888672,172.357117L173.119995,175.120911L168.702881,177.919250L162.506226,183.317383L158.776733,187.211121L155.742798,191.614746L153.267700,195.823120L151.779663,200.324280L151.071899,206.640015L152.833252,212.738953L153.144897,213.343445L156.748047,217.864441L160.251709,220.726013L164.735962,222.788147L169.362915,224.346252L172.043213,224.918152L180.138428,225.066833L182.958740,224.882935L188.593872,223.687744L196.699341,221.390503L205.834839,217.464722L206.099121,217.324097L206.330933,217.134766L206.521362,216.903748L206.663086,216.640137L206.750610,216.353760L206.780762,216.055908L206.752075,215.757935L206.665771,215.471252L206.525269,215.206909L206.335938,214.975037L206.104980,214.784607L205.841187,214.642883L205.554932,214.555359L205.257080,214.525269L204.958984,214.553955L204.672363,214.640259L195.659912,218.173279L187.955444,220.522888L182.569214,221.211487L180.150635,221.457764L172.621094,221.072327L170.366577,220.694275L166.151489,219.543701L162.380005,217.576233L159.388550,215.500793L156.227905,211.372131L154.900757,206.594666L155.198486,201.283630L156.649292,197.499573L158.638550,193.586609L161.660034,189.707275L164.926758,185.979980L170.899658,180.992554L174.885376,178.151794L179.493042,175.727539L183.924316,173.574707L188.518921,172.091797L190.379883,171.524841L195.942017,170.627258L200.703003,170.918945L201.707520,171.539001L202.902466,172.182800L203.674927,173.149780L204.108643,173.860901L203.573730,176.722595L202.711304,178.068665L201.945557,179.296997L200.600098,180.763611L197.841553,182.656860L189.273438,187.617859L183.537964,190.290955L181.375610,191.274292L177.518066,192.943054L173.346436,194.176025L168.026489,195.719727L166.523193,195.856384L162.545654,196.328613L160.850708,196.228271L158.598999,196.186401L156.162598,195.888916z" fill="#000000" stroke="none" fill-opacity="1" />
				<path d="M396.762085,164.378052L396.879883,164.377441L396.995239,164.353943L397.103760,164.308289L397.201294,164.242432L397.284180,164.158752L397.349243,164.060486L397.393799,163.951538L397.416138,163.835876L397.415527,163.718079L397.392090,163.602661L397.346436,163.494080L397.280640,163.396484L397.196899,163.313660L397.098633,163.248657L396.989624,163.204163L396.874023,163.181702L395.670166,163.009827L394.502319,162.859192L392.901245,162.713989L391.762085,162.953003L390.655518,163.532532L389.689941,164.287292L389.122925,164.867126L388.548950,165.971680L388.432983,166.517639L388.478271,167.484741L388.707520,168.358704L389.032959,168.971313L389.569214,169.604675L390.704468,170.323547L392.011963,170.713806L393.222656,170.813721L393.935791,170.772766L395.065918,170.525269L396.243286,170.004150L397.244385,169.224121L397.772583,168.557556L398.244629,167.324463L398.313477,166.414490L397.769531,165.092102L397.395386,164.396606L396.459473,163.459167L395.160522,162.876526L393.839478,162.685791L392.409424,162.969910L391.811035,163.291870L391.149414,163.895508L390.732666,164.557922L390.483154,165.433350L390.463989,166.344238L390.758789,167.231934L391.176514,167.789001L391.802856,168.291870L392.365112,168.567749L393.074829,168.729553L393.674072,168.814941L394.045776,168.817322L394.405029,168.722046L394.726807,168.535828L394.965454,168.353027L395.241577,168.145630L395.614258,167.723511L395.728638,167.525879L395.915771,166.847351L395.919312,166.533020L395.870850,166.144043L395.716797,165.783569L395.326416,165.137817L395.056030,164.813416L394.701660,164.584045L393.444580,164.012817L391.989136,163.802551L390.598633,164.092224L390.041626,164.392334L389.431274,164.929871L389.150513,165.267029L388.987183,165.674255L388.877075,166.443298L388.912720,167.171143L389.197876,167.771423L389.567383,168.522339L389.744873,168.719299L389.957275,168.877808L390.196777,168.991882L390.453613,169.057129L390.718384,169.070740L390.980713,169.032654L391.230713,168.944092L391.458496,168.808350L391.655396,168.630859L391.813965,168.418457L391.927979,168.179077L391.993164,167.921997L392.006958,167.657288L391.968872,167.394897L391.880249,167.145020L391.744629,166.917236L391.520386,166.785828L391.531372,166.677917L391.571411,166.711304L391.641479,166.694885L391.990234,166.612915L392.508179,166.659546L393.191895,166.916016L393.157959,166.876953L393.153320,166.451233L393.341797,166.092346L393.267334,166.113281L393.508667,166.067261L393.661133,165.974548L393.315674,165.920105L393.201538,165.835510L393.261841,165.908325L393.266724,165.982361L393.316650,165.721008L393.452637,165.625916L393.780762,165.568542L394.234253,165.645386L394.739380,165.880066L395.250244,166.203125L395.379150,166.251709L395.536621,166.816589L395.590454,166.831482L395.530640,167.273438L395.460815,167.380676L395.005127,167.778992L394.361328,168.084839L393.651489,168.243530L393.308228,168.267029L392.565186,168.209290L391.870361,168.010254L391.390137,167.707397L391.298950,167.573120L391.242310,167.420227L391.217407,167.301514L391.272705,166.835510L391.427368,166.381775L391.503052,166.151428L391.986328,165.678711L392.661011,165.310059L393.326904,164.972595L394.539551,164.439575L395.572754,164.325928z" fill="#000000" stroke="none" fill-opacity="1" />
			</g>
		</g>
	</g>
</svg>
